<?xml version="1.0" standalone="no"?>
<!DOCTYPE svg PUBLIC "-//W3C//DTD SVG 20010904//EN"
 "http://www.w3.org/TR/2001/REC-SVG-20010904/DTD/svg10.dtd">
<svg version="1.0" xmlns="http://www.w3.org/2000/svg"
 width="700.000000pt" height="700.000000pt" viewBox="0 0 700.000000 700.000000"
 preserveAspectRatio="xMidYMid meet">
<metadata>
Created by potrace 1.11, written by Peter Selinger 2001-2013
</metadata>
<g transform="translate(0.000000,700.000000) scale(0.100000,-0.100000)"
fill="#000000" stroke="none">
<path d="M3278 6995 c-1 -1 -42 -5 -89 -9 -47 -4 -95 -8 -105 -10 -10 -2 -48
-7 -84 -12 -36 -4 -67 -8 -70 -9 -3 -1 -25 -5 -50 -9 -356 -62 -747 -203
-1095 -394 -113 -62 -335 -210 -451 -303 -479 -378 -859 -886 -1084 -1450 -66
-165 -142 -407 -165 -530 -3 -13 -14 -69 -25 -124 -20 -105 -29 -163 -36 -230
-2 -22 -7 -76 -11 -120 -15 -152 -8 -601 12 -703 1 -9 6 -42 9 -73 4 -31 9
-67 11 -80 3 -13 7 -37 9 -54 23 -162 118 -491 206 -710 69 -174 260 -529 323
-601 60 -69 139 -84 188 -35 16 16 30 37 30 45 1 9 2 22 3 29 5 30 -26 102
-83 196 -210 347 -368 768 -426 1141 -3 19 -10 60 -15 90 -5 30 -12 87 -16
125 -3 39 -8 86 -10 105 -4 48 -4 415 1 465 2 22 6 69 10 105 7 82 31 229 59
365 29 142 96 358 163 520 389 954 1214 1675 2202 1925 113 29 190 45 261 56
19 3 62 9 95 14 61 10 131 17 220 25 59 5 400 5 465 0 86 -6 204 -20 265 -31
17 -3 44 -7 60 -9 17 -2 64 -10 105 -20 41 -9 86 -18 100 -21 161 -31 475
-146 690 -253 332 -165 578 -345 873 -634 44 -43 92 -83 106 -89 65 -25 124
-11 156 38 23 35 14 106 -19 148 -46 60 -205 213 -311 301 -33 28 -62 53 -65
56 -7 8 -188 140 -240 176 -311 211 -711 390 -1084 484 -177 45 -313 69 -536
95 -49 6 -546 14 -552 9z"/>
<path d="M3580 5341 c-88 -24 -147 -97 -162 -201 -5 -38 16 -112 42 -149 45
-61 110 -95 184 -94 133 1 230 97 229 228 0 156 -139 259 -293 216z"/>
<path d="M6460 4844 c-117 -19 -185 -32 -212 -40 -9 -3 -25 -6 -35 -8 -393
-78 -1051 -374 -1553 -697 -115 -74 -384 -271 -455 -333 -16 -14 -32 -22 -36
-18 -3 4 -12 41 -19 82 -16 96 -59 264 -105 410 -90 288 -137 370 -220 386
-49 9 -88 -3 -124 -38 -44 -43 -41 -81 18 -273 52 -169 87 -293 95 -335 2 -14
11 -59 20 -100 8 -41 17 -93 20 -115 3 -22 10 -68 14 -103 13 -96 7 -250 -13
-317 -16 -56 -67 -183 -122 -303 l-24 -52 -28 15 c-79 40 -143 173 -191 393
-28 127 -29 130 -35 177 -3 22 -8 47 -10 55 -3 8 -7 35 -10 60 -3 25 -7 56
-10 70 -3 14 -7 42 -10 64 -3 21 -8 52 -10 70 -3 17 -8 45 -11 61 -2 17 -6 41
-9 55 -3 14 -7 41 -10 60 -4 19 -17 82 -31 140 -66 283 -144 420 -255 450 -89
24 -233 -14 -317 -83 -148 -123 -292 -345 -406 -629 l-33 -81 -11 34 c-6 19
-15 57 -21 84 -10 46 -13 63 -25 143 -14 86 -27 219 -30 302 -7 147 -23 203
-67 226 -34 17 -78 11 -130 -18 -89 -50 -97 -171 -39 -543 5 -33 12 -80 15
-105 3 -25 8 -63 11 -85 13 -100 12 -92 30 -295 2 -30 7 -75 9 -100 6 -54 12
-123 20 -210 3 -36 8 -81 10 -100 2 -19 6 -64 10 -100 3 -36 8 -76 10 -90 3
-14 7 -54 10 -90 3 -36 8 -76 10 -90 3 -14 7 -46 10 -72 13 -120 41 -262 58
-298 10 -19 19 -24 41 -22 70 8 103 57 105 162 2 41 4 93 6 115 2 22 7 66 9
97 6 56 31 228 41 278 2 14 14 72 25 130 113 572 313 1038 485 1130 73 39 134
-74 199 -370 17 -74 28 -148 41 -285 4 -33 8 -71 10 -85 2 -14 7 -56 10 -95
17 -196 29 -267 57 -344 46 -126 164 -263 289 -336 33 -19 63 -35 67 -35 38
-1 33 -27 -51 -240 -164 -418 -215 -597 -221 -779 -6 -199 39 -344 136 -440
67 -67 108 -85 186 -84 115 1 212 67 325 218 119 159 217 416 243 636 3 30 8
57 10 60 7 12 17 234 17 374 0 139 -3 238 -19 550 -3 66 -7 175 -8 243 -2 119
-2 125 24 165 167 258 1151 838 1780 1048 80 26 193 57 251 67 269 48 330 -3
391 -328 59 -320 70 -391 83 -555 5 -59 5 -414 0 -460 -2 -22 -7 -69 -10 -105
-11 -122 -30 -237 -60 -377 -91 -419 -284 -847 -539 -1196 -97 -133 -98 -135
-201 -251 -241 -273 -524 -502 -840 -681 -79 -45 -254 -130 -325 -159 -36 -15
-75 -31 -87 -36 -13 -6 -33 -14 -45 -19 -82 -35 -374 -117 -498 -140 -30 -6
-64 -12 -76 -15 -12 -2 -45 -7 -75 -11 -30 -4 -56 -8 -59 -10 -3 -2 -43 -6
-90 -10 -47 -4 -101 -9 -120 -11 -51 -4 -387 -4 -440 1 -104 9 -177 16 -200
20 -14 2 -45 7 -70 10 -179 23 -508 109 -655 170 -16 7 -61 25 -100 40 -136
55 -334 157 -460 236 -206 130 -270 149 -329 94 -40 -37 -30 -113 21 -170 101
-113 490 -325 809 -441 90 -33 237 -80 274 -89 8 -2 44 -11 80 -20 67 -18 84
-21 135 -31 17 -3 48 -9 70 -14 38 -8 76 -14 161 -26 22 -3 53 -7 69 -9 219
-31 686 -26 902 9 21 4 52 8 70 10 117 15 354 73 538 133 576 187 1114 540
1515 992 36 41 70 79 75 85 62 66 240 317 318 448 181 301 348 718 413 1033
16 75 54 300 60 350 4 33 9 76 11 95 8 70 10 517 3 595 -13 129 -21 202 -25
226 -3 13 -7 41 -10 64 -3 22 -12 72 -20 110 -8 39 -16 84 -19 100 -3 17 -10
55 -16 85 -6 30 -13 66 -16 80 -25 133 -93 288 -150 344 -68 67 -139 83 -274
60z m-2509 -2068 c10 -62 1 -326 -16 -461 -2 -16 -7 -57 -10 -90 -26 -258 -93
-497 -174 -623 -78 -122 -110 -58 -105 205 4 248 45 473 127 703 43 121 108
272 130 298 19 23 41 9 48 -32z"/>
</g>
</svg>
