<?xml version="1.0" encoding="UTF-8"?>
<!DOCTYPE svg PUBLIC "-//W3C//DTD SVG 1.1//EN" "http://www.w3.org/Graphics/SVG/1.1/DTD/svg11.dtd">
<!-- Creator: CorelDRAW SE -->
<svg xmlns="http://www.w3.org/2000/svg" xml:space="preserve" width="722px" height="538px" version="1.1" style="shape-rendering:geometricPrecision; text-rendering:geometricPrecision; image-rendering:optimizeQuality; fill-rule:evenodd; clip-rule:evenodd"
viewBox="0 0 465949769 347233859"
 xmlns:xlink="http://www.w3.org/1999/xlink">
 <defs>
  <style type="text/css">
   <![CDATA[
    .fil11 {fill:#1A4F9C;fill-rule:nonzero}
    .fil9 {fill:#2E65AD;fill-rule:nonzero}
    .fil7 {fill:#3A72B7;fill-rule:nonzero}
    .fil10 {fill:#C1D6F0;fill-rule:nonzero}
    .fil8 {fill:#CCCCCB;fill-rule:nonzero}
    .fil1 {fill:#E0E0E0;fill-rule:nonzero}
    .fil5 {fill:#E7E7E6;fill-rule:nonzero}
    .fil0 {fill:#EBECEC;fill-rule:nonzero}
    .fil4 {fill:#EFEFEF;fill-rule:nonzero}
    .fil2 {fill:#F4F4F4;fill-rule:nonzero}
    .fil6 {fill:#FAFAFA;fill-rule:nonzero}
    .fil3 {fill:#FEFEFE;fill-rule:nonzero}
   ]]>
  </style>
 </defs>
 <g id="Szybki_x0020_kadr_x0020_-_x0020_zawartość">
  <metadata id="CorelCorpID_0Corel-Layer"/>
  <g id="_1377300560">
   <polygon class="fil0" points="0,305379604 465949769,305379604 465949769,305147055 0,305147055 "/>
   <polygon class="fil0" points="48886386,314254591 79752888,314254591 79752888,314021279 48886386,314021279 "/>
   <polygon class="fil0" points="159485190,311725524 199116886,311725524 199116886,311492975 159485190,311492975 "/>
   <polygon class="fil0" points="87109063,317524002 104994754,317524002 104994754,317291452 87109063,317291452 "/>
   <polygon class="fil0" points="405066139,321342381 419263068,321342381 419263068,321109069 405066139,321109069 "/>
   <polygon class="fil0" points="364812280,321342381 396768332,321342381 396768332,321109069 364812280,321109069 "/>
   <polygon class="fil0" points="287025003,314638106 309235343,314638106 309235343,314404794 287025003,314404794 "/>
   <path class="fil0" d="M40924821 232549c-2805075,0 -5087106,2281268 -5087106,5085581l0 252947798c0,2804313 2282031,5085581 5087106,5085581l179948744 0c2803551,0 5084819,-2281268 5084819,-5085581l0 -252947798c0,-2804313 -2281268,-5085581 -5084819,-5085581l-179948744 0zm179948744 263352272l-179948744 0c-2933168,0 -5319655,-2385725 -5319655,-5318893l0 -252947798c0,-2932405 2386487,-5318130 5319655,-5318130l179948744 0c2931643,0 5318130,2385725 5318130,5318130l0 252947798c0,2933168 -2386487,5318893 -5318130,5318893z"/>
   <path class="fil0" d="M242491478 232549c-2803551,0 -5084819,2281268 -5084819,5085581l0 252947798c0,2804313 2281268,5085581 5084819,5085581l179947982 0c2805075,0 5087868,-2281268 5087868,-5085581l0 -252947798c0,-2804313 -2282793,-5085581 -5087868,-5085581l-179947982 0zm179947982 263352272l-179947982 0c-2932406,0 -5318130,-2385725 -5318130,-5318893l0 -252947798c0,-2932405 2385724,-5318130 5318130,-5318130l179947982 0c2933930,0 5320417,2385725 5320417,5318130l0 252947798c0,2933168 -2386487,5318893 -5320417,5318893z"/>
   <polygon class="fil1" points="106859721,282603521 403614423,282603521 403614423,21166539 106859721,21166539 "/>
   <polygon class="fil2" points="101476020,282603521 398229960,282603521 398229960,43532420 101476020,43532420 "/>
   <polygon class="fil3" points="141025370,242428956 354331561,242428956 354331561,83707747 141025370,83707747 "/>
   <polygon class="fil4" points="62336108,282603521 101476020,282603521 101476020,43532420 62336108,43532420 "/>
   <polygon class="fil0" points="62336108,58753328 101476020,58753328 101476020,43532420 62336108,43532420 "/>
   <polygon class="fil5" points="62336108,43532420 398229197,43532420 398229197,21166539 62336108,21166539 "/>
   <polygon class="fil6" points="101476020,52851156 191869743,52851156 191869743,43532420 101476020,43532420 "/>
   <polygon class="fil0" points="191869743,52851156 282264228,52851156 282264228,43532420 191869743,43532420 "/>
   <polygon class="fil5" points="65271563,75558618 78970608,75558618 78970608,61860335 65271563,61860335 "/>
   <polygon class="fil5" points="84841519,75558618 98539802,75558618 98539802,61860335 84841519,61860335 "/>
   <polygon class="fil5" points="84841519,95129337 98539802,95129337 98539802,81429529 84841519,81429529 "/>
   <polygon class="fil5" points="65271563,95129337 78970608,95129337 78970608,81429529 65271563,81429529 "/>
   <polygon class="fil5" points="65271563,114698530 78970608,114698530 78970608,101000247 65271563,101000247 "/>
   <polygon class="fil5" points="84841519,114698530 98539802,114698530 98539802,101000247 84841519,101000247 "/>
   <polygon class="fil5" points="84841519,134268486 98539802,134268486 98539802,120569441 84841519,120569441 "/>
   <polygon class="fil5" points="65271563,134268486 78970608,134268486 78970608,120569441 65271563,120569441 "/>
   <polygon class="fil5" points="65271563,153838442 78970608,153838442 78970608,140139396 65271563,140139396 "/>
   <polygon class="fil5" points="84841519,153838442 98539802,153838442 98539802,140139396 84841519,140139396 "/>
   <polygon class="fil5" points="84841519,173408398 98539802,173408398 98539802,159709352 84841519,159709352 "/>
   <polygon class="fil5" points="65271563,173408398 78970608,173408398 78970608,159709352 65271563,159709352 "/>
   <polygon class="fil5" points="65271563,226813859 73666203,226813859 73666203,218419220 65271563,218419220 "/>
   <polygon class="fil5" points="90145162,226813859 98539802,226813859 98539802,218419220 90145162,218419220 "/>
   <polygon class="fil5" points="77708744,226813859 86103384,226813859 86103384,218419220 77708744,218419220 "/>
   <polygon class="fil5" points="78093022,212462914 98455169,212462914 98455169,192100767 78093022,192100767 "/>
   <polygon class="fil3" points="65271563,199641456 85633711,199641456 85633711,179279308 65271563,179279308 "/>
   <path class="fil2" d="M293890918 171120267c-18871546,0 -34169462,-15297915 -34169462,-34169461 0,-18870784 15297916,-34169462 34169462,-34169462 18871546,0 34169462,15298678 34169462,34169462 0,18871546 -15297916,34169461 -34169462,34169461z"/>
   <polygon class="fil2" points="282675954,218419220 305105882,218419220 305105882,159709352 282675954,159709352 "/>
   <path class="fil2" d="M413660542 336681469c0,5828213 -80895809,10552390 -180685276,10552390 -99790230,0 -180685277,-4724177 -180685277,-10552390 0,-5827451 80895047,-10552390 180685277,-10552390 99789467,0 180685276,4724939 180685276,10552390z"/>
   <path class="fil7" d="M263984347 175150609l-26387074 26387074c0,0 -16265472,-18234895 -37794939,-16174739 -7963090,-17479302 -17061476,-54726798 -19569194,-65356958l35932260 35933022c-1153596,2109715 -834889,4797372 946970,6579232 2169950,2170712 5673435,2170712 7843384,0 2169950,-2169187 2179862,-5682584 9912,-7853296 -1781859,-1781097 -4478666,-2089892 -6589906,-936296l-35933022 -35932260c10630160,2507718 47877656,11606104 65356958,19569194 -2050244,21519555 16184651,37785027 16184651,37785027z"/>
   <g>
    <path class="fil8" d="M259681809 170558337c-5253321,-6299410 -13278170,-18524628 -11882113,-33191230 762,1525 762,1525 2287,1525 -1399106,14666601 6627267,26891820 11880588,33188180l-762 1525zm-34726817 -8040097l0 0c1206205,-1206968 1745261,-2830999 1613357,-4408520 133429,1576759 -405627,3200790 -1612595,4408520l0 0 -762 0zm1613357 -4408520l-763 0 763 0zm-8198689 -4380309l-35932260 -35932260c3050,1525 5338,1525 8387,2287l35928448 35926923c-2287,1525 -3050,2287 -4575,3050z"/>
   </g>
   <path class="fil9" d="M246320531 183883017l-21365539 -21364777c762,0 762,0 762,0 1206968,-1207730 1746024,-2831761 1612595,-4408520l-763 0c-105981,-1256528 -637413,-2482557 -1597345,-3444014 -1082687,-1082687 -2498568,-1621743 -3917498,-1621743 -921810,0 -1845144,227974 -2678508,682398l-35928448 -35926923c10646172,2512292 47882232,11604579 65353909,19567669 -1396057,14666602 6628792,26891820 11882113,33191230 -105982,81583 -206626,170028 -303458,266860l-13057820 13057820z"/>
   <path class="fil7" d="M336793550 274356035l0 0c-4629633,4629633 -12205394,4629633 -16835027,0l-77386987 -77386987 16835026 -16835027 77386988 77386988c4629632,4629632 4629632,12205394 0,16835026z"/>
   <path class="fil10" d="M328376036 277827497c-3051348,0 -6102697,-1156646 -8417513,-3471462l-68861968 -68861968 16835027 -16835026 68861968 68861968c2314816,2314816 3472224,5366164 3472224,8418275 0,3050587 -1157408,6101935 -3472224,8416751l0 0c-2314816,2314816 -5366165,3471462 -8417514,3471462z"/>
   <path class="fil7" d="M268739785 187850075l-18452958 18452958c-1060576,1059814 -2795163,1059814 -3855739,0l-4669280 -4669280c-1060577,-1060576 -1060577,-2795163 0,-3855740l18452957 -18452958c1060577,-1060576 2796689,-1060576 3855740,0l4669280 4669280c1060576,1060577 1060576,2795164 0,3855740z"/>
   <path class="fil7" d="M268309760 179755843l-26117165 26116402c-1274064,1274827 -3359381,1274827 -4633444,0l-4297202 -4295676c-1274826,-1274827 -1274826,-3360143 0,-4634970l26116402 -26116402c1274827,-1274826 3360144,-1274826 4634970,0l4296439 4297201c1274064,1274064 1274064,3359381 0,4633445z"/>
   <path class="fil11" d="M239875492 206828365c-839464,0 -1679691,-318707 -2316341,-956120l-4297202 -4295676c-637413,-637413 -956120,-1477640 -956120,-2317866 0,-839464 318707,-1679691 956120,-2317104l26116402 -26116402c637413,-637413 1477640,-956120 2317866,-956120 839464,0 1679691,318707 2317104,956120l4296439 4297201c636651,636651 955357,1476878 955357,2316342 0,840226 -318706,1679690 -955357,2317103l-1904615 1903852 -22308697 22308698 -1903853 1903852c-637413,637413 -1476877,956120 -2317103,956120z"/>
   <polygon class="fil3" points="249638740,198426863 245879069,202186533 236948423,193255125 240707331,189496980 "/>
   <polygon class="fil3" points="252173143,195892460 253715591,194350012 244784183,185420128 243241734,186961814 "/>
   <path class="fil7" d="M174151030 286384540c-48156716,-48156716 -48156716,-126513547 0,-174670262 48156715,-48157478 126513546,-48157478 174670262,0l-1430368 1428842c-47367573,-47368336 -124441954,-47368336 -171810290,0 -47367573,47369098 -47367573,124442716 0,171811052l-1429604 1430368z"/>
   <polygon class="fil7" points="88960306,199764973 87530701,198333844 260770596,25093186 262200963,26523554 "/>
   <polygon class="fil3" points="187810427,112428699 174865451,125372913 161921237,112428699 174865451,99484485 "/>
   <path class="fil7" d="M163350842 112428699l11514609 11514609 11514609 -11514609 -11514609 -11514609 -11514609 11514609zm11514609 14374581l-14374581 -14374581 14374581 -14374582 14374581 14374582 -14374581 14374581z"/>
   <polygon class="fil3" points="187810427,285668594 174865451,298614332 161921237,285668594 174865451,272725142 "/>
   <path class="fil7" d="M163350842 285668594l11514609 11514609 11514609 -11514609 -11514609 -11513847 -11514609 11513847zm11514609 14374581l-14374581 -14374581 14374581 -14374582 14374581 14374582 -14374581 14374581z"/>
   <polygon class="fil3" points="361426975,112052046 348481999,124997022 335538547,112052046 348481999,99107832 "/>
   <path class="fil7" d="M336968152 112052046l11513847 11514609 11514609 -11514609 -11514609 -11514610 -11513847 11514610zm11513847 14374581l-14374581 -14374581 14374581 -14374582 14374581 14374582 -14374581 14374581z"/>
   <path class="fil3" d="M268334158 18959991c3575156,3574393 3575156,9369058 0,12944214 -3574393,3574393 -9369820,3574393 -12944214,0 -3574393,-3575156 -3574393,-9369821 0,-12944214 3574394,-3575156 9369821,-3575156 12944214,0z"/>
   <path class="fil7" d="M261862433 17290213c-2175287,0 -4220194,847088 -5757305,2384962 -3174104,3174866 -3174104,8339743 0,11513846 3174867,3175629 8340505,3174867 11514609,0 1537111,-1537111 2384200,-3582017 2384200,-5757304 0,-2174524 -847089,-4219431 -2384200,-5756542 -1537873,-1537874 -3582780,-2384962 -5757304,-2384962zm0 18305804c-2715868,0 -5268571,-1056764 -7188435,-2975866 -3961721,-3964008 -3961721,-10412860 0,-14374581 1919864,-1921389 4472567,-2977390 7188435,-2977390 2714343,0 5267045,1056001 7186147,2977390 1921389,1919101 2977390,4471804 2977390,7186147 0,2715105 -1056001,5267045 -2977390,7188434 -1919102,1919102 -4471804,2975866 -7186147,2975866z"/>
   <path class="fil3" d="M94717610 192576539c3574394,3575156 3574394,9370583 0,12944214 -3574393,3575156 -9369820,3575156 -12944976,0 -3574393,-3573631 -3574393,-9369058 0,-12944214 3575156,-3574393 9370583,-3574393 12944976,0z"/>
   <path class="fil7" d="M88245122 190910573c-2085317,0 -4169109,793717 -5757304,2381150 -3174104,3174866 -3174104,8340505 0,11514609 3174866,3174866 8340505,3174104 11514609,0 3174104,-3174104 3174104,-8339743 0,-11514609 -1586671,-1587433 -3672750,-2381150 -5757305,-2381150zm0 18298179c-2603024,0 -5205286,-991192 -7186909,-2972053 -3963246,-3963246 -3963246,-10412098 0,-14374581 3963246,-3963246 10412098,-3963246 14373819,0 3964008,3962483 3964008,10411335 0,14374581 -1980861,1980861 -4583885,2972053 -7186910,2972053z"/>
  </g>
 </g>
</svg>
