<?xml version="1.0" encoding="UTF-8"?>
<!DOCTYPE svg PUBLIC "-//W3C//DTD SVG 1.1//EN" "http://www.w3.org/Graphics/SVG/1.1/DTD/svg11.dtd">
<!-- Creator: CorelDRAW SE -->
<svg xmlns="http://www.w3.org/2000/svg" xml:space="preserve" width="59px" height="59px" version="1.1" style="shape-rendering:geometricPrecision; text-rendering:geometricPrecision; image-rendering:optimizeQuality; fill-rule:evenodd; clip-rule:evenodd"
viewBox="0 0 3094094 3094094"
 xmlns:xlink="http://www.w3.org/1999/xlink">
 <defs>
  <style type="text/css">
   <![CDATA[
    .fil0 {fill:#21CC7C}
   ]]>
  </style>
 </defs>
 <g id="Szybki_x0020_kadr_x0020_-_x0020_zawartość">
  <metadata id="CorelCorpID_0Corel-Layer"/>
  <g id="_767239704">
   <g>
    <path class="fil0" d="M1547016 0c-853016,0 -1547016,693938 -1547016,1547016 0,853078 694000,1547078 1547016,1547078 853016,0 1547078,-694000 1547078,-1547078 0,-853078 -694062,-1547016 -1547078,-1547016zm0 2975035c-787337,0 -1428020,-640620 -1428020,-1428019 0,-787399 640683,-1428020 1428020,-1428020 787399,0 1428082,640621 1428082,1428020 0,787399 -640683,1428019 -1428082,1428019z"/>
    <path class="fil0" d="M2276041 912514l-914450 1028763 -550967 -440711c-25535,-20540 -63119,-16295 -83597,9240 -20540,25722 -16357,63182 9302,83660l595045 476048c10926,8740 24099,13048 37147,13048 16420,0 32777,-6805 44515,-20041l952034 -1071030c21851,-24473 19603,-62183 -4933,-83909 -24661,-21914 -62182,-19729 -84096,4932z"/>
   </g>
   <g>
   </g>
   <g>
   </g>
   <g>
   </g>
   <g>
   </g>
   <g>
   </g>
   <g>
   </g>
   <g>
   </g>
   <g>
   </g>
   <g>
   </g>
   <g>
   </g>
   <g>
   </g>
   <g>
   </g>
   <g>
   </g>
   <g>
   </g>
   <g>
   </g>
  </g>
 </g>
</svg>
