<?xml version="1.0" encoding="UTF-8"?>
<!DOCTYPE svg PUBLIC "-//W3C//DTD SVG 1.1//EN" "http://www.w3.org/Graphics/SVG/1.1/DTD/svg11.dtd">
<!-- Creator: CorelDRAW SE -->
<svg xmlns="http://www.w3.org/2000/svg" xml:space="preserve" width="22.0681mm" height="20.0964mm" version="1.1" style="shape-rendering:geometricPrecision; text-rendering:geometricPrecision; image-rendering:optimizeQuality; fill-rule:evenodd; clip-rule:evenodd"
viewBox="0 0 74511 67854"
 xmlns:xlink="http://www.w3.org/1999/xlink">
 <defs>
  <style type="text/css">
   <![CDATA[
    .fil0 {fill:#EBECEC}
   ]]>
  </style>
 </defs>
 <g id="Szybki_x0020_kadr_x0020_-_x0020_zawartość">
  <metadata id="CorelCorpID_0Corel-Layer"/>
  <g id="_638855480">
   <circle class="fil0" transform="matrix(0.317376 -0.000412636 0.000412636 0.317376 2325.31 2416.01)" r="7326"/>
   <circle class="fil0" transform="matrix(0.317376 -0.000412636 0.000412636 0.317376 12305.4 2403.03)" r="7326"/>
   <circle class="fil0" transform="matrix(0.317376 -0.000412636 0.000412636 0.317376 22285.5 2390.06)" r="7326"/>
   <circle class="fil0" transform="matrix(0.317376 -0.000412636 0.000412636 0.317376 32265.7 2377.08)" r="7326"/>
   <circle class="fil0" transform="matrix(0.317376 -0.000412636 0.000412636 0.317376 42245.8 2364.11)" r="7326"/>
   <circle class="fil0" transform="matrix(0.317376 -0.000412636 0.000412636 0.317376 52225.9 2351.13)" r="7326"/>
   <circle class="fil0" transform="matrix(0.317376 -0.000412636 0.000412636 0.317376 62206 2338.16)" r="7326"/>
   <circle class="fil0" transform="matrix(0.317376 -0.000412636 0.000412636 0.317376 72186.1 2325.18)" r="7326"/>
   <circle class="fil0" transform="matrix(0.317376 -0.000412636 0.000412636 0.317376 2337.03 11432.1)" r="7326"/>
   <circle class="fil0" transform="matrix(0.317376 -0.000412636 0.000412636 0.317376 12317.1 11419.1)" r="7326"/>
   <circle class="fil0" transform="matrix(0.317376 -0.000412636 0.000412636 0.317376 22297.3 11406.2)" r="7326"/>
   <circle class="fil0" transform="matrix(0.317376 -0.000412636 0.000412636 0.317376 32277.4 11393.2)" r="7326"/>
   <circle class="fil0" transform="matrix(0.317376 -0.000412636 0.000412636 0.317376 42257.5 11380.2)" r="7326"/>
   <circle class="fil0" transform="matrix(0.317376 -0.000412636 0.000412636 0.317376 52237.6 11367.2)" r="7326"/>
   <circle class="fil0" transform="matrix(0.317376 -0.000412636 0.000412636 0.317376 62217.7 11354.3)" r="7326"/>
   <circle class="fil0" transform="matrix(0.317376 -0.000412636 0.000412636 0.317376 2348.75 20448.2)" r="7326"/>
   <circle class="fil0" transform="matrix(0.317376 -0.000412636 0.000412636 0.317376 12328.9 20435.2)" r="7326"/>
   <circle class="fil0" transform="matrix(0.317376 -0.000412636 0.000412636 0.317376 22309 20422.3)" r="7326"/>
   <circle class="fil0" transform="matrix(0.317376 -0.000412636 0.000412636 0.317376 32289.1 20409.3)" r="7326"/>
   <circle class="fil0" transform="matrix(0.317376 -0.000412636 0.000412636 0.317376 42269.2 20396.3)" r="7326"/>
   <circle class="fil0" transform="matrix(0.317376 -0.000412636 0.000412636 0.317376 52249.3 20383.3)" r="7326"/>
   <circle class="fil0" transform="matrix(0.317376 -0.000412636 0.000412636 0.317376 2360.48 29464.3)" r="7326"/>
   <circle class="fil0" transform="matrix(0.317376 -0.000412636 0.000412636 0.317376 12340.6 29451.3)" r="7326"/>
   <circle class="fil0" transform="matrix(0.317376 -0.000412636 0.000412636 0.317376 22320.7 29438.4)" r="7326"/>
   <circle class="fil0" transform="matrix(0.317376 -0.000412636 0.000412636 0.317376 32300.8 29425.4)" r="7326"/>
   <circle class="fil0" transform="matrix(0.317376 -0.000412636 0.000412636 0.317376 42280.9 29412.4)" r="7326"/>
   <circle class="fil0" transform="matrix(0.317376 -0.000412636 0.000412636 0.317376 2372.2 38480.4)" r="7326"/>
   <circle class="fil0" transform="matrix(0.317376 -0.000412636 0.000412636 0.317376 12352.3 38467.5)" r="7326"/>
   <circle class="fil0" transform="matrix(0.317376 -0.000412636 0.000412636 0.317376 22332.4 38454.5)" r="7326"/>
   <circle class="fil0" transform="matrix(0.317376 -0.000412636 0.000412636 0.317376 32312.5 38441.5)" r="7326"/>
   <circle class="fil0" transform="matrix(0.317376 -0.000412636 0.000412636 0.317376 2383.92 47496.5)" r="7326"/>
   <circle class="fil0" transform="matrix(0.317376 -0.000412636 0.000412636 0.317376 12364 47483.6)" r="7326"/>
   <circle class="fil0" transform="matrix(0.317376 -0.000412636 0.000412636 0.317376 22344.1 47470.6)" r="7326"/>
   <circle class="fil0" transform="matrix(0.317376 -0.000412636 0.000412636 0.317376 2395.64 56512.6)" r="7326"/>
   <circle class="fil0" transform="matrix(0.317376 -0.000412636 0.000412636 0.317376 12375.8 56499.7)" r="7326"/>
   <circle class="fil0" transform="matrix(0.317376 -0.000412636 0.000412636 0.317376 2407.37 65528.7)" r="7326"/>
  </g>
 </g>
</svg>
