<?xml version="1.0" encoding="UTF-8"?>
<!DOCTYPE svg PUBLIC "-//W3C//DTD SVG 1.1//EN" "http://www.w3.org/Graphics/SVG/1.1/DTD/svg11.dtd">
<!-- Creator: CorelDRAW SE -->
<svg xmlns="http://www.w3.org/2000/svg" xml:space="preserve" width="62px" height="58px" version="1.1" style="shape-rendering:geometricPrecision; text-rendering:geometricPrecision; image-rendering:optimizeQuality; fill-rule:evenodd; clip-rule:evenodd"
viewBox="0 0 3542425 3293557"
 xmlns:xlink="http://www.w3.org/1999/xlink">
 <defs>
  <style type="text/css">
   <![CDATA[
    .fil0 {fill:#21CC7C}
   ]]>
  </style>
 </defs>
 <g id="Szybki_x0020_kadr_x0020_-_x0020_zawartość">
  <metadata id="CorelCorpID_0Corel-Layer"/>
  <g id="_767221536">
   <g>
    <path class="fil0" d="M3536511 982099c-51682,-569111 -454523,-982032 -958644,-982032 -335902,0 -643375,180720 -816433,470384 -171513,-293427 -466418,-470451 -796876,-470451 -504054,0 -906961,412921 -958644,982032 -4099,25135 -20834,157466 30109,373201 73458,311170 243089,594247 490478,818383l1234126 1119941 1255297 -1119874c247322,-224203 417021,-507213 490411,-818450 51010,-215667 34208,-347998 30176,-373134zm-162776 341950c-67073,284220 -222456,543169 -449011,748353l-1163290 1037881 -1143396 -1037612c-226892,-205587 -382275,-464470 -449348,-748689 -48255,-204175 -28429,-319570 -28361,-320309l1008 -6856c44289,-498610 390474,-860588 823221,-860588 319301,0 600362,196178 733768,511985l62772 148729 62704 -148729c131323,-310968 427236,-511918 754132,-511918 432680,0 778865,361978 824028,867041 134,1075 19961,116537 -28227,320712z"/>
    <path class="fil0" d="M1089967 414064c-375689,0 -681280,305591 -681280,681279 0,37636 30445,68081 68148,68081 37636,0 68148,-30445 68148,-68081 0,-300550 244500,-545050 544984,-545050 37703,0 68148,-30445 68148,-68148 0,-37636 -30580,-68081 -68148,-68081z"/>
   </g>
   <g>
   </g>
   <g>
   </g>
   <g>
   </g>
   <g>
   </g>
   <g>
   </g>
   <g>
   </g>
   <g>
   </g>
   <g>
   </g>
   <g>
   </g>
   <g>
   </g>
   <g>
   </g>
   <g>
   </g>
   <g>
   </g>
   <g>
   </g>
   <g>
   </g>
  </g>
 </g>
</svg>
