<?xml version="1.0" encoding="UTF-8"?>
<!DOCTYPE svg PUBLIC "-//W3C//DTD SVG 1.0//EN" "http://www.w3.org/TR/2001/REC-SVG-20010904/DTD/svg10.dtd">
<!-- Creator: CorelDRAW SE -->
<svg xmlns="http://www.w3.org/2000/svg" xml:space="preserve" width="444px" height="367px" version="1.0" style="shape-rendering:geometricPrecision; text-rendering:geometricPrecision; image-rendering:optimizeQuality; fill-rule:evenodd; clip-rule:evenodd"
viewBox="0 0 4917 4064"
 xmlns:xlink="http://www.w3.org/1999/xlink">
 <defs>
  <style type="text/css">
   <![CDATA[
    .str0 {stroke:#080A5A;stroke-width:23.0806}
    .fil27 {fill:none}
    .fil38 {fill:#121111}
    .fil42 {fill:#BA936A}
    .fil41 {fill:black;fill-rule:nonzero}
    .fil10 {fill:#00AEF9;fill-rule:nonzero}
    .fil9 {fill:#00BCFF;fill-rule:nonzero}
    .fil1 {fill:#030862;fill-rule:nonzero}
    .fil12 {fill:#040530;fill-rule:nonzero}
    .fil8 {fill:#080A5A;fill-rule:nonzero}
    .fil4 {fill:#111A75;fill-rule:nonzero}
    .fil29 {fill:#1A1818;fill-rule:nonzero}
    .fil32 {fill:#211E1E;fill-rule:nonzero}
    .fil28 {fill:#263138;fill-rule:nonzero}
    .fil21 {fill:#362656;fill-rule:nonzero}
    .fil3 {fill:#3B49A0;fill-rule:nonzero}
    .fil14 {fill:#434242;fill-rule:nonzero}
    .fil19 {fill:#543F77;fill-rule:nonzero}
    .fil20 {fill:#5990FF;fill-rule:nonzero}
    .fil16 {fill:#6060C8;fill-rule:nonzero}
    .fil23 {fill:#725E99;fill-rule:nonzero}
    .fil6 {fill:#75591D;fill-rule:nonzero}
    .fil22 {fill:#7759B5;fill-rule:nonzero}
    .fil37 {fill:#7B5846;fill-rule:nonzero}
    .fil17 {fill:#7E7EDD;fill-rule:nonzero}
    .fil36 {fill:#9AACB2;fill-rule:nonzero}
    .fil26 {fill:#A3A3F4;fill-rule:nonzero}
    .fil35 {fill:#AF7336;fill-rule:nonzero}
    .fil5 {fill:#B3AFF9;fill-rule:nonzero}
    .fil33 {fill:#B3C9CF;fill-rule:nonzero}
    .fil31 {fill:#BA936A;fill-rule:nonzero}
    .fil34 {fill:#CE843D;fill-rule:nonzero}
    .fil30 {fill:#EA943F;fill-rule:nonzero}
    .fil11 {fill:#F7B57B;fill-rule:nonzero}
    .fil15 {fill:#F9FBFB;fill-rule:nonzero}
    .fil7 {fill:#FAD8B4;fill-rule:nonzero}
    .fil13 {fill:#FEFEFE;fill-rule:nonzero}
    .fil24 {fill:#FF6497;fill-rule:nonzero}
    .fil25 {fill:#FFED4D;fill-rule:nonzero}
    .fil2 {fill:white;fill-rule:nonzero}
    .fil18 {fill:#6060C8;fill-rule:nonzero;fill-opacity:0.278431}
    .fil39 {fill:url(#id0)}
    .fil0 {fill:url(#id1)}
    .fil40 {fill:url(#id2)}
   ]]>
  </style>
  <linearGradient id="id0" gradientUnits="userSpaceOnUse" x1="726.109" y1="506.477" x2="949.143" y2="455.475">
   <stop offset="0" style="stop-opacity:1; stop-color:#8AD7BD"/>
   <stop offset="1" style="stop-opacity:1; stop-color:#02C969"/>
  </linearGradient>
  <linearGradient id="id1" gradientUnits="userSpaceOnUse" xlink:href="#id0" x1="767.56" y1="2827.3" x2="4750.07" y2="1519.05">
  </linearGradient>
  <linearGradient id="id2" gradientUnits="userSpaceOnUse" xlink:href="#id0" x1="4183.21" y1="1620.97" x2="4909.11" y2="1455">
  </linearGradient>
 </defs>
 <g id="Szybki_x0020_kadr_x0020_-_x0020_zawartość">
  <metadata id="CorelCorpID_0Corel-Layer"/>
  <g id="_898959968">
   <path class="fil0" d="M2437 331c2004,0 950,1511 2113,2023 1164,512 -1251,1920 -2251,1620 -2525,-757 -1865,-3643 138,-3643z"/>
   <g>
    <g>
     <g>
      <path class="fil1" d="M2290 3816c0,49 -32,89 -72,89 -39,0 -71,-40 -71,-89 0,-49 32,-89 71,-89 40,0 72,40 72,89z"/>
      <path class="fil1" d="M3039 3816c0,49 -32,89 -72,89 -40,0 -72,-40 -72,-89 0,-49 32,-89 72,-89 40,0 72,40 72,89z"/>
     </g>
     <path class="fil2" d="M2976 3624l-214 0c-60,0 -108,-49 -108,-108l0 -848 -137 0 0 848c0,59 -49,108 -108,108l-199 0 -21 0c-33,0 -59,26 -59,58l0 13 0 105c0,7 6,13 13,13l54 0c7,0 13,-6 13,-13l0 -47c0,-32 26,-58 58,-58l649 0c32,0 59,26 59,58l0 47c0,7 5,13 13,13l53 0c7,0 13,-6 13,-13l0 -105 0 -13c0,-32 -26,-58 -58,-58l-21 0z"/>
     <path class="fil3" d="M2664 2766l-168 0c-11,0 -20,-10 -20,-21l0 -54c0,-11 9,-20 20,-20l168 0c11,0 20,9 20,20l0 54c0,11 -9,21 -20,21z"/>
    </g>
    <g>
     <path class="fil4" d="M3269 2569l0 87c0,21 -17,39 -38,39l-1193 0 1 -126 1230 0z"/>
     <path class="fil4" d="M3537 1119l-268 1450 -316 0c0,0 89,-30 102,-234 7,-103 -7,-250 -61,-460l16 0c60,0 110,-49 110,-110l0 -768c0,-12 -2,-24 -4,-35l291 0c83,0 145,75 130,157z"/>
     <path class="fil5" d="M3414 1119l-268 1450 -193 0c0,0 89,-30 102,-234 7,-103 -7,-250 -61,-460l16 0c60,0 110,-49 110,-110l0 -768c0,-12 -2,-24 -4,-35l167 0c83,0 146,75 131,157z"/>
    </g>
   </g>
   <path class="fil6" d="M2995 854c0,0 -136,-258 -136,-531 -43,-251 -150,-312 -320,-323 -27,-2 -41,36 -44,23 -6,-27 -32,-21 -41,-20 -164,34 -316,190 -242,555 -30,148 -134,376 -189,526 -54,149 -11,277 122,280 0,0 -11,271 349,197 342,-70 572,-173 536,-585 -4,-43 -16,-84 -35,-122z"/>
   <path class="fil7" d="M3088 906c-429,226 -749,138 -859,94 13,-11 28,-22 43,-31 61,-36 146,-87 196,-121 40,-26 54,-69 58,-109 4,-46 5,-86 5,-86 -136,0 -201,-45 -237,-189l0 -235c129,-176 257,-148 385,0l53 463c10,91 87,160 179,160l65 0c45,0 85,21 112,54z"/>
   <path class="fil8" d="M2667 2153c74,38 196,205 388,182 6,-103 -7,-250 -61,-460l16 0c60,0 110,-49 110,-110l0 -768c0,-35 -12,-66 -32,-91 -52,-68 -151,-55 -223,-60 -100,-6 -193,79 -282,89 -61,7 -123,-67 -175,-49 -71,25 -154,82 -179,114 -30,25 -56,55 -76,88l-265 446c-16,27 -46,44 -78,44l-26 0 0 250 71 0c40,0 79,-18 105,-48l298 -346c0,0 73,251 -15,652l0 0c0,0 340,23 424,67z"/>
   <path class="fil7" d="M1904 3780c0,0 -19,23 -52,52 23,12 48,32 67,64 0,0 61,-62 144,-67 -10,-26 -21,-51 -34,-70l1 -200 -157 0 31 221z"/>
   <path class="fil8" d="M1919 3896c-19,-32 -44,-52 -67,-64 -45,39 -117,88 -202,100 0,0 -45,-4 -65,26 -7,11 0,24 12,27 58,9 233,32 471,-1 15,-2 26,-15 24,-30 -2,-28 -13,-78 -29,-125 -83,5 -144,67 -144,67z"/>
   <path class="fil9" d="M1706 2387c-121,33 -46,406 -46,406l0 0c1,6 56,442 38,476 -18,33 -46,108 39,164 0,0 -39,142 98,126l38 0 0 0 157 0 9 -990 244 0c-150,-66 -484,-208 -577,-182z"/>
   <path class="fil10" d="M2667 2153c-84,-44 -424,-67 -424,-67l0 0c0,0 0,0 0,0 0,0 -396,-87 -485,0 -90,88 -453,494 -484,607 -20,73 0,121 0,121 0,0 -69,27 -90,69 -43,90 44,159 44,159l0 0c0,0 53,11 123,98l309 -347c0,0 0,0 0,0l0 0c0,0 -75,-373 46,-406 93,-26 427,116 577,182l670 0c0,0 89,-30 102,-234 -192,23 -314,-144 -388,-182z"/>
   <path class="fil7" d="M1228 3042l0 0c0,0 0,0 0,0l-118 214c0,0 -25,-6 -61,-17 13,28 26,64 20,89 0,0 52,-7 108,35 7,-15 13,-32 20,-51l154 -172c-70,-87 -123,-98 -123,-98z"/>
   <path class="fil8" d="M1069 3328c6,-25 -7,-61 -20,-89 -73,-21 -195,-59 -263,-101 -9,-6 -21,-4 -28,4 -3,4 -5,9 -5,14 0,4 2,9 5,13 40,49 185,220 309,286 23,12 51,6 66,-15 13,-17 28,-42 44,-77 -56,-42 -108,-35 -108,-35z"/>
   <path class="fil11" d="M2629 653c0,0 -53,87 -103,86 4,-46 -7,-86 -7,-86l110 0z"/>
   <g>
    <path class="fil12" d="M2258 1439c-3,0 -5,-1 -5,-3 -1,-2 -58,-172 37,-332 2,-2 5,-3 7,-2 3,2 4,5 2,7 -92,156 -37,322 -36,323 0,3 -1,6 -4,7 0,0 -1,0 -1,0z"/>
    <path class="fil12" d="M2380 1726c-3,0 -5,-1 -6,-4 0,-3 2,-6 5,-6l550 -77 -33 -555c0,-3 2,-5 5,-6 3,0 5,2 6,5l33 561c0,2 -2,5 -4,5l-556 77c0,0 0,0 0,0z"/>
    <path class="fil12" d="M2380 1879c-2,0 -4,-1 -5,-2l-12 -19c-1,-2 0,-6 2,-7 3,-2 6,-1 7,2l10 16 598 -2 0 0c3,0 6,2 6,5 0,3 -3,6 -6,6l-600 1 0 0z"/>
   </g>
   <path class="fil13" d="M2459 488c0,0 -48,-20 -55,-8 -8,12 23,27 64,27 41,0 73,-25 64,-39 -8,-14 -73,20 -73,20z"/>
   <path class="fil11" d="M2472 542c-16,0 -28,-6 -29,-6 -2,-1 -3,-5 -2,-7 1,-3 4,-4 7,-3 0,1 23,11 47,0 2,-1 6,0 7,3 1,3 0,6 -3,7 -10,4 -19,6 -27,6z"/>
   <path class="fil11" d="M2432 453c-10,0 -19,-5 -23,-9 -1,-1 -1,-2 -1,-4l18 -137c0,-26 -24,-33 -25,-33 -2,-1 -4,-4 -3,-7 0,-2 3,-4 6,-3 11,3 33,15 33,43l-19 135c4,3 35,2 50,-9 3,-2 6,-1 8,1 1,3 1,6 -2,8 -8,6 -35,15 -42,15z"/>
   <path class="fil14" d="M2583 276c-1,0 -1,0 -2,-1 -63,-18 -87,-1 -87,0 -3,1 -6,1 -8,-1 -1,-3 -1,-6 1,-8 1,-1 28,-21 97,-1 3,1 5,4 4,7 -1,2 -3,4 -5,4z"/>
   <path class="fil14" d="M2313 276c-2,0 -4,-1 -5,-3 -1,-3 0,-6 2,-7 35,-18 75,-6 77,-5 3,1 4,4 3,7 -1,2 -4,4 -6,3 -1,0 -38,-12 -69,4 -1,0 -2,1 -2,1z"/>
   <path class="fil15" d="M3520 1718c0,0 0,0 -1,0l0 -37c0,-5 -4,-9 -8,-9l-180 0c-5,0 -9,4 -9,9l0 220c0,5 4,9 9,9l180 0c4,0 8,-4 8,-9l0 -46c1,0 1,0 1,0 31,0 57,-31 57,-68 0,-38 -26,-69 -57,-69zm0 116l0 0c0,0 0,0 -1,0l0 -95c1,0 1,0 1,0 20,0 36,21 36,48 0,26 -16,47 -36,47z"/>
   <g>
    <path class="fil1" d="M3387 2047l-68 0 -641 1891 67 0 608 -1794 608 1794 66 0 -640 -1891z"/>
    <path class="fil1" d="M668 2047l-641 1891 67 0 608 -1794 608 1794 66 0 -641 -1891 -67 0z"/>
   </g>
   <g>
    <g>
     <path class="fil16" d="M899 1408l-61 247 -55 228 -326 0 129 -372 35 -103 278 0z"/>
     <path class="fil2" d="M919 1408l-63 258 -53 217 -325 0 125 -362 39 -113 277 0z"/>
     <path class="fil17" d="M881 1855l-530 0c-10,0 -18,9 -18,19l0 18c0,10 8,18 18,18l530 0c11,0 19,-8 19,-18l0 -18c0,-10 -8,-19 -19,-19z"/>
     <path class="fil18" d="M919 1408l-63 258 -18 -11 -235 -134 -17 -10 35 -103 298 0z"/>
    </g>
    <g>
     <path class="fil17" d="M1452 1480l-1183 0c-17,0 -33,-14 -36,-31l-145 -760c-2,-8 0,-16 5,-22l4 -5c4,-5 12,-9 20,-9l1183 0c17,0 33,14 37,31l144 760c2,8 0,16 -4,22l-4 5c-5,6 -12,9 -21,9z"/>
     <path class="fil2" d="M1453 1457l-1165 0c-17,0 -34,-14 -37,-31l-141 -742c-3,-17 8,-31 25,-31l1165 0c17,0 33,14 37,31l141 742c3,17 -8,31 -25,31z"/>
     <path class="fil19" d="M1436 1430l-1142 0c-6,0 -12,-5 -13,-11l-138 -728c-2,-6 2,-11 9,-11l1142 0c6,0 12,5 13,11l138 728c1,6 -3,11 -9,11z"/>
     <g>
      <g>
       <path class="fil20" d="M194 757l18 0c4,0 7,-4 7,-9 -1,-5 -6,-9 -11,-9l-17 0c-5,0 -8,4 -7,9 1,5 5,9 10,9z"/>
       <path class="fil21" d="M368 757l174 0c5,0 8,-4 7,-9 -1,-5 -6,-9 -10,-9l-174 0c-5,0 -8,4 -7,9 1,5 5,9 10,9z"/>
       <path class="fil22" d="M577 757l17 0c5,0 8,-4 7,-9 -1,-5 -5,-9 -10,-9l-18 0c-4,0 -7,4 -7,9 1,5 6,9 11,9z"/>
       <path class="fil22" d="M751 757l57 0c5,0 8,-4 7,-9 -1,-5 -6,-9 -11,-9l-57 0c-4,0 -8,4 -7,9 1,5 6,9 11,9z"/>
       <path class="fil23" d="M629 757l87 0c5,0 8,-4 7,-9 -1,-5 -6,-9 -10,-9l-87 0c-5,0 -8,4 -7,9 1,5 5,9 10,9z"/>
       <path class="fil23" d="M246 757l87 0c5,0 8,-4 7,-9 -1,-5 -5,-9 -10,-9l-87 0c-5,0 -8,4 -7,9 1,5 5,9 10,9z"/>
       <path class="fil23" d="M463 800c-1,-5 -5,-9 -10,-9l-191 0c-5,0 -8,4 -7,9 0,5 5,9 10,9l191 0c5,0 8,-4 7,-9z"/>
       <path class="fil24" d="M227 791l-26 0c-5,0 -8,4 -7,9 1,5 5,9 10,9l26 0c5,0 8,-4 7,-9 -1,-5 -5,-9 -10,-9z"/>
       <path class="fil23" d="M662 791l-174 0c-5,0 -8,4 -7,9 1,5 5,9 10,9l174 0c5,0 8,-4 7,-9 -1,-5 -6,-9 -10,-9z"/>
       <path class="fil22" d="M726 809c5,0 8,-4 7,-9 -1,-5 -6,-9 -10,-9l-27 0c-4,0 -8,4 -7,9 1,5 6,9 11,9l26 0z"/>
       <path class="fil23" d="M814 791l-57 0c-4,0 -8,4 -7,9 1,5 6,9 11,9l57 0c4,0 8,-4 7,-9 -1,-5 -6,-9 -11,-9z"/>
       <path class="fil22" d="M614 861c5,0 8,-4 7,-9 -1,-5 -6,-9 -10,-9l-18 0c-5,0 -8,4 -7,9 1,5 6,9 11,9l17 0z"/>
       <path class="fil25" d="M214 861l17 0c5,0 8,-4 7,-9 -1,-5 -5,-9 -10,-9l-17 0c-5,0 -8,4 -7,9 0,5 5,9 10,9z"/>
       <path class="fil20" d="M638 852c1,5 6,9 11,9l87 0c5,0 8,-4 7,-9 -1,-5 -6,-9 -11,-9l-87 0c-4,0 -7,4 -7,9z"/>
       <path class="fil20" d="M266 861l87 0c5,0 8,-4 7,-9 -1,-5 -5,-9 -10,-9l-87 0c-5,0 -8,4 -7,9 1,5 5,9 10,9z"/>
       <path class="fil20" d="M824 843l-57 0c-5,0 -8,4 -7,9 1,5 6,9 11,9l57 0c4,0 8,-4 7,-9 -1,-5 -6,-9 -11,-9z"/>
       <path class="fil22" d="M388 861l174 0c5,0 8,-4 7,-9 -1,-5 -6,-9 -10,-9l-174 0c-5,0 -8,4 -7,9 0,5 5,9 10,9z"/>
       <path class="fil23" d="M834 895l-57 0c-5,0 -8,4 -7,9 1,5 6,9 10,9l57 0c5,0 8,-4 8,-9 -1,-5 -6,-9 -11,-9z"/>
       <path class="fil21" d="M742 895l-26 0c-5,0 -8,4 -7,9 1,5 6,9 11,9l26 0c4,0 8,-4 7,-9 -1,-5 -6,-9 -11,-9z"/>
       <path class="fil23" d="M692 904c-1,-5 -6,-9 -11,-9l-173 0c-5,0 -8,4 -8,9 1,5 6,9 11,9l174 0c5,0 8,-4 7,-9z"/>
       <path class="fil23" d="M274 904c1,5 6,9 11,9l191 0c5,0 8,-4 7,-9 -1,-5 -5,-9 -10,-9l-192 0c-4,0 -8,4 -7,9z"/>
       <path class="fil20" d="M247 895l-26 0c-5,0 -8,4 -8,9 1,5 6,9 11,9l26 0c5,0 8,-4 7,-9 -1,-5 -6,-9 -10,-9z"/>
       <path class="fil20" d="M844 947l-22 0c-5,0 -8,4 -7,9 1,5 5,9 10,9l22 0c5,0 8,-4 7,-9 0,-5 -5,-9 -10,-9z"/>
       <path class="fil20" d="M658 956c-1,-5 -5,-9 -10,-9l-18 0c-4,0 -7,4 -7,9 1,5 6,9 11,9l17 0c5,0 8,-4 7,-9z"/>
       <path class="fil23" d="M596 947l-174 0c-5,0 -8,4 -7,9 1,5 5,9 10,9l174 0c5,0 8,-4 7,-9 -1,-5 -5,-9 -10,-9z"/>
       <path class="fil23" d="M797 956c-1,-5 -5,-9 -10,-9l-104 0c-5,0 -8,4 -7,9 1,5 5,9 10,9l104 0c5,0 8,-4 7,-9z"/>
       <path class="fil22" d="M286 965l104 0c5,0 8,-4 7,-9 -1,-5 -5,-9 -10,-9l-104 0c-5,0 -8,4 -7,9 0,5 5,9 10,9z"/>
       <path class="fil24" d="M234 965l17 0c5,0 8,-4 7,-9 -1,-5 -5,-9 -10,-9l-18 0c-4,0 -8,4 -7,9 1,5 6,9 11,9z"/>
       <path class="fil25" d="M244 1017l17 0c5,0 8,-4 7,-9 -1,-5 -5,-9 -10,-9l-18 0c-4,0 -8,4 -7,9 1,5 6,9 11,9z"/>
       <path class="fil21" d="M296 1017l87 0c5,0 8,-4 7,-9 -1,-5 -6,-9 -11,-9l-86 0c-5,0 -8,4 -8,9 1,5 6,9 11,9z"/>
       <path class="fil23" d="M762 999l-87 0c-5,0 -8,4 -7,9 1,5 6,9 10,9l87 0c5,0 8,-4 8,-9 -1,-5 -6,-9 -11,-9z"/>
       <path class="fil23" d="M854 999l-57 0c-5,0 -8,4 -7,9 1,5 5,9 10,9l57 0c5,0 8,-4 7,-9 -1,-5 -5,-9 -10,-9z"/>
       <path class="fil20" d="M626 1017l18 0c5,0 8,-4 7,-9 -1,-5 -6,-9 -11,-9l-17 0c-5,0 -8,4 -7,9 1,5 6,9 10,9z"/>
       <path class="fil23" d="M418 1017l174 0c4,0 7,-4 7,-9 -1,-5 -6,-9 -11,-9l-174 0c-5,0 -8,4 -7,9 1,5 6,9 11,9z"/>
       <path class="fil23" d="M304 1060c1,5 6,9 10,9l192 0c5,0 8,-4 7,-9 -1,-5 -6,-9 -11,-9l-191 0c-5,0 -8,4 -7,9z"/>
       <path class="fil24" d="M276 1051l-26 0c-5,0 -8,4 -7,9 1,5 6,9 11,9l26 0c4,0 8,-4 7,-9 -1,-5 -6,-9 -11,-9z"/>
       <path class="fil23" d="M722 1060c-1,-5 -6,-9 -11,-9l-174 0c-5,0 -8,4 -7,9 1,5 6,9 11,9l173 0c5,0 8,-4 8,-9z"/>
       <path class="fil21" d="M775 1069c5,0 8,-4 7,-9 -1,-5 -5,-9 -10,-9l-26 0c-5,0 -8,4 -7,9 1,5 5,9 10,9l26 0z"/>
       <path class="fil23" d="M864 1051l-57 0c-5,0 -8,4 -7,9 1,5 5,9 10,9l57 0c5,0 8,-4 7,-9 -1,-5 -5,-9 -10,-9z"/>
       <path class="fil22" d="M671 1112c-1,-5 -6,-9 -11,-9l-17 0c-5,0 -8,4 -7,9 1,5 5,9 10,9l18 0c4,0 7,-4 7,-9z"/>
       <path class="fil21" d="M874 1103l-57 0c-5,0 -8,4 -7,9 1,5 5,9 10,9l57 0c5,0 8,-4 7,-9 -1,-5 -5,-9 -10,-9z"/>
       <path class="fil20" d="M437 1121l174 0c5,0 8,-4 7,-9 -1,-5 -5,-9 -10,-9l-174 0c-5,0 -8,4 -7,9 1,5 6,9 10,9z"/>
       <path class="fil23" d="M316 1121l87 0c4,0 8,-4 7,-9 -1,-5 -6,-9 -11,-9l-87 0c-4,0 -8,4 -7,9 1,5 6,9 11,9z"/>
       <path class="fil25" d="M263 1121l18 0c5,0 8,-4 7,-9 -1,-5 -6,-9 -10,-9l-18 0c-5,0 -8,4 -7,9 1,5 6,9 10,9z"/>
       <path class="fil22" d="M698 1121l87 0c5,0 8,-4 7,-9 -1,-5 -5,-9 -10,-9l-87 0c-5,0 -8,4 -7,9 1,5 6,9 10,9z"/>
       <path class="fil22" d="M430 1173c5,0 8,-4 7,-9 -1,-5 -6,-9 -10,-9l-105 0c-5,0 -8,4 -7,9 1,5 6,9 11,9l104 0z"/>
       <path class="fil22" d="M884 1155l-23 0c-4,0 -8,4 -7,9 1,5 6,9 11,9l22 0c5,0 8,-4 7,-9 -1,-5 -5,-9 -10,-9z"/>
       <path class="fil20" d="M673 1173l18 0c5,0 8,-4 7,-9 -1,-5 -6,-9 -10,-9l-18 0c-5,0 -8,4 -7,9 1,5 6,9 10,9z"/>
       <path class="fil23" d="M465 1173l174 0c4,0 8,-4 7,-9 -1,-5 -6,-9 -11,-9l-174 0c-4,0 -8,4 -7,9 1,5 6,9 11,9z"/>
       <path class="fil24" d="M273 1173l18 0c5,0 8,-4 7,-9 -1,-5 -6,-9 -11,-9l-17 0c-5,0 -8,4 -7,9 1,5 6,9 10,9z"/>
       <path class="fil23" d="M726 1173l104 0c5,0 8,-4 7,-9 -1,-5 -6,-9 -10,-9l-105 0c-5,0 -8,4 -7,9 1,5 6,9 11,9z"/>
       <path class="fil22" d="M894 1207l-57 0c-5,0 -8,4 -7,9 0,5 5,9 10,9l57 0c5,0 8,-4 7,-9 -1,-5 -6,-9 -10,-9z"/>
       <path class="fil20" d="M802 1207l-26 0c-5,0 -8,4 -7,9 1,5 5,9 10,9l26 0c5,0 8,-4 7,-9 -1,-5 -5,-9 -10,-9z"/>
       <path class="fil21" d="M532 1207l-191 0c-5,0 -8,4 -7,9 1,5 5,9 10,9l191 0c5,0 8,-4 8,-9 -1,-5 -6,-9 -11,-9z"/>
       <path class="fil23" d="M741 1207l-174 0c-5,0 -8,4 -7,9 1,5 5,9 10,9l174 0c5,0 8,-4 7,-9 -1,-5 -5,-9 -10,-9z"/>
       <path class="fil21" d="M963 757l174 0c4,0 8,-4 7,-9 -1,-5 -6,-9 -11,-9l-174 0c-4,0 -8,4 -7,9 1,5 6,9 11,9z"/>
       <path class="fil22" d="M1171 757l18 0c5,0 8,-4 7,-9 -1,-5 -6,-9 -11,-9l-17 0c-5,0 -8,4 -7,9 1,5 6,9 10,9z"/>
       <path class="fil23" d="M1224 757l51 0c4,0 8,-4 7,-9 -1,-5 -6,-9 -11,-9l-51 0c-5,0 -8,4 -7,9 1,5 6,9 11,9z"/>
       <path class="fil23" d="M841 757l87 0c5,0 8,-4 7,-9 -1,-5 -6,-9 -10,-9l-87 0c-5,0 -8,4 -7,9 0,5 5,9 10,9z"/>
       <path class="fil23" d="M1048 800c-1,-5 -6,-9 -11,-9l-191 0c-5,0 -8,4 -7,9 1,5 6,9 10,9l192 0c5,0 8,-4 7,-9z"/>
       <path class="fil23" d="M1281 791l-209 0c-5,0 -8,4 -7,9 1,5 6,9 11,9l208 0c5,0 8,-4 7,-9 0,-5 -5,-9 -10,-9z"/>
       <path class="fil22" d="M1209 861c4,0 8,-4 7,-9 -1,-5 -6,-9 -11,-9l-17 0c-5,0 -8,4 -7,9 1,5 5,9 10,9l18 0z"/>
       <path class="fil20" d="M1233 852c1,5 6,9 10,9l47 0c5,0 8,-4 7,-9 -1,-5 -5,-9 -10,-9l-47 0c-5,0 -8,4 -7,9z"/>
       <path class="fil20" d="M861 861l87 0c4,0 8,-4 7,-9 -1,-5 -6,-9 -11,-9l-87 0c-4,0 -8,4 -7,9 1,5 6,9 11,9z"/>
       <path class="fil22" d="M982 861l174 0c5,0 8,-4 7,-9 0,-5 -5,-9 -10,-9l-174 0c-5,0 -8,4 -7,9 1,5 6,9 10,9z"/>
       <path class="fil23" d="M1308 904c-1,-5 -5,-9 -10,-9l-196 0c-5,0 -8,4 -7,9 1,5 6,9 10,9l196 0c5,0 8,-4 7,-9z"/>
       <path class="fil23" d="M869 904c1,5 6,9 10,9l192 0c4,0 8,-4 7,-9 -1,-5 -6,-9 -11,-9l-191 0c-5,0 -8,4 -7,9z"/>
       <path class="fil20" d="M1253 956c-1,-5 -6,-9 -11,-9l-17 0c-5,0 -8,4 -7,9 1,5 6,9 10,9l18 0c5,0 8,-4 7,-9z"/>
       <path class="fil23" d="M1190 947l-174 0c-4,0 -8,4 -7,9 1,5 6,9 11,9l174 0c4,0 8,-4 7,-9 -1,-5 -6,-9 -11,-9z"/>
       <path class="fil23" d="M1322 956c-1,-5 -5,-9 -10,-9l-35 0c-5,0 -8,4 -7,9 1,5 6,9 11,9l34 0c5,0 8,-4 7,-9z"/>
       <path class="fil22" d="M881 965l104 0c5,0 8,-4 7,-9 -1,-5 -6,-9 -10,-9l-105 0c-5,0 -8,4 -7,9 1,5 6,9 11,9z"/>
       <path class="fil21" d="M890 1017l87 0c5,0 8,-4 7,-9 0,-5 -5,-9 -10,-9l-87 0c-5,0 -8,4 -7,9 1,5 6,9 10,9z"/>
       <path class="fil23" d="M1315 999l-45 0c-5,0 -8,4 -7,9 1,5 5,9 10,9l45 0c5,0 8,-4 7,-9 -1,-5 -5,-9 -10,-9z"/>
       <path class="fil20" d="M1221 1017l17 0c5,0 8,-4 7,-9 -1,-5 -5,-9 -10,-9l-17 0c-5,0 -8,4 -7,9 0,5 5,9 10,9z"/>
       <path class="fil23" d="M1012 1017l174 0c5,0 8,-4 7,-9 -1,-5 -5,-9 -10,-9l-174 0c-5,0 -8,4 -7,9 1,5 5,9 10,9z"/>
       <path class="fil23" d="M899 1060c1,5 5,9 10,9l191 0c5,0 8,-4 7,-9 -1,-5 -5,-9 -10,-9l-191 0c-5,0 -8,4 -7,9z"/>
       <path class="fil23" d="M1342 1060c-1,-5 -5,-9 -10,-9l-200 0c-5,0 -8,4 -7,9 1,5 5,9 10,9l200 0c5,0 8,-4 7,-9z"/>
       <path class="fil22" d="M1265 1112c-1,-5 -5,-9 -10,-9l-18 0c-4,0 -8,4 -7,9 1,5 6,9 11,9l17 0c5,0 8,-4 7,-9z"/>
       <path class="fil20" d="M1032 1121l174 0c5,0 8,-4 7,-9 -1,-5 -6,-9 -10,-9l-174 0c-5,0 -8,4 -7,9 1,5 5,9 10,9z"/>
       <path class="fil23" d="M910 1121l87 0c5,0 8,-4 7,-9 -1,-5 -5,-9 -10,-9l-87 0c-5,0 -8,4 -7,9 1,5 5,9 10,9z"/>
       <path class="fil22" d="M1293 1121l52 0c5,0 8,-4 7,-9 -1,-5 -5,-9 -10,-9l-52 0c-5,0 -8,4 -7,9 0,5 5,9 10,9z"/>
       <path class="fil22" d="M1025 1173c4,0 7,-4 7,-9 -1,-5 -6,-9 -11,-9l-104 0c-5,0 -8,4 -7,9 1,5 5,9 10,9l105 0z"/>
       <path class="fil20" d="M1268 1173l17 0c5,0 8,-4 7,-9 0,-5 -5,-9 -10,-9l-17 0c-5,0 -8,4 -7,9 1,5 5,9 10,9z"/>
       <path class="fil23" d="M1059 1173l174 0c5,0 8,-4 7,-9 -1,-5 -5,-9 -10,-9l-174 0c-5,0 -8,4 -7,9 1,5 5,9 10,9z"/>
       <path class="fil23" d="M1320 1173l38 0c5,0 8,-4 7,-9 -1,-5 -5,-9 -10,-9l-38 0c-5,0 -8,4 -7,9 1,5 5,9 10,9z"/>
       <path class="fil20" d="M1366 1207l-6 0c-5,0 -8,4 -7,9 1,5 6,9 11,9l5 0c5,0 8,-4 7,-9 -1,-5 -5,-9 -10,-9z"/>
       <path class="fil21" d="M1127 1207l-192 0c-4,0 -8,4 -7,9 1,5 6,9 11,9l191 0c5,0 8,-4 7,-9 -1,-5 -5,-9 -10,-9z"/>
       <path class="fil23" d="M1335 1207l-173 0c-5,0 -8,4 -7,9 0,5 5,9 10,9l174 0c5,0 8,-4 7,-9 -1,-5 -6,-9 -11,-9z"/>
       <path class="fil20" d="M306 1207l-26 0c-5,0 -8,4 -7,9 1,5 5,9 10,9l26 0c5,0 8,-4 7,-9 -1,-5 -5,-9 -10,-9z"/>
      </g>
      <g>
       <path class="fil20" d="M291 1267l18 0c5,0 8,-4 7,-9 -1,-5 -6,-9 -11,-9l-17 0c-5,0 -8,4 -7,9 1,5 6,9 10,9z"/>
       <path class="fil21" d="M465 1267l174 0c5,0 8,-4 7,-9 -1,-5 -5,-9 -10,-9l-174 0c-5,0 -8,4 -7,9 1,5 5,9 10,9z"/>
       <path class="fil22" d="M674 1267l17 0c5,0 8,-4 7,-9 -1,-5 -5,-9 -10,-9l-17 0c-5,0 -8,4 -7,9 1,5 5,9 10,9z"/>
       <path class="fil22" d="M848 1267l57 0c5,0 8,-4 7,-9 -1,-5 -6,-9 -10,-9l-57 0c-5,0 -8,4 -7,9 0,5 5,9 10,9z"/>
       <path class="fil23" d="M726 1267l87 0c5,0 8,-4 7,-9 -1,-5 -5,-9 -10,-9l-87 0c-5,0 -8,4 -7,9 1,5 5,9 10,9z"/>
       <path class="fil23" d="M343 1267l87 0c5,0 8,-4 7,-9 0,-5 -5,-9 -10,-9l-87 0c-5,0 -8,4 -7,9 1,5 6,9 10,9z"/>
       <path class="fil23" d="M560 1310c0,-5 -5,-9 -10,-9l-191 0c-5,0 -8,4 -7,9 1,5 5,9 10,9l191 0c5,0 8,-4 7,-9z"/>
       <path class="fil24" d="M324 1301l-26 0c-5,0 -8,4 -7,9 1,5 5,9 10,9l26 0c5,0 8,-4 7,-9 -1,-5 -5,-9 -10,-9z"/>
       <path class="fil23" d="M759 1301l-174 0c-5,0 -8,4 -7,9 1,5 5,9 10,9l174 0c5,0 8,-4 7,-9 -1,-5 -5,-9 -10,-9z"/>
       <path class="fil22" d="M823 1319c5,0 8,-4 7,-9 -1,-5 -5,-9 -10,-9l-26 0c-5,0 -8,4 -7,9 1,5 5,9 10,9l26 0z"/>
       <path class="fil23" d="M912 1301l-57 0c-5,0 -8,4 -8,9 1,5 6,9 11,9l57 0c5,0 8,-4 7,-9 -1,-5 -6,-9 -10,-9z"/>
       <path class="fil22" d="M711 1371c5,0 8,-4 7,-9 -1,-5 -5,-9 -10,-9l-18 0c-4,0 -7,4 -7,9 1,5 6,9 11,9l17 0z"/>
       <path class="fil25" d="M311 1371l18 0c4,0 7,-4 7,-9 -1,-5 -6,-9 -11,-9l-17 0c-5,0 -8,4 -7,9 1,5 5,9 10,9z"/>
       <path class="fil20" d="M736 1362c1,5 5,9 10,9l87 0c5,0 8,-4 7,-9 -1,-5 -6,-9 -10,-9l-87 0c-5,0 -8,4 -7,9z"/>
       <path class="fil20" d="M363 1371l87 0c5,0 8,-4 7,-9 -1,-5 -5,-9 -10,-9l-87 0c-5,0 -8,4 -7,9 1,5 6,9 10,9z"/>
       <path class="fil20" d="M921 1353l-57 0c-4,0 -8,4 -7,9 1,5 6,9 11,9l57 0c5,0 8,-4 7,-9 -1,-5 -6,-9 -11,-9z"/>
       <path class="fil22" d="M485 1371l174 0c5,0 8,-4 7,-9 -1,-5 -6,-9 -10,-9l-174 0c-5,0 -8,4 -7,9 1,5 5,9 10,9z"/>
       <path class="fil21" d="M1060 1267l174 0c5,0 8,-4 7,-9 -1,-5 -6,-9 -11,-9l-173 0c-5,0 -8,4 -8,9 1,5 6,9 11,9z"/>
       <path class="fil22" d="M1269 1267l17 0c5,0 8,-4 7,-9 -1,-5 -6,-9 -10,-9l-18 0c-5,0 -8,4 -7,9 1,5 6,9 11,9z"/>
       <path class="fil23" d="M1321 1267l56 0c5,0 8,-4 7,-9 -1,-5 -5,-9 -10,-9l-57 0c-4,0 -8,4 -7,9 1,5 6,9 11,9z"/>
       <path class="fil23" d="M938 1267l87 0c5,0 8,-4 7,-9 -1,-5 -5,-9 -10,-9l-87 0c-5,0 -8,4 -7,9 1,5 5,9 10,9z"/>
       <path class="fil23" d="M1145 1310c-1,-5 -6,-9 -10,-9l-192 0c-5,0 -8,4 -7,9 1,5 6,9 11,9l191 0c5,0 8,-4 7,-9z"/>
       <path class="fil23" d="M1383 1301l-214 0c-4,0 -8,4 -7,9 1,5 6,9 11,9l213 0c5,0 8,-4 7,-9 -1,-5 -6,-9 -10,-9z"/>
       <path class="fil22" d="M1306 1371c5,0 8,-4 7,-9 -1,-5 -6,-9 -11,-9l-17 0c-5,0 -8,4 -7,9 1,5 6,9 10,9l18 0z"/>
       <path class="fil20" d="M1330 1362c1,5 6,9 11,9l56 0c5,0 8,-4 7,-9 -1,-5 -5,-9 -10,-9l-57 0c-5,0 -8,4 -7,9z"/>
       <path class="fil20" d="M958 1371l87 0c5,0 8,-4 7,-9 -1,-5 -6,-9 -10,-9l-87 0c-5,0 -8,4 -7,9 0,5 5,9 10,9z"/>
       <path class="fil22" d="M1080 1371l174 0c4,0 8,-4 7,-9 -1,-5 -6,-9 -11,-9l-174 0c-4,0 -8,4 -7,9 1,5 6,9 11,9z"/>
      </g>
     </g>
    </g>
   </g>
   <path class="fil16" d="M3791 2049l-3528 0c-12,0 -21,-9 -21,-21 0,-11 9,-21 21,-21l3528 0c12,0 21,10 21,21 0,12 -9,21 -21,21z"/>
   <path class="fil1" d="M4033 2017l-4012 0c-12,0 -21,-9 -21,-21l0 -65c0,-12 9,-21 21,-21l4012 0c12,0 21,9 21,21l0 65c0,12 -9,21 -21,21z"/>
   <path class="fil7" d="M2368 1721c0,0 -85,-28 -136,-44 -50,-17 -132,14 -190,57 0,0 -40,34 -26,45 13,12 81,-43 139,-49 0,0 -136,86 -122,116 5,11 22,8 42,1 -3,5 -4,10 -1,13 7,8 46,-6 82,-21 -7,5 -11,10 -11,15 1,19 110,-30 110,-30 0,0 70,45 118,16 0,0 19,-79 -5,-119z"/>
   <g>
    <path class="fil5" d="M2322 1855l-1544 0c-13,0 -23,11 -23,23l0 9c0,13 10,23 23,23l1544 0c13,0 23,-10 23,-23l0 -9c0,-12 -10,-23 -23,-23z"/>
    <path class="fil17" d="M1868 1066l158 748c5,23 -9,41 -32,41l-1216 0c-23,0 -46,-18 -51,-41l-158 -748c-4,-23 10,-42 33,-42l1216 0c23,0 46,19 50,42z"/>
    <path class="fil26" d="M1830 1066l158 748c5,23 -10,41 -33,41l-1177 0c-23,0 -46,-18 -51,-41l-158 -748c-4,-23 10,-42 33,-42l1178 0c23,0 45,19 50,42z"/>
    <path class="fil2" d="M1241 1518c-43,0 -78,-35 -78,-78 0,-43 35,-77 78,-77 43,0 77,34 77,77 0,43 -34,78 -77,78zm0 -124l0 0c-26,0 -46,21 -46,46 0,26 20,46 46,46 25,0 46,-20 46,-46 0,-25 -21,-46 -46,-46z"/>
   </g>
   <g>
    <path class="fil8" d="M2421 332l0 0 0 -3 0 -3 0 -3 -1 -3 0 -3 -1 -2 -1 -3 0 -3 -1 -2 -1 -2 -2 -3 -1 -2 -1 -2 -2 -2 -2 -2 -1 -2 -2 -2 -2 -2 -2 -1 -3 -2 -2 -1 -2 -2 -3 -1 -3 -1 -3 -2 -3 -1 -3 -1 -3 -1 -3 0 -4 -1 -3 -1 -4 0 1 -13 4 1 5 1 3 0 4 1 4 1 3 1 4 2 3 1 3 2 4 1 3 2 2 2 3 2 3 2 2 2 3 2 2 3 2 2 2 3 1 2 2 3 2 3 1 3 1 3 1 3 1 3 1 4 1 3 0 3 0 4 1 3 0 4 0 0 -13 0zm-58 59l0 0 3 0 3 0 3 -1 2 0 3 -1 3 -1 3 0 2 -2 3 -1 3 -1 2 -1 2 -2 3 -2 2 -1 2 -2 2 -2 2 -2 2 -2 2 -3 1 -2 2 -2 1 -3 2 -2 1 -3 1 -3 1 -2 0 -3 1 -3 1 -3 0 -3 0 -3 0 -3 13 0 0 4 -1 3 0 4 -1 3 -1 4 -1 3 -1 4 -1 3 -1 3 -2 3 -2 3 -1 3 -2 3 -3 3 -2 2 -2 3 -3 2 -2 2 -3 2 -3 2 -3 2 -2 2 -4 2 -3 1 -3 1 -3 1 -4 1 -3 1 -4 1 -3 0 -4 0 -3 1 0 0 0 -13zm-1 -118l0 0 -12 -1 -10 0 -9 0 -8 2 -6 2 -6 2 -4 3 -4 4 -3 3 -2 4 -2 5 -1 5 0 5 0 6 1 5 1 6 2 6 3 6 3 7 3 6 4 5 4 6 4 5 5 5 4 5 5 4 5 4 5 3 5 2 5 2 4 1 5 0 0 13 -7 -1 -6 -1 -6 -3 -6 -2 -6 -4 -5 -4 -6 -5 -5 -5 -5 -6 -5 -5 -5 -7 -4 -6 -3 -7 -4 -7 -2 -6 -3 -7 -1 -7 -1 -7 0 -7 0 -7 1 -6 2 -7 4 -6 4 -5 5 -5 6 -4 7 -3 9 -2 9 -2 10 -1 11 0 12 1 0 0 -1 13z"/>
   </g>
   <g>
    <path class="fil8" d="M2460 334l-12 0 0 0 0 -4 0 -3 0 -4 1 -4 0 -3 1 -3 1 -4 1 -3 1 -3 2 -3 1 -3 2 -3 2 -3 2 -2 2 -3 2 -2 3 -3 2 -2 3 -2 3 -2 3 -2 3 -2 3 -2 3 -1 4 -2 3 -1 4 -1 4 -1 4 -1 4 -1 4 -1 4 0 2 12 -4 1 -4 0 -3 1 -4 1 -3 1 -4 1 -3 1 -3 1 -2 2 -3 1 -3 2 -2 1 -3 2 -2 2 -2 1 -2 2 -2 2 -1 2 -2 2 -1 3 -2 2 -1 2 -1 3 -1 2 -1 3 -1 3 -1 3 0 3 -1 3 0 3 0 3 0 3 0 0zm61 62l0 12 0 0 -4 0 -3 0 -4 -1 -4 0 -3 -1 -4 -1 -3 -1 -3 -2 -4 -1 -3 -2 -3 -2 -3 -2 -3 -2 -3 -2 -2 -2 -3 -3 -2 -2 -3 -3 -2 -3 -2 -3 -2 -3 -2 -3 -1 -3 -2 -3 -1 -4 -1 -3 -1 -4 -1 -3 -1 -4 0 -3 0 -4 0 -4 12 0 0 3 0 3 1 3 0 3 1 3 1 3 1 3 1 3 1 3 1 2 2 3 1 2 2 3 2 2 2 2 2 3 2 2 2 2 3 1 2 2 2 2 3 1 3 2 2 1 3 1 3 1 3 1 3 0 3 1 3 0 3 1 3 0 0 0zm1 -124l-2 -12 0 0 13 -1 12 0 10 0 10 2 8 3 8 3 6 4 5 5 5 6 3 6 2 6 2 7 0 7 0 7 -1 7 -2 7 -2 8 -3 7 -4 7 -3 7 -5 6 -4 7 -5 6 -5 6 -6 5 -5 5 -6 4 -6 4 -7 3 -6 2 -6 2 -7 0 0 -12 5 -1 5 -1 5 -2 5 -2 5 -3 5 -4 5 -4 5 -5 5 -5 4 -6 4 -6 4 -6 4 -6 3 -6 2 -7 2 -6 2 -6 0 -6 1 -6 -1 -5 -1 -6 -1 -4 -3 -5 -3 -3 -3 -4 -5 -3 -6 -3 -7 -2 -8 -1 -10 -1 -10 0 -12 1 0 0z"/>
   </g>
   <path class="fil27 str0" d="M2593 287l93 -1"/>
   <path class="fil27 str0" d="M2420 310l37 -1"/>
   <g>
    <path class="fil28" d="M2501 330l6 8c-2,2 -5,2 -7,-1 -2,-2 -1,-5 1,-7zm40 7l-1 -1 -2 -1 -1 0 -2 -1 -2 0 -1 -1 -2 0 -1 0 -2 -1 -1 0 -1 0 -2 1 -1 0 -1 0 -2 0 -1 0 -1 1 -1 0 -1 1 -1 0 -1 0 -1 1 -1 0 -1 1 -1 0 0 0 -1 1 0 0 -1 0 0 0 0 0 0 0 -6 -8 0 0 0 0 1 0 0 -1 1 0 0 -1 1 0 1 0 1 -1 1 -1 1 0 2 -1 1 0 1 -1 2 0 1 -1 2 0 2 0 1 -1 2 0 2 0 2 0 2 0 2 0 2 1 2 0 3 1 2 0 2 1 2 1 2 2 2 1 -6 8zm0 0l6 -8c3,2 3,5 2,7 -2,3 -5,3 -8,1z"/>
   </g>
   <g>
    <path class="fil28" d="M2328 330l7 8c-3,2 -6,2 -8,-1 -1,-2 -1,-5 1,-7zm41 7l-2 -1 -1 -1 -2 0 -2 -1 -1 0 -2 -1 -1 0 -2 0 -1 -1 -2 0 -1 0 -1 1 -2 0 -1 0 -1 0 -2 0 -1 1 -1 0 -1 1 -1 0 -1 0 -1 1 -1 0 -1 1 0 0 -1 0 0 1 -1 0 0 0 0 0 0 0 0 0 -7 -8 1 0 0 0 0 0 1 -1 0 0 1 -1 1 0 1 0 0 -1 2 -1 1 0 1 -1 1 0 2 -1 1 0 2 -1 1 0 2 0 2 -1 2 0 2 0 2 0 2 0 2 0 2 1 2 0 2 1 2 0 2 1 2 1 3 2 2 1 -6 8zm0 0l6 -8c2,2 3,5 1,7 -2,3 -5,3 -7,1z"/>
   </g>
   <path class="fil29" d="M3165 2908l26 47c0,0 29,-13 51,5 48,40 28,301 28,301 -23,117 87,103 87,103 76,-12 59,-107 59,-107 -12,-128 -47,-359 -153,-388 0,0 -52,5 -98,39z"/>
   <path class="fil30" d="M3161 3769l110 0 0 -390 -110 0 0 390z"/>
   <path class="fil29" d="M3796 4019c0,0 -56,33 -165,45 0,0 -40,-1 -21,-29 0,0 285,-70 138,-158l26 -97c0,0 102,35 99,123 0,0 10,62 -77,116z"/>
   <path class="fil31" d="M2906 3599c0,0 -98,-199 42,-358 0,0 163,-133 312,-42 0,0 -137,171 103,256 0,0 327,100 241,361 0,0 -21,167 -237,147l-131 1c0,0 -13,-31 29,-38l86 -16c0,0 -291,-110 -445,-311z"/>
   <path class="fil32" d="M3268 3195c0,0 2,144 242,229 0,0 303,112 260,391 0,0 -7,154 -267,148l-176 1c0,0 -13,-31 29,-38l176 -25c0,0 -140,-5 -145,-104 0,0 -71,-16 -193,-112 0,0 -375,-265 -235,-423 0,0 160,-158 309,-67z"/>
   <path class="fil33" d="M3740 3884c0,0 0,0 0,0 4,-4 7,-8 9,-12l0 0c-3,4 -5,8 -9,12zm-230 -460c-1,0 -1,0 -1,0 0,0 0,0 1,0zm-1 0c0,-1 0,-1 -1,-1 1,0 1,0 1,1zm-1 -1c-58,-21 -102,-45 -136,-70 34,25 78,49 136,70zm-136 -70c0,0 0,0 0,0 0,0 0,0 0,0zm0 0c0,0 -1,0 -1,-1 0,1 1,1 1,1zm-1 -1c0,0 0,0 0,0 0,0 0,0 0,0zm0 0c0,0 0,0 -1,0 1,0 1,0 1,0zm-1 0c0,0 0,0 0,0 0,0 0,0 0,0zm0 0c0,0 0,-1 0,-1 0,0 0,1 0,1zm0 -1c0,0 0,0 -1,0 1,0 1,0 1,0zm-1 0c0,0 0,0 0,0 0,0 0,0 0,0zm0 0c0,0 0,0 0,0 0,0 0,0 0,0zm0 0c0,-1 0,-1 0,-1 0,0 0,0 0,1zm-1 -1c0,0 0,0 0,0 0,0 0,0 0,0zm0 0c0,0 0,0 0,0 0,0 0,0 0,0zm0 0c0,0 0,0 0,0 0,0 0,0 0,0zm-1 -1c0,0 0,0 0,0 0,0 0,0 0,0zm0 0l0 0 0 0z"/>
   <path class="fil34" d="M3309 3292c0,0 0,0 0,0 0,0 0,0 0,0zm0 0c0,0 0,0 0,0 0,0 0,0 0,0zm0 0c0,-1 0,-1 0,-1 0,0 0,0 0,1zm0 -1c0,0 0,0 0,0 0,0 0,0 0,0zm-1 0c0,0 0,0 0,0 0,0 0,0 0,0zm0 0c0,0 0,0 0,0 0,0 0,0 0,0zm0 0c-15,-21 -25,-40 -31,-56l0 0c6,16 16,35 31,56z"/>
   <path class="fil35" d="M3277 3235l0 0c-4,-10 -6,-19 -7,-26l0 0c1,7 3,16 7,26z"/>
   <path class="fil36" d="M3327 3964l0 0 0 0 54 0 0 0 -54 0zm0 0l0 0 0 0zm382 -50c13,-10 23,-20 31,-30 0,0 0,0 0,0 -8,10 -18,20 -31,30z"/>
   <path class="fil37" d="M3749 3872l0 0c20,-31 21,-57 21,-57 2,-12 3,-24 4,-35l0 0c-1,11 -2,23 -4,35 0,0 -1,27 -21,57z"/>
   <path class="fil32" d="M3327 3964l0 0 0 0 0 0c0,0 -12,-30 28,-38l0 2c-5,13 11,20 21,21 12,1 25,2 37,2 29,0 57,-3 85,-4 41,-1 82,-5 120,-19 51,-18 91,-39 105,-93 12,-47 8,-99 -8,-145 -22,-66 -65,-122 -123,-160 -82,-54 -181,-67 -246,-147 -14,-17 -27,-36 -39,-56 -5,-36 -18,-68 -35,-96 -1,-7 -2,-14 -3,-20 0,-1 1,-1 1,-2 1,7 3,16 7,26 6,16 16,35 31,56 0,0 0,0 0,0 0,0 0,0 0,0 0,0 0,0 0,0 0,0 0,0 0,0 0,0 1,0 1,0 0,0 0,0 0,0 0,0 0,0 0,0 0,0 0,0 0,1 0,0 0,0 0,0 0,0 0,0 0,0 0,0 0,0 0,0 0,0 0,0 0,0 14,18 33,38 58,57l0 0c0,0 0,0 0,0 0,0 0,0 0,0 0,1 1,1 1,1 0,0 0,0 0,0 0,0 0,0 0,0 0,0 0,0 0,0 0,0 0,0 0,0 0,0 0,0 0,0 0,0 0,0 1,0 0,0 0,0 0,1 0,0 0,0 0,0 0,0 0,0 0,0 0,0 0,0 0,0 0,0 0,0 0,0 0,0 0,0 0,0 1,0 1,0 1,0 0,0 0,0 0,0 0,0 0,1 0,1 0,0 0,0 0,0 0,0 0,0 0,0 0,0 0,0 0,0 1,0 1,0 1,0 0,0 0,0 0,0 0,0 0,0 0,0 0,0 0,0 0,0 0,1 1,1 1,1 0,0 0,0 0,0 0,0 0,0 0,0l0 0c34,25 78,49 136,70l0 0c1,0 1,0 1,1 0,0 0,0 0,0 0,0 0,0 1,0l0 0c0,0 264,98 264,338 0,6 0,12 0,18 -1,11 -2,23 -4,35 0,0 -1,26 -21,57 -2,4 -5,8 -9,12 -8,10 -18,20 -31,30 -38,27 -98,49 -194,49 -4,0 -8,0 -12,0l0 0 -74 0 -48 1 -54 0z"/>
   <path class="fil29" d="M3135 3105c0,0 -19,-10 -52,-15l0 -1c-8,-1 -16,-1 -23,-1 -7,0 -15,0 -23,1l0 1c-33,5 -52,15 -52,15 0,0 -228,109 -79,493 0,0 38,286 27,296 0,0 -83,71 37,70 0,0 58,8 49,-50 0,0 0,0 0,-49 0,0 -23,-311 41,-309 64,-2 41,309 41,309 -1,26 -10,50 -10,50 -17,59 58,49 58,49 96,-8 31,-63 31,-63 -9,-110 34,-303 34,-303 255,-328 -79,-493 -79,-493z"/>
   <path class="fil32" d="M3046 3395c-28,0 -56,-4 -79,-11 -43,-14 -82,-48 -107,-82 0,-4 1,-7 2,-11 13,12 27,23 43,32 12,21 31,30 67,37l134 0c23,0 43,-10 58,-27 47,-23 83,-62 102,-112 1,2 2,4 3,6 -25,67 -71,133 -142,156 -24,8 -52,12 -81,12z"/>
   <path class="fil29" d="M2921 2912l-26 48c0,0 -29,-14 -51,5 -48,39 -27,300 -27,300 22,117 -88,103 -88,103 -76,-12 -59,-107 -59,-107 13,-128 48,-359 153,-387 0,0 52,4 98,38z"/>
   <path class="fil32" d="M3280 3140c0,133 -102,220 -235,220 -133,0 -247,-87 -247,-220l0 -63c0,-133 108,-240 241,-240 133,0 241,107 241,240l0 63z"/>
   <path class="fil31" d="M2887 3256c10,74 23,92 85,104l134 0c48,0 85,-46 85,-104 0,0 -3,-126 -152,-129 0,0 -135,-9 -152,129z"/>
   <g>
    <path class="fil29" d="M3084 3188l0 0 0 0 0 0 0 0 0 0 0 0 0 0 0 0 0 0 0 0 0 -1 0 0c-2,-2 -12,-13 -45,-12 -31,-1 -42,9 -44,12l0 0 0 0 0 0 89 1zm-89 -1l0 0 0 0 0 0zm0 1l0 0 0 0 0 0zm-1 0l0 0 0 0 0 0zm-7 21l0 0 0 0 0 0zm0 0l0 0 0 0zm0 1l0 0 0 0 0 0zm0 0l0 0 0 0zm0 0l0 0 0 0 0 0zm0 -1l0 0 0 0zm0 0l0 0 0 0 0 0zm0 0l0 0 0 0zm0 0l0 0 0 0zm0 -1l0 0 0 0zm0 0l0 0 0 0zm0 0l0 0 0 0zm0 0l0 0 0 0zm0 0l0 0 0 0zm0 0l0 0 0 0zm0 1l0 0 0 0zm0 0l0 0 0 0zm0 0l0 0 0 0zm0 0l0 0 0 0zm0 0l0 0 0 0zm0 0l0 0 0 0 0 0zm0 0l0 0 0 0 0 1 0 0 0 0 0 0 0 0 0 0 0 0 0 0 0 -1zm0 1l0 0 0 0 0 0zm102 8l0 0 0 0 0 0zm1 -4l0 0 1 0 0 0 0 0 0 0 0 -1 -1 1zm1 -1l0 0 0 0 0 0 0 0 0 0zm0 0l0 -1 0 0 0 1zm0 -1l0 0 0 0 0 0 0 0 0 0 0 0 0 0zm0 -1l0 0 0 0 0 0 0 0 0 -1 0 0 0 0 0 0 0 0 0 0 0 0 0 0 0 0 0 0 0 0 0 0 0 0 0 -1 0 0 0 0 0 0 0 0 0 0 0 0 0 0 0 0 0 -1 0 0 0 0 0 0 0 0 0 0 0 0 0 0 0 0 0 0 0 0 0 0 0 0 0 0 0 0 0 0 0 -1 0 0 0 0 0 -1 0 0 0 0 0 0 0 -1 0 0 0 0 0 0 0 -1 0 0 0 0 0 0 0 0 0 -1 0 0 0 0 0 0 0 0 0 -1 0 0 0 0 0 0 0 0 0 -1 0 0 0 0 -1 0 0 -1 0 0 0 0 0 0 0 0 0 -1 0 0 0 0 0 0 0 0 0 -1 0 0 0 0 0 0 0 0 -1 -1 0 0 0 0 0 0 0 0 0 -1 0 0 0 0 0 0 0 0 0 -1 0 0 0 0 -1 0 0 0 0 0 0 -1 0 0 0 0 0 0 0 0 0 -1 0 0 0 0 0 0 -1 0 0 -1 0 0 0 0 0 0 0 0 0 -1 0 0 -1 -1 0 0 0 0 -1 0 0 0 0 -1 0 0 0 0 0 0 0 0 0 0 -1 -1 0 0 0 0 0 0 0 0 0 0 7 23zm0 2l0 0 0 0zm0 0l0 0 0 0zm0 0l0 0 0 0zm0 0l0 0 0 0zm-1 1l0 0 0 0zm0 1c0,1 0,1 0,2l0 -2zm-1 3l0 0 0 0zm0 0l0 0 0 0zm-95 -30l0 0 0 0 0 0 0 0 0 0 0 0 0 0 0 1 -1 0 0 0 0 0 0 0 0 0 0 0 0 1 0 0 0 0 0 0 -1 0 0 0 0 0 0 1 0 0 0 0 0 0 0 0 0 0 -1 0 0 1 0 0 0 0 0 0 0 0 0 0 0 0 0 1 0 0 0 0 0 0 -1 0 0 1 0 0 0 0 0 0 0 0 0 0 0 1 0 0 0 0 0 0 -1 0 0 1 0 0 0 0 0 0 0 0 0 0 0 1 0 0 0 0 0 0 0 0 0 0 0 1 0 0 -1 0 0 0 0 0 0 0 0 1 0 0 0 0 0 0 0 0 0 1 0 0 0 0 0 0 0 0 0 0 0 1 0 0 0 0 0 0 0 0 0 1 -1 0 0 0 0 0 0 1 0 0 0 0 0 0 0 1 0 0 0 0 0 0 0 1 0 0 0 0 0 0 0 1 0 0 0 0 0 0c0,1 0,1 0,2l0 0 0 0 0 0 0 0 0 0 0 0 0 0 0 0 0 0 0 0 0 0 0 0 0 0 0 0 0 0 0 0 0 0 0 0 0 0 0 0 0 0 0 0 0 0 0 0 0 0 0 0 0 0 0 0 0 0 0 0 0 0 0 0 0 0 0 0 0 0 0 0 0 0 0 0 0 0 0 0 0 0 0 0 0 1 0 0 0 0 0 0 0 0 0 0 0 0 0 0 0 0 0 0 0 0 0 0 0 0 0 0 0 0 0 0 0 0 0 0 0 0 0 0 0 0 0 0 0 0 0 0 0 0 0 0 0 0 0 0 0 0 0 0 0 0 0 0 0 0 0 0 0 0 0 0 0 0 0 0 0 0 0 0 0 0 0 0 0 0 0 0 0 0 0 0 0 1 0 0 0 0 0 0 0 0 0 0 0 0 0 0 0 0 0 0 0 0 0 0 0 0 0 0 0 0 0 0 0 0 0 0 0 0 0 0 0 0 0 0 0 0 0 0 0 0 0 0 0 0 0 0 0 0 0 0 0 0 0 0 0 0 0 0 0 0 0 0c0,3 1,6 2,9 0,0 14,22 37,31 0,0 5,2 10,3l0 38 -9 -1c-4,0 -7,0 -11,-1 -4,0 -7,0 -11,-1 -3,-2 -6,-2 -8,-4 -2,-1 -5,-2 -7,-4 -1,-2 -3,-3 -3,-5 -2,-3 -2,-5 -2,-5l0 1c0,1 0,3 0,5 0,2 1,4 3,6 1,3 4,4 6,6 3,2 6,3 10,5 3,2 7,2 11,3 4,1 8,2 12,2 4,0 8,1 12,1 4,0 9,0 13,-1 4,0 8,-1 12,-2 4,0 7,-2 11,-3 3,-2 6,-4 9,-5 3,-2 5,-5 6,-7 2,-2 3,-4 4,-5 1,-4 1,-6 1,-6 0,0 -1,2 -3,5 -1,1 -2,3 -4,4 -2,2 -4,3 -6,5 -3,1 -6,2 -9,3 -3,1 -7,2 -11,3 -3,0 -7,1 -11,1 -2,0 -5,0 -7,0l0 -38c4,-1 8,-3 8,-3 23,-9 37,-31 37,-31l0 -1 0 0 0 0 0 0 0 0 0 0 0 0 0 0 0 0 0 -1 0 0 1 0 0 0c0,-1 0,-1 0,-2l0 0 0 0 0 0 0 -1 0 0 0 0 1 -1 0 0 0 0 0 0 0 0 0 0 0 0 0 0 0 0 0 0 0 0 0 0 0 0 0 0 0 0 0 0 0 0 0 0 0 -1 0 0 0 0 0 0 0 0 0 0 0 0 0 0 0 0 0 0 0 0 0 0 0 -1 0 0 0 0 0 0 0 0c0,-2 0,-3 0,-5 0,-6 -2,-11 -5,-16 0,1 0,2 0,3 0,6 -1,12 -3,18 -8,15 -22,24 -39,24 0,0 -1,0 -2,0 -15,-1 -28,-14 -28,-29 0,-1 0,-1 0,-2 0,-12 6,-23 15,-29 -25,1 -33,10 -34,12l0 0 0 0 0 0 0 0 0 0 0 1 0 0 -1 0 0 0 0 0 0 0zm0 0l0 0 0 0z"/>
   </g>
   <path class="fil29" d="M2907 3193c0,0 1,-5 6,-12 2,-4 5,-8 8,-13 4,-5 9,-9 15,-14 6,-5 12,-9 20,-13 8,-4 16,-7 25,-10 4,-2 9,-2 14,-3 4,-2 9,-2 14,-3 10,-1 19,-1 29,-2 10,0 20,1 30,2 9,2 19,4 27,7 18,5 34,14 45,23 12,9 20,19 24,26 3,4 4,7 5,9 1,2 1,3 1,3 0,0 0,-1 -2,-3 -1,-1 -3,-4 -6,-7 -3,-3 -6,-7 -11,-10 -4,-4 -9,-8 -15,-11 -12,-7 -27,-14 -44,-18 -17,-4 -35,-7 -54,-7 -9,1 -18,1 -27,2 -10,1 -18,2 -27,4 -8,2 -16,5 -24,7 -7,4 -14,7 -19,10 -6,4 -12,8 -16,12 -4,3 -7,7 -10,10 -5,7 -8,11 -8,11z"/>
   <path class="fil29" d="M3521 3903c0,0 -5,0 -15,-2 -9,-1 -23,-3 -39,-9 -15,-6 -34,-14 -49,-28 -16,-14 -29,-35 -33,-57 -2,-11 -2,-22 -2,-33 1,-11 3,-22 5,-32 6,-21 16,-38 27,-51 10,-13 22,-21 30,-26 4,-3 7,-5 9,-6 2,-1 4,-2 4,-2 0,0 -1,1 -4,2 -2,2 -5,4 -9,7 -7,5 -17,15 -27,28 -10,12 -19,30 -24,49 -2,10 -4,20 -4,31 -1,10 0,21 2,32 4,21 15,40 30,53 15,14 31,23 47,29 15,6 28,10 37,12 10,2 15,3 15,3z"/>
   <path class="fil38" d="M2914 2957c31,0 57,29 57,65 0,1 0,3 0,4 -10,-22 -33,-38 -60,-38 -22,0 -42,11 -54,28 3,-33 27,-59 57,-59z"/>
   <path class="fil37" d="M3269 3227c-1,-2 -2,-4 -3,-6l0 0c1,2 2,4 3,6l0 0 0 0z"/>
   <path class="fil38" d="M3157 2957c31,0 57,29 57,65 0,1 0,3 0,4 -10,-22 -33,-38 -60,-38 -22,0 -42,11 -54,28 3,-33 27,-59 57,-59z"/>
   <circle class="fil39" cx="838" cy="481" r="114"/>
   <circle class="fil40" cx="4546" cy="1538" r="371"/>
   <g>
    <path class="fil41" d="M3112 3050l8 25c-3,5 -7,4 -10,-3 -2,-7 -1,-17 2,-22zm57 22l-2 -3 -3 -3 -2 -3 -2 -2 -2 -2 -3 -1 -2 -1 -2 -1 -2 -1 -2 0 -2 0 -2 1 -2 0 -2 1 -2 1 -2 1 -1 1 -2 1 -1 1 -2 2 -1 1 -2 2 -1 1 -1 1 -1 2 -1 1 0 1 -1 1 -1 0 0 1 0 0 0 0 -8 -25 0 -1 0 0 1 -1 0 -1 1 -1 1 -1 1 -2 2 -2 1 -1 1 -2 2 -2 2 -1 2 -2 2 -2 2 -1 2 -2 2 -1 3 -1 2 -1 3 -1 2 0 3 0 3 0 3 0 3 1 3 2 3 2 3 2 3 3 3 4 3 4 3 4 -8 26zm0 0l8 -26c3,5 4,15 1,22 -2,7 -6,9 -9,4z"/>
   </g>
   <g>
    <path class="fil41" d="M2881 3050l8 25c-3,5 -7,4 -10,-3 -2,-7 -1,-17 2,-22zm57 22l-3 -3 -2 -3 -2 -3 -2 -2 -3 -2 -2 -1 -2 -1 -2 -1 -2 -1 -2 0 -2 0 -2 1 -2 0 -2 1 -2 1 -2 1 -1 1 -2 1 -2 1 -1 2 -2 1 -1 2 -1 1 -1 1 -1 2 -1 1 -1 1 0 1 -1 0 0 1 0 0 0 0 -8 -25 0 -1 0 0 1 -1 0 -1 1 -1 1 -1 1 -2 1 -2 2 -1 1 -2 2 -2 2 -1 1 -2 2 -2 3 -1 2 -2 2 -1 2 -1 3 -1 2 -1 3 0 3 0 3 0 3 0 2 1 3 2 3 2 3 2 3 3 3 4 3 4 4 4 -8 26zm0 0l8 -26c3,5 3,15 1,22 -2,7 -6,9 -9,4z"/>
   </g>
   <path class="fil42" d="M2954 3510c-12,19 2,177 2,273 0,95 11,148 26,181 16,-1 44,-9 37,-50 0,0 0,0 0,-49 0,0 11,-217 30,-306 -7,-18 -83,-67 -95,-49z"/>
   <ellipse class="fil42" cx="3021" cy="3562" rx="72" ry="138"/>
  </g>
 </g>
</svg>
