<svg id="Szybki_kadr_-_zawartość" data-name="Szybki kadr - zawartość" xmlns="http://www.w3.org/2000/svg" xmlns:xlink="http://www.w3.org/1999/xlink" viewBox="0 0 82.97 67.97"><defs><style>.cls-1,.cls-10,.cls-11,.cls-12,.cls-13,.cls-14,.cls-15,.cls-16,.cls-2,.cls-21,.cls-23,.cls-24,.cls-25,.cls-26,.cls-27,.cls-28,.cls-29,.cls-3,.cls-31,.cls-32,.cls-33,.cls-34,.cls-35,.cls-36,.cls-37,.cls-38,.cls-39,.cls-4,.cls-40,.cls-41,.cls-42,.cls-43,.cls-44,.cls-45,.cls-46,.cls-47,.cls-48,.cls-49,.cls-5,.cls-50,.cls-51,.cls-52,.cls-9{fill-rule:evenodd;}.cls-1{fill:url(#GradientFill_1);}.cls-2{fill:url(#GradientFill_1-2);}.cls-3{fill:url(#GradientFill_1-3);}.cls-4{fill:#7e8082;}.cls-5{fill:#fff;}.cls-6{fill:url(#GradientFill_2);}.cls-7{fill:url(#GradientFill_2-2);}.cls-8{fill:url(#GradientFill_2-3);}.cls-9{fill:url(#GradientFill_3);}.cls-10{fill:#ffd525;}.cls-11{fill:#fc0;}.cls-12,.cls-22{fill:#fdd200;}.cls-13{fill:#fedf61;}.cls-14{fill:url(#GradientFill_4);}.cls-15{fill:url(#GradientFill_4-2);}.cls-16{fill:url(#GradientFill_5);}.cls-17{fill:url(#GradientFill_6);}.cls-18{fill:url(#GradientFill_6-2);}.cls-19{fill:url(#GradientFill_6-3);}.cls-20{fill:url(#GradientFill_6-4);}.cls-21{fill:url(#GradientFill_7);}.cls-23{fill:url(#GradientFill_8);}.cls-24{fill:url(#GradientFill_2-4);}.cls-25{fill:url(#GradientFill_2-5);}.cls-26{fill:url(#GradientFill_2-6);}.cls-27{fill:url(#GradientFill_2-7);}.cls-28{fill:#fbd5ab;}.cls-29{fill:#d1d2d3;}.cls-30{fill:url(#GradientFill_9);}.cls-31{fill:url(#GradientFill_10);}.cls-32{fill:url(#GradientFill_10-2);}.cls-33{fill:url(#GradientFill_10-3);}.cls-34{fill:url(#GradientFill_10-4);}.cls-35{fill:url(#GradientFill_10-5);}.cls-36{fill:url(#GradientFill_10-6);}.cls-37{fill:url(#GradientFill_6-5);}.cls-38{fill:url(#GradientFill_7-2);}.cls-39{fill:url(#GradientFill_8-2);}.cls-40{fill:url(#GradientFill_11);}.cls-41{fill:url(#GradientFill_11-2);}.cls-42{fill:url(#GradientFill_11-3);}.cls-43{fill:url(#GradientFill_1-4);}.cls-44{fill:url(#GradientFill_1-5);}.cls-45{fill:url(#GradientFill_1-6);}.cls-46{fill:url(#GradientFill_1-7);}.cls-47{fill:url(#GradientFill_11-4);}.cls-48{fill:url(#GradientFill_1-8);}.cls-49{fill:url(#GradientFill_1-9);}.cls-50{fill:url(#GradientFill_1-10);}.cls-51{fill:url(#GradientFill_3-2);}.cls-52{fill:url(#GradientFill_12);}</style><linearGradient id="GradientFill_1" x1="217.62" y1="151.34" x2="242.16" y2="103.41" gradientTransform="translate(0.13 -0.25) rotate(0.06)" gradientUnits="userSpaceOnUse"><stop offset="0" stop-color="#3b3b90"/><stop offset="1" stop-color="#3b2783"/></linearGradient><linearGradient id="GradientFill_1-2" x1="211.1" y1="129.21" x2="226.13" y2="113.3" xlink:href="#GradientFill_1"/><linearGradient id="GradientFill_1-3" x1="249.19" y1="136.01" x2="257.42" y2="127.74" xlink:href="#GradientFill_1"/><linearGradient id="GradientFill_2" x1="246.8" y1="147.62" x2="247.21" y2="147.62" gradientTransform="translate(394.6 -99.37) rotate(90)" gradientUnits="userSpaceOnUse"><stop offset="0" stop-color="#9b9b9d"/><stop offset="1" stop-color="#d1d2d3"/></linearGradient><linearGradient id="GradientFill_2-2" x1="247.35" y1="147.62" x2="247.84" y2="147.62" gradientTransform="translate(395.35 -100.13) rotate(90)" xlink:href="#GradientFill_2"/><linearGradient id="GradientFill_2-3" x1="247.89" y1="147.62" x2="247.23" y2="147.62" gradientTransform="translate(394.98 -99.75) rotate(90)" xlink:href="#GradientFill_2"/><linearGradient id="GradientFill_3" x1="248.89" y1="159.11" x2="248.89" y2="146.89" gradientTransform="translate(0.13 -0.25) rotate(0.06)" gradientUnits="userSpaceOnUse"><stop offset="0" stop-color="#ffde30"/><stop offset="0.29" stop-color="#f39237"/><stop offset="0.65" stop-color="#e9454c"/><stop offset="1" stop-color="#e72a7a"/></linearGradient><linearGradient id="GradientFill_4" x1="233" y1="147.55" x2="235.47" y2="131.84" gradientTransform="translate(0.13 -0.25) rotate(0.06)" gradientUnits="userSpaceOnUse"><stop offset="0" stop-color="#a6a7ab"/><stop offset="1" stop-color="#fff"/></linearGradient><linearGradient id="GradientFill_4-2" x1="250.1" y1="109.84" x2="250.1" y2="109.82" xlink:href="#GradientFill_4"/><linearGradient id="GradientFill_5" x1="246.94" y1="107.05" x2="259.25" y2="108.66" gradientTransform="translate(0.13 -0.25) rotate(0.06)" gradientUnits="userSpaceOnUse"><stop offset="0" stop-color="#a6a7ab"/><stop offset="0.83" stop-color="#fff"/><stop offset="1" stop-color="#fff"/></linearGradient><linearGradient id="GradientFill_6" x1="225.67" y1="134.03" x2="251.58" y2="134.03" gradientTransform="translate(362.15 -94.1) rotate(90)" gradientUnits="userSpaceOnUse"><stop offset="0" stop-color="#fbe088"/><stop offset="0.13" stop-color="#fbba3d"/><stop offset="0.25" stop-color="#f07e20"/><stop offset="0.38" stop-color="#eb5e29"/><stop offset="0.5" stop-color="#e73932"/><stop offset="0.64" stop-color="#e72865"/><stop offset="0.82" stop-color="#6f328a"/><stop offset="1" stop-color="#464999"/></linearGradient><linearGradient id="GradientFill_6-2" x1="225.67" y1="134.03" x2="251.58" y2="134.03" gradientTransform="translate(370.6 -102.54) rotate(90)" xlink:href="#GradientFill_6"/><linearGradient id="GradientFill_6-3" x1="225.67" y1="134.03" x2="251.58" y2="134.03" gradientTransform="translate(379.05 -110.98) rotate(90)" xlink:href="#GradientFill_6"/><linearGradient id="GradientFill_6-4" x1="229.15" y1="127.85" x2="243.29" y2="112.69" gradientTransform="translate(356.47 -116.69) rotate(90)" xlink:href="#GradientFill_6"/><linearGradient id="GradientFill_7" x1="236.58" y1="127.66" x2="236.58" y2="124.27" gradientTransform="translate(-193.45 -90.7) rotate(0.06)" gradientUnits="userSpaceOnUse"><stop offset="0" stop-color="#fc0"/><stop offset="1" stop-color="#c19a00"/></linearGradient><linearGradient id="GradientFill_8" x1="241.13" y1="121.16" x2="231.24" y2="121.71" gradientTransform="translate(0.13 -0.25) rotate(0.06)" gradientUnits="userSpaceOnUse"><stop offset="0" stop-color="#f0f2f2"/><stop offset="0.47" stop-color="#d1d3d3"/><stop offset="1" stop-color="#b3b4b4"/></linearGradient><linearGradient id="GradientFill_2-4" x1="252.09" y1="128.95" x2="257.57" y2="128.95" gradientTransform="translate(-193.45 -90.7) rotate(0.06)" xlink:href="#GradientFill_2"/><linearGradient id="GradientFill_2-5" x1="254.52" y1="128.39" x2="256.16" y2="128.39" gradientTransform="translate(-193.45 -90.7) rotate(0.06)" xlink:href="#GradientFill_2"/><linearGradient id="GradientFill_2-6" x1="260.07" y1="127.26" x2="256.12" y2="128.44" gradientTransform="translate(-193.45 -90.7) rotate(0.06)" xlink:href="#GradientFill_2"/><linearGradient id="GradientFill_2-7" x1="259.3" y1="128.67" x2="254.18" y2="128.67" gradientTransform="translate(-193.45 -90.7) rotate(0.06)" xlink:href="#GradientFill_2"/><linearGradient id="GradientFill_9" x1="212.51" y1="126.42" x2="212.51" y2="134.6" gradientTransform="translate(247.9 -116.13) rotate(66.49)" gradientUnits="userSpaceOnUse"><stop offset="0" stop-color="#64b982"/><stop offset="0.07" stop-color="#64ba87"/><stop offset="1" stop-color="#35b5b5"/></linearGradient><linearGradient id="GradientFill_10" x1="211.29" y1="127.63" x2="211.29" y2="135.05" gradientTransform="translate(0.13 -0.25) rotate(0.06)" gradientUnits="userSpaceOnUse"><stop offset="0" stop-color="#55237e"/><stop offset="0.26" stop-color="#4f4d94"/><stop offset="0.77" stop-color="#449cbd"/><stop offset="1" stop-color="#40bbcd"/></linearGradient><linearGradient id="GradientFill_10-2" x1="212.78" y1="128.28" x2="212.78" y2="135.7" xlink:href="#GradientFill_10"/><linearGradient id="GradientFill_10-3" x1="214.28" y1="128.93" x2="214.28" y2="136.35" xlink:href="#GradientFill_10"/><linearGradient id="GradientFill_10-4" x1="210.4" y1="127.46" x2="210.4" y2="134.88" xlink:href="#GradientFill_10"/><linearGradient id="GradientFill_10-5" x1="211.89" y1="128.11" x2="211.89" y2="135.53" xlink:href="#GradientFill_10"/><linearGradient id="GradientFill_10-6" x1="213.38" y1="128.76" x2="213.38" y2="136.18" xlink:href="#GradientFill_10"/><linearGradient id="GradientFill_6-5" x1="214.21" y1="124.76" x2="217.88" y2="120.83" gradientTransform="translate(0.13 -0.25) rotate(0.06)" xlink:href="#GradientFill_6"/><linearGradient id="GradientFill_7-2" x1="214.92" y1="125.62" x2="214.92" y2="123.87" xlink:href="#GradientFill_7"/><linearGradient id="GradientFill_8-2" x1="217.39" y1="123.25" x2="213.91" y2="123.44" xlink:href="#GradientFill_8"/><linearGradient id="GradientFill_11" x1="237.8" y1="99.63" x2="243.59" y2="98.31" gradientTransform="translate(0.13 -0.25) rotate(0.06)" gradientUnits="userSpaceOnUse"><stop offset="0" stop-color="#91ccb6"/><stop offset="1" stop-color="#2daa57"/></linearGradient><linearGradient id="GradientFill_11-2" x1="194.72" y1="132.08" x2="200.58" y2="131.11" xlink:href="#GradientFill_11"/><linearGradient id="GradientFill_11-3" x1="271.85" y1="115.94" x2="273.74" y2="115.5" xlink:href="#GradientFill_11"/><linearGradient id="GradientFill_1-4" x1="194.47" y1="112.65" x2="200.51" y2="109.11" xlink:href="#GradientFill_1"/><linearGradient id="GradientFill_1-5" x1="199.88" y1="102.2" x2="204.67" y2="92.62" xlink:href="#GradientFill_1"/><linearGradient id="GradientFill_1-6" x1="268.16" y1="120.57" x2="273.19" y2="115.37" xlink:href="#GradientFill_1"/><linearGradient id="GradientFill_1-7" x1="262.88" y1="108.39" x2="264.83" y2="104.49" xlink:href="#GradientFill_1"/><linearGradient id="GradientFill_11-4" x1="210.46" y1="95.72" x2="221.32" y2="89.56" xlink:href="#GradientFill_11"/><linearGradient id="GradientFill_1-8" x1="209.6" y1="157.43" x2="210.6" y2="153.53" xlink:href="#GradientFill_1"/><linearGradient id="GradientFill_1-9" x1="219.87" y1="157.44" x2="221.52" y2="152.23" xlink:href="#GradientFill_1"/><linearGradient id="GradientFill_1-10" x1="215.34" y1="106.26" x2="216.94" y2="103.69" xlink:href="#GradientFill_1"/><linearGradient id="GradientFill_3-2" x1="208.12" y1="144.7" x2="202.61" y2="149.46" xlink:href="#GradientFill_3"/><linearGradient id="GradientFill_12" x1="204.99" y1="152.68" x2="204.51" y2="150.25" gradientTransform="translate(0.13 -0.25) rotate(0.06)" gradientUnits="userSpaceOnUse"><stop offset="0" stop-color="#d1d2d3"/><stop offset="1" stop-color="#9b9b9d"/></linearGradient></defs><title>offer-1</title><path class="cls-1" d="M276.14,124.21c-1-3.35-4.82-4.43-5.81-7.66-1.06-3.5,0-7-2.33-10.09a12.63,12.63,0,0,0-8.61-4.66c-3.46-.41-6.85.43-10.15,1.41s-6.75,2.42-10.12,1.5c-3-.81-4.73-3.63-6.73-5.77a28.39,28.39,0,0,0-6.31-5.36c-9.49-5.51-24.31-3.92-30.15,6.19a18.32,18.32,0,0,0-1.79,13.47c1.25,5,5.05,9.11,7.69,13.47,3.7,6.1-1.79,13-1.63,19.42.18,7,5.05,12.45,12.19,12.29,3.89-.09,7.59-1.69,10.93-3.66,5.36-3.15,10.83-8.52,17.05-9.75,3.74-.74,7.4.69,11.11.92,8.39.54,17.91-4.24,22.64-11.17a12.81,12.81,0,0,0,2-10.52A0,0,0,0,1,276.14,124.21Z" transform="translate(-193.59 -90.45)"/><path class="cls-2" d="M220.1,107a18.53,18.53,0,0,1-2.76,1.82c-1.35.57-2.4-.16-3.74,0-2.87.33-4.11,4-4,6.38.09,1.77.73,3.46.77,5.24.06,2.71-1.74,5-2,7.63a8.51,8.51,0,0,0,4.26,8c3.16,1.9,7.27,1.45,10.35-.41l5.91-23.8c-.68-1.06-1.18-2.23-1.9-3.26A5,5,0,0,0,220.1,107Z" transform="translate(-193.59 -90.45)"/><path class="cls-3" d="M259,126.2c-1.05-1.26-2.51-.09-3.64.33a1.58,1.58,0,0,1-.83.12,1.33,1.33,0,0,1-.91-.76,17.1,17.1,0,0,1-.61-2.26c-.44-1.24-1.75-1.53-2.89-1.74l-1.59,16.57a11.15,11.15,0,0,0,7.78,2.16,4.59,4.59,0,0,0,3.79-2.81c.84-2.24-.77-4.56-.91-6.8C259.07,129.44,260.1,127.57,259,126.2Z" transform="translate(-193.59 -90.45)"/><polygon class="cls-4" points="33.09 57.97 33.1 56.35 31.01 57.16 33.09 57.97"/><path class="cls-5" d="M228.79,146a.62.62,0,0,0-.3.06l-.27.12-1.54.59v1.62l1.53.6.27.12.1,0a.56.56,0,0,0,.21,0c.94,0,2-.95,2-1.72S229.66,146,228.79,146Z" transform="translate(-193.59 -90.45)"/><rect class="cls-6" x="245.39" y="147.43" width="3.17" height="0.4" transform="translate(-94.51 304) rotate(-89.94)"/><rect class="cls-7" x="246.15" y="147.43" width="3.17" height="0.4" transform="translate(-93.75 304.76) rotate(-89.94)"/><rect class="cls-8" x="245.77" y="147.46" width="3.17" height="0.35" transform="translate(-94.13 304.38) rotate(-89.94)"/><path class="cls-9" d="M249,146.05h-1v3.17h1c.46,0,.83-.47.83-1.09v-1C249.8,146.55,249.42,146.05,249,146.05Z" transform="translate(-193.59 -90.45)"/><polygon class="cls-10" points="35.08 57.16 53.19 57.18 53.19 56.37 36.15 56.35 35.08 57.16"/><polygon class="cls-11" points="36.15 56.35 53.19 56.37 53.19 55.6 35.28 55.58 36.15 56.35"/><polygon class="cls-12" points="36.15 57.99 53.19 58.01 53.19 57.18 35.08 57.16 36.15 57.99"/><polygon class="cls-13" points="35.28 58.75 53.19 58.77 53.19 58.01 36.15 57.99 35.28 58.75"/><path class="cls-14" d="M223.06,109.87l0,4.18,0,14.14,0,11.32c0,.73,0,1.46,0,2.19A116.25,116.25,0,0,0,246.18,144h.39c1.94,0,3.51-1.94,3.52-4.3l0-29.89h0v0l0-.1,3.53-4.15-27.09,0C224.65,105.57,223.06,107.5,223.06,109.87Z" transform="translate(-193.59 -90.45)"/><path class="cls-15" d="M250.12,109.85h0v0Z" transform="translate(-193.59 -90.45)"/><path class="cls-16" d="M253.67,105.6c-1.94,0-3.52,1.9-3.55,4.25l7.1.06C257.22,107.53,255.64,105.61,253.67,105.6Z" transform="translate(-193.59 -90.45)"/><path class="cls-5" d="M243,139.73l-24.9,0c0,2.38,1.58,4.31,3.54,4.31l24.91,0C244,143.85,243,142.11,243,139.73Z" transform="translate(-193.59 -90.45)"/><rect class="cls-17" x="226.02" y="131.93" width="4.19" height="4.19" rx="0.35" transform="translate(-99.74 271.55) rotate(-89.94)"/><rect class="cls-18" x="234.47" y="131.94" width="4.19" height="4.19" rx="0.35" transform="translate(-91.31 280.01) rotate(-89.94)"/><rect class="cls-19" x="242.92" y="131.95" width="4.19" height="4.19" rx="0.35" transform="translate(-82.88 288.46) rotate(-89.94)"/><path class="cls-20" d="M230.58,110.72h12a3.16,3.16,0,0,1,3.16,3.16v12a3.17,3.17,0,0,1-3.17,3.17h-12a3.17,3.17,0,0,1-3.17-3.17v-12a3.17,3.17,0,0,1,3.17-3.17Z" transform="translate(-77.15 265.89) rotate(-89.94)"/><polygon class="cls-21" points="41.53 35.36 41.52 38.6 44.45 38.61 44.45 35.35 41.53 35.36"/><rect class="cls-22" x="235.96" y="123.24" width="1.23" height="4.5" rx="0.18" transform="matrix(0, -1, 1, 0, -82.75, 271.48)"/><path class="cls-23" d="M237.05,117.91v3.45a.84.84,0,0,1,.41.73.87.87,0,1,1-1.74,0,.84.84,0,0,1,.41-.73v-3.45a15.65,15.65,0,0,1-1,2,24,24,0,0,1-1.6,2.18l1.78,2.76h2.63l1.78-2.75s-1-1.33-1.55-2.19A17.52,17.52,0,0,1,237.05,117.91Z" transform="translate(-193.59 -90.45)"/><path class="cls-5" d="M239.22,112.36a1.65,1.65,0,0,0-2.31.16l-.32.32-.32-.32a1.65,1.65,0,0,0-2.31-.17h0a1.64,1.64,0,0,0,0,2.32l.32.32,2.31,2.32,2.33-2.32.31-.31a1.64,1.64,0,0,0,0-2.32Z" transform="translate(-193.59 -90.45)"/><path class="cls-12" d="M263.72,123.12l-8.27,4.08,1.19,2.2,8-4.62a.94.94,0,0,0-.89-1.66Z" transform="translate(-193.59 -90.45)"/><polygon class="cls-24" points="60.41 37.52 61.59 39.74 62.02 39.51 60.83 37.3 60.41 37.52"/><polygon class="cls-25" points="61.44 36.98 62.62 39.18 63.05 38.95 61.87 36.75 61.44 36.98"/><polygon class="cls-26" points="60.83 37.3 62.02 39.51 62.62 39.18 61.44 36.98 60.83 37.3"/><polygon class="cls-27" points="60.83 37.3 62.02 39.51 62.62 39.18 61.44 36.98 60.83 37.3"/><polygon class="cls-12" points="56.13 40.04 57.13 41.91 61.59 39.74 60.41 37.52 56.13 40.04"/><path class="cls-28" d="M246.6,131.51c-.23.41-.1.76-.36,1.4a3.59,3.59,0,0,1-1.45,1.67c5.16,1.21,5.92-2.22,5.92-2.22l-1-1.87C247.6,130.48,246.87,131,246.6,131.51Z" transform="translate(-193.59 -90.45)"/><path class="cls-29" d="M205.12,132.24a1.48,1.48,0,0,0,.77,1.95l8.78,3.83a1.47,1.47,0,0,0,2-.76l.28-.64-11.5-5Z" transform="translate(-193.59 -90.45)"/><path class="cls-29" d="M223.69,117.35l-8.78-3.83a1.48,1.48,0,0,0-1.95.77l-.28.64,11.5,5,.28-.64A1.49,1.49,0,0,0,223.69,117.35Z" transform="translate(-193.59 -90.45)"/><path class="cls-5" d="M220.14,116.73l-1.46-.64a.25.25,0,0,0-.2.45l1.47.64.09,0a.26.26,0,0,0,.23-.15A.25.25,0,0,0,220.14,116.73Z" transform="translate(-193.59 -90.45)"/><path class="cls-5" d="M217.85,115.7a.27.27,0,1,0,.14.36A.27.27,0,0,0,217.85,115.7Z" transform="translate(-193.59 -90.45)"/><rect class="cls-30" x="209.12" y="124.74" width="6.77" height="12.55" transform="translate(-186.14 182.95) rotate(-66.43)"/><path class="cls-5" d="M216.12,131.1,210,128.42a.68.68,0,0,0-.89.35h0a.69.69,0,0,0,.35.9l6.15,2.68a.67.67,0,0,0,.89-.35h0A.68.68,0,0,0,216.12,131.1Z" transform="translate(-193.59 -90.45)"/><path class="cls-5" d="M215.23,133.16l-6.15-2.68a.67.67,0,0,0-.9.35.68.68,0,0,0,.35.89l6.15,2.68a.68.68,0,1,0,.55-1.24Z" transform="translate(-193.59 -90.45)"/><path class="cls-31" d="M211.38,129.53a.23.23,0,0,0-.3.12.22.22,0,0,0,.12.29.22.22,0,0,0,.29-.12A.23.23,0,0,0,211.38,129.53Z" transform="translate(-193.59 -90.45)"/><path class="cls-32" d="M212.87,130.18a.24.24,0,0,0-.3.12.23.23,0,0,0,.12.29.22.22,0,0,0,.29-.12A.22.22,0,0,0,212.87,130.18Z" transform="translate(-193.59 -90.45)"/><path class="cls-33" d="M214.36,130.84a.22.22,0,1,0,.11.29A.21.21,0,0,0,214.36,130.84Z" transform="translate(-193.59 -90.45)"/><path class="cls-34" d="M210.48,131.59a.22.22,0,1,0,.11.29A.22.22,0,0,0,210.48,131.59Z" transform="translate(-193.59 -90.45)"/><path class="cls-35" d="M212,132.24a.22.22,0,1,0-.18.4.21.21,0,0,0,.29-.11A.22.22,0,0,0,212,132.24Z" transform="translate(-193.59 -90.45)"/><path class="cls-36" d="M213.46,132.89a.22.22,0,0,0-.29.11.22.22,0,0,0,.41.18A.22.22,0,0,0,213.46,132.89Z" transform="translate(-193.59 -90.45)"/><path class="cls-5" d="M208.11,125.4l3.84,1.67a.78.78,0,0,0,.4,1l2.38,1a.79.79,0,0,0,1-.41l3.84,1.68L224.18,120l-11.5-5Z" transform="translate(-193.59 -90.45)"/><path class="cls-37" d="M219.11,119.92l-3-1.3a2.09,2.09,0,0,0-2.75,1.08l-1.3,3a2.1,2.1,0,0,0,1.08,2.76l3,1.29a2.09,2.09,0,0,0,2.76-1.08l1.29-3A2.09,2.09,0,0,0,219.11,119.92Z" transform="translate(-193.59 -90.45)"/><polygon class="cls-38" points="20.53 35.39 21.62 35.86 22.14 34.66 21.06 34.18 20.53 35.39"/><path class="cls-12" d="M216.11,124.86l-1.54-.67a.08.08,0,0,0-.1,0l-.14.33a.06.06,0,0,0,0,.09l.9.4h0l.59.26a.07.07,0,0,0,.1,0l.14-.33A.07.07,0,0,0,216.11,124.86Z" transform="translate(-193.59 -90.45)"/><path class="cls-39" d="M216.64,122c-.19.42-.38.85-.56,1.27a.37.37,0,0,1,0,.34.35.35,0,0,1-.46.18.35.35,0,0,1-.19-.46.36.36,0,0,1,.27-.21l.56-1.28a5.69,5.69,0,0,1-.71.59,9.9,9.9,0,0,1-1,.55s.15.87.22,1.31l1,.42,1.11-.73s-.17-.66-.22-1.06A6.36,6.36,0,0,1,216.64,122Z" transform="translate(-193.59 -90.45)"/><path class="cls-5" d="M217.45,120l-.17.07-.06-.17a.68.68,0,0,0-.84-.44.67.67,0,0,0-.37.86l.06.17.49,1.24,1.24-.49.17-.06a.65.65,0,1,0-.52-1.18Z" transform="translate(-193.59 -90.45)"/><path class="cls-5" d="M211.73,135.15,210,134.4a.38.38,0,0,0-.51.2h0a.39.39,0,0,0,.2.51l1.71.74a.38.38,0,0,0,.51-.2h0A.38.38,0,0,0,211.73,135.15Z" transform="translate(-193.59 -90.45)"/><path class="cls-40" d="M240.73,95.43A3.55,3.55,0,1,0,244.27,99,3.54,3.54,0,0,0,240.73,95.43Z" transform="translate(-193.59 -90.45)"/><path class="cls-41" d="M196.88,126.64c-1.94.3-3.17,2.75-2.74,5.46s2.33,4.67,4.27,4.37,3.16-2.75,2.73-5.46S198.81,126.34,196.88,126.64Z" transform="translate(-193.59 -90.45)"/><path class="cls-42" d="M272.81,114.6a1.16,1.16,0,1,0,1.16,1.16A1.16,1.16,0,0,0,272.81,114.6Z" transform="translate(-193.59 -90.45)"/><path class="cls-43" d="M197.8,104a1.57,1.57,0,0,1,.43-1.52,1.25,1.25,0,0,0-.69-.12,4.57,4.57,0,0,1-2.62-.55,18.54,18.54,0,0,0-.78,11.4,25,25,0,0,0,3.88,7.82,3,3,0,0,0,.36-.87c.3-1.36-.46-2.6-.86-3.85a4.28,4.28,0,0,1-.16-1.84,5.05,5.05,0,0,1,1-2.31c.88-1.16,2.11-2.18,2.28-3.72C200.83,106.27,198.22,105.91,197.8,104Z" transform="translate(-193.59 -90.45)"/><path class="cls-44" d="M195.93,99.77a18.47,18.47,0,0,0-.94,1.89l-.07.18c-.07.17.86.46,1,.49a5.16,5.16,0,0,0,1.56.32,5.05,5.05,0,0,0,4.45-2.57,3.14,3.14,0,0,0,.18-.37c.09-.19.15-.38.22-.57A14.46,14.46,0,0,1,203,97c.8-1.58,2.46-1.8,4-2.1.4-.08,1.52-.33,1.91-.45l-2-3A18.49,18.49,0,0,0,195.93,99.77Z" transform="translate(-193.59 -90.45)"/><path class="cls-45" d="M270.33,116.55c-.69-2.27-.47-4.52-.88-6.68a4.25,4.25,0,0,1-.43.21,4.66,4.66,0,0,1-1.66.26l-.47.18a13.43,13.43,0,0,1-.56,2.85,3.73,3.73,0,0,0,.25,2.81c.46.71,1.29,1.15,1.64,1.92a6.23,6.23,0,0,1,0,2.69,4.45,4.45,0,0,0,4,4.36,5.88,5.88,0,0,0,3.8-1.26C274.89,120.79,271.28,119.68,270.33,116.55Z" transform="translate(-193.59 -90.45)"/><path class="cls-46" d="M268,106.46a12.63,12.63,0,0,0-8.61-4.66l-.43,0a6.29,6.29,0,0,0,1.69,6,9.43,9.43,0,0,0,6.16,2.57l.55,0a4.66,4.66,0,0,0,1.66-.26,4.25,4.25,0,0,0,.43-.21c0-.11-.05-.23-.07-.34A7.94,7.94,0,0,0,268,106.46Z" transform="translate(-193.59 -90.45)"/><path class="cls-47" d="M213.34,90.46a24.61,24.61,0,0,0-6.4,1c.06,0,.65,1.49.71,1.62a6.5,6.5,0,0,0,1.55,2.16,7.77,7.77,0,0,0,1.86,1.3,10.07,10.07,0,0,0,7.58.56,12.13,12.13,0,0,0,4.45-2.64c.14-.13,1.5-1.65,1.5-1.64A24.82,24.82,0,0,0,213.34,90.46Z" transform="translate(-193.59 -90.45)"/><path class="cls-48" d="M211,152.84a13.32,13.32,0,0,0-8.12,1.17,11.37,11.37,0,0,0,9.5,4.41,17,17,0,0,0,2-.18,18.68,18.68,0,0,0,2.64-.61,7.48,7.48,0,0,0-1.57-2.37A9,9,0,0,0,211,152.84Z" transform="translate(-193.59 -90.45)"/><path class="cls-49" d="M222.27,152.67a5.44,5.44,0,0,1-1.26.89,3,3,0,0,1-1.07.11c-1.64,0-3.49.27-4.45,1.59a7.48,7.48,0,0,1,1.57,2.37,29.27,29.27,0,0,0,6.26-2.87c1-.58,2-1.25,3-1.95A3.78,3.78,0,0,0,222.27,152.67Z" transform="translate(-193.59 -90.45)"/><path class="cls-50" d="M216.16,102.87a2.09,2.09,0,1,0,2.09,2.09A2.08,2.08,0,0,0,216.16,102.87Z" transform="translate(-193.59 -90.45)"/><path class="cls-51" d="M203.75,139.63a8.8,8.8,0,1,0,8.79,8.8A8.78,8.78,0,0,0,203.75,139.63Z" transform="translate(-193.59 -90.45)"/><path class="cls-12" d="M203.06,142.29a4,4,0,0,0-2.42,6.43c.36.44.81.8,1.21,1.2a4,4,0,0,1,.76,1.05l3.91-.66a7.08,7.08,0,0,1,.32-1.36c.18-.55.53-1,.7-1.57a4,4,0,0,0,.11-1.83A4,4,0,0,0,203.06,142.29Z" transform="translate(-193.59 -90.45)"/><path class="cls-5" d="M200.92,146.55a.34.34,0,0,0-.37-.32.35.35,0,0,0-.33.37,3.31,3.31,0,0,0,.3,1.17.36.36,0,0,0,.32.21.4.4,0,0,0,.15,0,.36.36,0,0,0,.17-.47A2.66,2.66,0,0,1,200.92,146.55Z" transform="translate(-193.59 -90.45)"/><path class="cls-5" d="M201.64,143.85a.35.35,0,0,0-.49,0,3.58,3.58,0,0,0-.7,1.17.35.35,0,0,0,.2.45.25.25,0,0,0,.12,0,.36.36,0,0,0,.34-.22,2.75,2.75,0,0,1,.56-1A.35.35,0,0,0,201.64,143.85Z" transform="translate(-193.59 -90.45)"/><path class="cls-5" d="M204.16,147.56a.19.19,0,0,0-.22-.15.18.18,0,0,0-.15.21l.54,3.21a.2.2,0,0,0,.19.16h0a.19.19,0,0,0,.15-.22Z" transform="translate(-193.59 -90.45)"/><path class="cls-52" d="M206.47,150.76c0-.15,0-.3.05-.45l-3.91.66.18.38a8.09,8.09,0,0,1,.57,1.87,1.62,1.62,0,0,0,3.12.34,3.05,3.05,0,0,0,0-1.41A7.17,7.17,0,0,1,206.47,150.76Z" transform="translate(-193.59 -90.45)"/><path class="cls-5" d="M205.07,146.05a.2.2,0,0,0-.27,0l-1,1.39a.2.2,0,0,0,0,.27l.11,0a.18.18,0,0,0,.16-.08l1-1.39A.17.17,0,0,0,205.07,146.05Z" transform="translate(-193.59 -90.45)"/><path class="cls-5" d="M204.08,147.44l-1.39-1a.18.18,0,0,0-.26.05.19.19,0,0,0,0,.26l1.39,1,.11,0a.19.19,0,0,0,.11-.34Z" transform="translate(-193.59 -90.45)"/></svg>