<svg id="Warstwa_1" data-name="Warstwa 1" xmlns="http://www.w3.org/2000/svg" xmlns:xlink="http://www.w3.org/1999/xlink" viewBox="0 0 82.96186 66.48255"><defs><style>.cls-1,.cls-2,.cls-3,.cls-4,.cls-5,.cls-6,.cls-7,.cls-8,.cls-9{fill-rule:evenodd;}.cls-1{fill:url(#GradientFill_1);}.cls-2{fill:url(#GradientFill_2);}.cls-3{fill:url(#GradientFill_1-2);}.cls-4{fill:url(#GradientFill_1-3);}.cls-5{fill:url(#GradientFill_1-4);}.cls-6{fill:url(#GradientFill_1-5);}.cls-7{fill:url(#GradientFill_1-6);}.cls-8{fill:url(#GradientFill_14);}.cls-9{fill:url(#GradientFill_2-2);}</style><linearGradient id="GradientFill_1" x1="115.0681" y1="421.92575" x2="137.52517" y2="377.08785" gradientUnits="userSpaceOnUse"><stop offset="0" stop-color="#393a90"/><stop offset="1" stop-color="#392483"/></linearGradient><linearGradient id="GradientFill_2" x1="164.93019" y1="406.33288" x2="169.38932" y2="405.86521" gradientUnits="userSpaceOnUse"><stop offset="0" stop-color="#90ccb5"/><stop offset="1" stop-color="#29aa56"/></linearGradient><linearGradient id="GradientFill_1-2" x1="157.9591" y1="417.55419" x2="161.58547" y2="409.01241" xlink:href="#GradientFill_1"/><linearGradient id="GradientFill_1-3" x1="91.10221" y1="418.94542" x2="93.56722" y2="415.33201" xlink:href="#GradientFill_1"/><linearGradient id="GradientFill_1-4" x1="101.3902" y1="424.06351" x2="102.0825" y2="420.89359" xlink:href="#GradientFill_1"/><linearGradient id="GradientFill_1-5" x1="121.6747" y1="363.56349" x2="122.70933" y2="360.23864" xlink:href="#GradientFill_1"/><linearGradient id="GradientFill_1-6" x1="130.12612" y1="367.37623" x2="131.75889" y2="364.63939" xlink:href="#GradientFill_1"/><linearGradient id="GradientFill_14" x1="105.30638" y1="431.18256" x2="132.71599" y2="400.85625" gradientUnits="userSpaceOnUse"><stop offset="0" stop-color="#a5a7ab"/><stop offset="1" stop-color="#fff"/></linearGradient><linearGradient id="GradientFill_2-2" x1="121.65403" y1="394.61589" x2="129.94335" y2="393.58822" xlink:href="#GradientFill_2"/></defs><title>offer-4</title><path class="cls-1" d="M93.5722,394.5611c-1.1372,2.7046-3.3522,4.4768-4.9192,6.867a14.015,14.015,0,0,0-2.2904,8.3103c.4521,9.0652,9.2336,14.959,17.7378,15.1381a18.41389,18.41389,0,0,0,8.8619-2.0633c4.3679-2.2541,8.6242-5.1151,13.6194-5.7325,12.7941-1.5792,28.9474,6.8411,38.66-5.3167,8.8135-11.0318,2.3635-25.7201-10.3654-29.5781-4.1602-1.2603-9.1687-1.9967-12.6216-4.8296-3.4795-2.856-5.07-7.4107-8.0254-10.7224-6.9035-7.7346-19.2688-10.2597-28.878-6.5571-6.0633,2.3361-9.6423,7.3437-10.6767,13.6313C93.5597,380.4843,96.287,388.1035,93.5722,394.5611Z" transform="translate(-86.34633 -358.39803)"/><path class="cls-2" d="M165.5328,410.9681v-.01h-.0059a5.30217,5.30217,0,0,1-.3575-.7197v-.0071h-.0028c-.017-.0419-.0332-.0839-.0491-.1261v-.0298h-.011q-.0213-.05655-.0408-.1139v-.0417h-.0142q-.08205-.24315-.1417-.4932v-.0261h-.0063q-.0246-.10545-.0456-.2117v-.0479h-.0094c-.0158-.0851-.0303-.1707-.0425-.2566v-.0031h-.0006q-.0357-.24705-.0515-.4972v-.1777h-.0088q-.00855-.23355-.0003-.4675h.0091v-.191c.0102-.1616.0263-.3232.0479-.4839h.0042v-.03q.01965-.1413.0451-.2815h.0068v-.0369q.02085-.11175.0453-.2228h.0066v-.0297q.0438-.194.0983-.3856h.0054v-.0192c.0133-.0457.0269-.0913.0411-.1367h.0111v-.0348c.0459-.1457.0969-.2903.1525-.4326h.0031v-.0079c.047-.1199.0972-.2387.1508-.3555h.0051v-.0108c.0142-.0311.0289-.062.0437-.0929h.0082v-.017c.026-.0539.0524-.1075.0799-.1608q.035-.0675.0706-.1338h.0051v-.0093l.0519-.0947h.0003q.0735-.1326.1502-.2594h.0054v-.0088c.1315-.2165.2693-.4212.4116-.6145h.0036v-.0051q.07665-.10335.1545-.2024h.0015v-.002q.12585-.16065.2551-.3095h.0045v-.0054l.0405-.0468h.0114v-.0127a8.91349,8.91349,0,0,1,1.1344-1.0775h.0079v-.0062a9.05669,9.05669,0,0,1,.8765-.6168h.0063v-.004c.231-.1429.4351-.2543.5986-.3373q-.00765.2742-.0246.5487h-.0029v.0463q-.0183.28815-.0465.5768h-.0053v.0524q-.02085.2076-.0471.415h-.0048v.038q-.04425.3444-.1026.6888h-.0014v.0071q-.0213.1263-.0451.2526h-.0068v.0368q-.0897.4755-.2072.9499h-.0006v.002q-.11565.46725-.2594.9326h-.0003v.0009c-.0158.0516-.032.1031-.0484.155h-.0034v.0099c-.0156.0485-.0312.0973-.0474.1457h-.0045v.0139q-.0234.0711-.0476.142h-.0043v.0125c-.0161.0479-.0329.0955-.0496.1432h-.0022v.0071a17.89919,17.89919,0,0,1-.7257,1.7583h-.0014v.0025c-.0159.0341-.0324.0678-.0485.1015h-.0034v.0068c-.0156.0323-.0312.0647-.0471.097h-.0048v.0093l-.047.0944h-.0049v.0102q-.19335.3861-.4079.7688h-.0076v.0136l-.0508.0901h-.0011v.002q-.267.4695-.5672.9326h-.004v.0065c-.0323.0499-.0649.0995-.0978.1494h-.0059v.0091l-.0162.0244c-.2134.2814-.4178.5312-.6038.748l-.1136-.0224C165.5626,411.0177,165.5478,410.993,165.5328,410.9681Z" transform="translate(-86.34633 -358.39803)"/><path class="cls-3" d="M154.8884,417.7621v-.0017h-.0201c-.1366-.0124-.2687-.0283-.3954-.047v-.0051h-.032q-.1446-.0222-.2795-.0485v-.0034h-.0171a7.17565,7.17565,0,0,1-.9195-.2466,2.51915,2.51915,0,0,1-.0499-.3532v-.231h-.0074c.0003-.0519.002-.1038.0048-.1556h.0026v-.042c.0082-.125.023-.2497.0431-.3736h.0088v-.053c.0076-.0445.0158-.089.0249-.1332.0082-.042.0173-.0837.0269-.1253h0v-.0003a4.48125,4.48125,0,0,1,.1528-.5188h.0032v-.0085c.0308-.0847.0643-.1686.1003-.2511h.0034v-.0077q.0681-.15465.1491-.3038h.0068v-.0128c.0167-.0306.0337-.0609.0513-.0913h.0006v-.0005c.0623-.1069.1295-.2109.2021-.311h.0054v-.0077q.09525-.1305.2015-.252h.0063v-.007c.0161-.0185.0326-.0366.0493-.0547.0297-.0324.0604-.0635.0913-.0939h.0153v-.0147c.0127-.0128.0258-.025.0391-.0371h.0127v-.0117l.0451-.0405h.0068v-.0057q.09315-.08025.1913-.1499h.0165v-.0116c.0465-.0324.0938-.0633.142-.0922h.0136v-.0082c.0255-.015.051-.0298.0765-.0439h.0275v-.0148c.0239-.0127.0477-.0249.072-.0371h.0318v-.0156c.0261-.0125.0524-.0247.0791-.0363h.0246v-.0108c.0338-.0144.0675-.028.1015-.0411H155.2v-.0008c.0476-.0184.0955-.0354.1443-.051h.0113v-.0037q.0825-.0264.1667-.0482h.0411v-.0105c.064-.0156.1284-.0295.1936-.0417h.0141v-.0022a3.82335,3.82335,0,0,1,.3895-.0496h.1817v-.01q.11265-.00375.2262-.0025c.1137.0014.2288.0057.345.011v.0015h.0352a3.58089,3.58089,0,0,0,2.239-.341c.7816-.5233.9743-1.5299,1.3573-2.4109h.0031v-.0071a3.60559,3.60559,0,0,1,.4107-.7313,3.03044,3.03044,0,0,1,.2092-.2483h.0031v-.0032l.0471-.0487h.0048v-.0051l.0476-.0468h.0046v-.0042c.0167-.0162.0337-.0321.0507-.0477h.0012v-.0008a2.97862,2.97862,0,0,1,.2522-.2069h.0074v-.0054a3.15446,3.15446,0,0,1,.413-.2543h.0023v-.0011c.034-.0176.0683-.0346.1026-.0508h.0011v-.0005a3.49991,3.49991,0,0,1,.3898-.1554h.0258v-.0082q.07185-.0234.1446-.0437h.011v-.0031c.0655-.0178.1313-.0343.1976-.0487h.0102v-.0023q.13695-.0294.2758-.0496h.0357v-.0048a4.48859,4.48859,0,0,1,1.1943.002v.0028h.0218q.1458.01995.2897.0493v.0026h.0125c.1094.0226.2179.0487.3245.0791.0561.0158.1131.0331.1693.0501.0394.0131.079.0255.1184.0391q.05145.0171.1024.0355v.0039h.0105q.1254.04515.2491.0956v.0082h.0199q.12075.0498.2398.1035v.0005h.0008q.07665.0345.1522.0706c.1313.0621.2608.1276.3895.1962.059.0311.3246.1808.3493.1947q-.20205.34185-.4204.6806h-.0043v.0065q-.048.07485-.0975.1494h-.0062v.0097l-.0972.1462h-.0069v.0097q-.10155.15135-.2072.3018h-.0002v.0003q-.20115.2871-.4153.5709h-.0003v.0003q-.16755.222-.343.4419l-.0201.025h-.0003v.0003c-.0845.1051-.1692.2092-.2548.3112h-.0049v.006l-.0388.0459h-.013v.0159q-.12675.15-.2546.2956h-.0051v.006l-.0402.0462h-.0117v.013q-.2304.26025-.4654.506h-.002v.002l-.0476.0501h-.0043v.0046l-.0459.0473h-.0059v.006l-.0448.0459h-.0071v.0074l-.0437.0445h-.0082v.0085l-.0434.0433h-.0088v.0088l-.0428.0434h-.009v.0091l-.0431.0428h-.0088v.0085l-.0439.0433h-.008v.008l-.0448.0439h-.007v.0068l-.0468.0451h-.0051v.0051l-.0488.0468h-.0034v.0034l-.051.0487h-.0009v.0006q-.2244.213-.4524.4147h-.0147v.013l-.0439.0389h-.0083v.0071l-.0518.0447q-.1212.10545-.2438.2078h-.0159v.0131l-.0468.0388h-.0051v.0043q-.25725.21255-.5184.4113h-.0009v.0002q-.0684.05235-.1372.1035h-.0184v.0136l-.0516.0383h-.0003v.0003q-.071.0522-.1425.1037h-.0134v.0097c-.0689.0493-.138.0977-.2072.1459h-.0005v.0003q-.15225.1059-.3059.2075h-.0057v.0037q-.0765.05055-.1536.1001h-.002v.0014q-.1221.0786-.2446.1545h-.0151v.009c-.0515.0321-.1034.0635-.1553.0947h-.0006v.0003q-.4107.2475-.8305.4672h0l-.1004.0518h-.0036v.002c-.0326.0167-.0652.0335-.0981.0499h-.0057v.0028c-.0326.0165-.0649.0329-.0975.0491h-.0065v.0031l-.0989.0487h-.0049v.0026l-.1026.0496h-.0011v.0006q-.22365.1071-.4496.2069h-.0178v.0079l-.1004.044h-.0034v.0017c-.0802.0346-.1607.0689-.2412.1023h-.0185v.0077q-.5382.22275-1.0879.4076h-.0025v.0008q-.07665.02595-.1537.0511h-.002v.0008q-.4281.13995-.8628.2588h-.0199v.0054c-.1247.0343-.2497.0669-.3753.0986h-.0402v.0102l-.0114.0029c-.0728.0048-.1462.0082-.2208.0108A6.77177,6.77177,0,0,1,154.8884,417.7621Z" transform="translate(-86.34633 -358.39803)"/><path class="cls-4" d="M95.6424,422.7982v-.0012h-.002c-.034-.0167-.0681-.0334-.1018-.0504v-.0014h-.0031q-.05055-.0252-.1006-.0508v-.0011h-.0026l-.1015-.0519v-.0003h-.0002q-.34155-.1752-.6747-.3631v-.0003h-.0003c-.0867-.049-.1735-.0983-.2593-.1485v-.0071h-.0122q-.1242-.07305-.2475-.1477v-.0082h-.0133q-.12375-.07485-.2464-.1519v-.0037H93.871q-.0753-.04725-.1497-.0953v-.0087h-.0139q-.22875-.14715-.4535-.3002v-.0114h-.0162q-.07-.048-.1394-.0966v-.0071h-.0105c-.0488-.0343-.097-.0686-.1454-.1032v-.0009h-.0012l-.0507-.036v-.0158h-.0218c-.0448-.0323-.0893-.0649-.1341-.0978v-.006h-.0082c-.0669-.0493-.1333-.0986-.1993-.1488v-.0071H92.518q-.0999-.0756-.1987-.1531v-.0025h-.0034c-.0862-.0672-.1715-.1355-.2562-.2041v-.0037h-.0046q-.1548-.12585-.307-.2551v-.0045h-.0054l-.0464-.0394v-.0125h-.0145l-.0374-.032v-.0199h-.0227q-.1458-.1263-.2888-.2557v-.0039h-.0046l-.0476-.0437v-.0082h-.0091q-.45285-.4146-.8736-.8589v-.0238h-.0227l-.0292-.0315v-.0204h-.019l-.0329-.0357v-.0165h-.0153l-.0365-.0394v-.0124h-.0117l-.0402-.0445v-.0074h-.0068l-.0454-.0499v-.002h-.0017q-.15735-.17475-.3098-.354v-.0094h-.0079l-.044-.0516v-.0005h-.0003q-.07815-.09315-.1553-.188v-.0195h-.0162l-.0357-.0445v-.0074h-.0062c-.0502-.0627-.1003-.1256-.1497-.1891v-.0187h-.0147c-.0125-.0159-.025-.0317-.0371-.0479v-.004h-.0032c-.034-.0439-.0674-.0878-.1009-.1321v-.0238h-.0178l-.0341-.0456v-.0062h-.0045q-.0765-.1029-.1511-.207v-.0008h-.0008c-.106-.1477-.2101-.2974-.3107-.4487v-.0185h-.0125c-.0309-.0465-.0612-.0932-.0915-.14v-.0159h-.0102q-.04725-.07305-.0936-.1471v-.0085h-.0054l-.0465-.0743v-.0297h-.0184c-.0286-.0465-.0572-.093-.0856-.1401v-.0155h-.0091c-.0498-.0831-.0983-.1664-.1465-.2503v-.0094h-.0054q-.13095-.2292-.2543-.4635v-.0039h-.0022c-.0168-.0321-.0332-.0641-.0496-.0961v-.0077h-.004c-.0162-.0312-.032-.0623-.0479-.0938v-.0102h-.0051c-.0159-.0312-.0315-.0627-.0471-.0941v-.0097h-.0045c-.0159-.032-.0318-.0637-.0473-.0958v-.0079h-.004c-.0162-.0337-.0318-.0675-.0479-.1012v-.0028h-.0011q-.10725-.2259-.2067-.4561v-.0111h-.0048q-.1059-.24615-.2027-.4975v-.0218h-.0082c-.0148-.0383-.0295-.0765-.0437-.1148v-.0411h-.0156l-.0365-.1009v-.0547h-.0196c-.011-.0304-.0215-.0607-.0323-.0913v-.0125h-.0042q-.0243-.0693-.0477-.1386v-.0173H87.069c-.0156-.0468-.0309-.0941-.0459-.1411v-.0145h-.0049c-.0158-.0499-.0314-.1001-.047-.1502v-.0057h-.002c-.0119-.0386-.0238-.0768-.0354-.1154.2914-.0995,1.4159-.333,1.5375-.3523.1593-.0253.3192-.0423.4787-.0516h.15v-.0063q.13005-.0033.2597-.0005v.0068h.1768q.25.0144.4981.0516v.0003h.002q.12915.0195.2576.0445v.0076h.0363c.0749.015.1491.0318.2234.0496v.0023h.0088q.1785.04335.3546.0981v.0056h.019c.0456.0142.0913.0292.1369.0445v.0074h.0224c.0445.0153.089.0306.1332.0468v.0051h.0142q.2559.0939.5051.2078h0c.0349.0158.0695.032.1038.0482v.0036h.0076l.0964.0468v.0054h.0102c.0312.0153.0624.0312.0936.0473v.0046h.0087c.0321.0164.0635.0329.095.0496v.0022h.004q.1824.0975.3597.2044v.0034h.0054c.2123.1284.4186.267.6176.4133v.002h.0026q.26745.19725.5167.4124v.0029h.0032l.0487.0425v.0096h.0108c.1134.0998.2236.2024.3302.3067q.22845.22365.4377.4661v.0059h.0054q.13095.15135.2543.3096v.0019h.0017q.0786.1008.1542.2036v.0042h.0031c.0363.0496.0723.0998.1074.15.0329.047.0652.0946.0972.1423v.0192h.0128c.0306.0465.0612.093.091.1401v.0159h.0099c.0142.0221.0281.0445.042.0668v.0369h.0226l.0292.0479v.004h.0026c.0167.0278.0332.0552.0493.0833v.0207h.0125l.0397.0686v.0352h.0198l.032.0566v.0471h.0258l.0261.0479v.004h.0023l.0496.0938v.0102h.0054c.0156.0301.0312.0604.0465.0907v.0131h.0068q.04965.099.0972.1989v.0088h.004l.0479.1032v.0006h.0003c.0175.0385.0345.0768.0515.1156v.0403h.0176c.0116.0266.023.0536.0343.0805v.0232h.0099c.0142.0343.0284.0686.042.1032v.0527h.0212l.0309.0791v.0766h.029l.0229.0626v.0414h.0148c.0127.0349.0249.07.0371.1054v.0502h.0173q.0753.22365.1386.451v.0164H96.27q.0246.0894.0476.1792v.0805h.0198q.01665.0681.032.1366v.1228h.0267c.0088.0414.0173.0827.0252.1241v.1355h.0253c.0093.0528.0184.1058.0266.1585v.0493h.0077q.0255.1671.0442.3348v.1845h.0184a7.98178,7.98178,0,0,1,.0221,1.1137c-.0059.1327-.1738,1.7745-.1613,1.8908Q96.01955,422.98375,95.6424,422.7982Z" transform="translate(-86.34633 -358.39803)"/><path class="cls-5" d="M104.0542,424.8754v-.0014h-.059q-.38565-.0102-.7719-.036v-.0159h-.2185q-.2802-.02205-.5601-.0519h-.0003q-.18165-.0195-.3634-.0425v-.0093h-.0757q-.14415-.01875-.2877-.0397v-.0125h-.0842q-.13995-.02085-.2792-.0434v-.0085h-.0516q-.2862-.04755-.5715-.1032v-.0005h-.0025q-.1029-.02-.2053-.0414v-.0105h-.0518c-.0692-.0144-.1386-.0295-.2078-.0448v-.0073h-.0326c-.0584-.0128-.1168-.0258-.1749-.0395v-.0124h-.053c-.0689-.0162-.1381-.0323-.2067-.0493v-.0026h-.0107q-.0987-.0243-.197-.0496v-.0023h-.0094q-.09945-.0255-.1984-.0518h-.0006q-.18195-.0486-.3628-.1007v-.0034h-.0114c-.0482-.0136-.0963-.0278-.1445-.0419v-.01h-.0335l-.1222-.0365v-.0153h-.0493q-.0795-.0243-.1584-.0493v-.0026H98.49c-.0493-.0156-.0983-.0312-.1474-.0473v-.0046h-.0147q-.0705-.02295-.1412-.0465v-.0053h-.0164l-.1392-.0471v-.0051h-.0144q-.2799-.0957-.5568-.2001v-.0074h-.0204c-.045-.0173-.0904-.0343-.1355-.0519v-.0003h-.0005c-.0346-.013-.0689-.0263-.1032-.0399v-.0119H97.17c-.042-.0165-.084-.0329-.1256-.0496v-.0023H97.039c-.0329-.013-.0658-.0264-.0984-.0397v-.0122h-.0297q-.11535-.0471-.2299-.0955v-.0082h-.0196q-.1203-.05145-.2401-.1038v-.0003H96.421q-.3933-.173-.7786-.3622v-.0012h-.002l-.1018-.0504v-.0014h-.0031q-.05055-.0252-.1006-.0508v-.0011H95.432l-.0096-.0051-.0397-.0425v-.0046H95.379l-.0153-.0175a1.13893,1.13893,0,0,1-.0847-.1134v-.0247h-.0151a.91737.91737,0,0,1-.0887-.1922v-.0156h-.0051a.93291.93291,0,0,1-.0023-.5193h.0074v-.0258a1.26947,1.26947,0,0,1,.0459-.1298h.006v-.0147c.0127-.0298.0269-.0596.0422-.0893h.0097v-.019q.023-.0426.0484-.0848h.0034v-.0056a1.74931,1.74931,0,0,1,.1035-.15h.0006v-.0008a2.29251,2.29251,0,0,1,.5626-.5185h.0085v-.0057a1.89908,1.89908,0,0,1,.4142-.2052,1.67608,1.67608,0,0,1,.1752-.0488h.0856v-.0167a1.96519,1.96519,0,0,1,.8827.0686h.0003c.0521.0153.104.032.1553.0505v.0014h.0048c.0856.0306.1707.0649.2549.1023v.0017h.0039q.05025.0222.1001.0459v.006h.0127q.06255.0297.1242.0612.0867.04425.1746.0927v.0017h.0034a3.32951,3.32951,0,0,0,1.5937.5993,1.54918,1.54918,0,0,0,.4305-.0769,3.66392,3.66392,0,0,0,.6704-.3146h.002v-.0011a5.80114,5.80114,0,0,1,.5874-.3031c.0504-.0212.1017-.0411.1536-.0592h.038v-.013c.0411-.0139.0825-.027.1244-.0389h.0312v-.0091c.0584-.0158.1171-.0303.1763-.043h.0315v-.0066q.1446-.02925.292-.0453h.1754v-.0145c.1072-.0059.2149-.0071.3217-.0031q.0732.00255.1455.008v.0096h.1091q.15435.0162.3064.0448v.0071h.0377q.1119.022.222.0507v.0014h.0056q.0753.01965.15.0417v.0102h.0329c.0411.0128.0822.0261.123.04v.0119h.0346c.0405.0141.0808.0292.121.0445v.0073h.0196q.1212.04725.2401.1012v.0029h.0056c.0329.0147.0658.03.0981.0459v.0059h.0125c.0306.0148.0609.0301.0916.0457v.0062h.0121c.0307.0156.0613.0318.0916.0482v.0037h.0071a5.98257,5.98257,0,0,1,.7719.5012q.10545.08025.2075.1644v.0093h.0116q.181.15015.352.3104v.0012h.0012c.0346.0326.0689.0651.1026.098v.006h.0062l.0457.0448v.0071h.0073l.0445.0447v.0071h.0074l.0448.0457v.0062h.0062l.0457.0473v.0049h.0045l.0474.0499v.0019h.0017q.10155.1077.1975.2169c.038.0431.0754.0862.1123.1301v.0164h.0139l.038.0454v.0065h.0053c.0332.04.0661.0805.0987.1211v.0348h.0275l.0244.0309v.021h.0161l.0357.0462v.0057h.0043l.0476.0629v.0408h.0306l.0213.0295v.0227h.0167l.0352.049v.0028h.0019c.017.0236.0335.0471.0502.0709v.0329h.0227l.0292.0428v.0091h.0062l.0457.0683v.0357h.0232l.0286.0442v.0077h.0049c.0337.0524.0663.1051.0986.1581.0269.0448.3623.7036.3767.7535q-.05955.01185-.119.023h-.1534v.0283c-.0448.0079-.0896.0159-.1343.0235h-.1772v.0298c-.0468.0076-.0938.015-.1406.0221h-.1709v.0255q-.095.0141-.1897.0267h-.1219v.0158c-.1012.0128-.2021.0247-.3036.036h-.0079v.0009q-.26835.02925-.538.051h-.5006v.0332q-.23565.0123-.4723.0187h-.7738v.0045c-.0366-.0005-.0732-.0011-.1097-.002Z" transform="translate(-86.34633 -358.39803)"/><path class="cls-6" d="M123.7337,364.6451v-.0037h-.0584q-.25725-.01485-.5128-.0498v-.002h-.0139q-.14925-.02085-.2976-.0479v-.004h-.0201q-.225-.04215-.4473-.0989v-.0048h-.019c-.0632-.0165-.1259-.0338-.1888-.0519h-.0006q-.07785-.0225-.155-.0465v-.0057h-.0171q-.14835-.04635-.2945-.0989v-.0048h-.013a8.10215,8.10215,0,0,1-1.2331-.5704v-.0008h-.0014q-.1305-.07395-.2582-.1528v-.0031h-.0051q-.23565-.145-.4624-.3053v-.0062h-.0088a8.869,8.869,0,0,1-.718-.5661v-.0051h-.0059a8.94859,8.94859,0,0,1-.8249-.8241v-.0065h-.006a8.59429,8.59429,0,0,1-.8767-1.1902v-.004h-.0026q-.09015-.14805-.1729-.2988l-.0323-.0589v-.006h-.0031c-.0165-.0303-.0329-.0609-.0488-.0916v-.0121h-.0065c-.0153-.0295-.0303-.059-.0453-.0888v-.015h-.0077l-.0445-.0893v-.0147h-.0071l-.0448-.0936v-.0102h-.0048q-.02385-.051-.047-.102v-.002h-.0009q-.05955-.13185-.1148-.2656a8.72811,8.72811,0,0,1-.2724-.9805h.1369q.30735.02085.6146.0482v.0037h.0442c.1411.013.2823.0266.4232.0416v.0105h.0961c.1066.0116.2129.0235.3192.0363v.0156h.1247q.1713.0213.3427.0448v.0071h.0507q.3126.04335.6242.0938v.0099h.0627c.083.0136.1661.0278.2489.042v.0099h.0569c.0678.0119.1352.0241.2027.0363v.0158h.0856q.1131.02085.2259.0429v.009h.0471q.10635.02085.2126.0425v.0094h.0459q.3414.0702.6812.1485v.0074h.0317c.0587.0136.1174.0272.1758.0414v.0105h.0442c.0544.013.1091.0263.1636.0399v.0119h.0484c.053.0131.1063.0267.1593.04v.0119h.0462q.08085.02085.1616.042v.0099h.0377c.0567.015.1134.03.1698.0456v.0063h.0238c.0612.0167.1228.0337.184.0507v.0014h.0042q.5205.1455,1.0341.3107v.0009h.0023c.0513.0164.1026.0328.1536.0496v.0022h.0065l.1494.0496v.0023h.0071q.0744.025.1485.0505v.0014h.0046q.49485.1692.9819.3566v.0068h.0187q.12075.0468.241.0944v.0096h.0238q.1182.0468.2358.095v.0088h.0216l.0824.0337v.0181h.0434l.1123.0471v.0051h.0119c.0309.0127.0615.0258.0921.0388v.0131h.03q.1149.0489.2294.0992v.0045h.0107c.0312.0136.0621.0275.0933.0414v.0105h.0238q.3279.1458.6511.2999v.0116h.0241l.0797.0386v.0133h.028l.076.0371v.015h.0306l.0732.036v.0159h.0323l.0717.0357v.0162h.032l.0717.036v.0159h.0318l.072.0368v.015h.0295l.0745.0383v.0139h.0267l.0771.0403v.0116h.0224c.0272.0141.0544.0283.0813.0428v.009h.0173l.0867.046v.0059h.0108c.0312.0165.0621.0332.093.0499v.002h.0037q.2334.12585.4637.2565v.0031h.0054c.085.0482.1698.0973.254.1466v.0094h.0162c.0291.017.0586.034.0878.0513v.0005h.0009c.0518.0304.1034.0613.1547.0922v.0116h.0199l.0093.0056q-.0888.10215-.1808.2022h-.004v.0042l-.0442.0476h-.0076v.0083q-.19695.21-.4063.4073h-.0093v.0085l-.0465.0434h-.0054v.0048l-.0516.047h-.0003v.0003a7.057,7.057,0,0,1-.7188.5709h-.0082v.0057q-.1956.1344-.4017.254h-.0136v.0076q-.16965.09735-.3464.1834c-.0882.0428-.1769.0825-.2659.1205h-.0108v.0045c-.0825.0352-.1649.0683-.248.0992h-.0116v.0043c-.097.036-.1939.0692-.2914.0998h-.0202v.0062c-.0515.0162-.1034.0312-.1553.0457h-.0006q-.09945.0276-.1992.0518h-.0083v.002q-.2652.0633-.5317.1018h-.0394v.0054q-.23475.0327-.4695.0464h-.2057v.0088C124.0449,364.6542,123.889,364.6528,123.7337,364.6451Z" transform="translate(-86.34633 -358.39803)"/><path class="cls-7" d="M132.7686,369.1281v-.021h-.2197q-.12465-.0156-.2478-.0388v-.013h-.0677c-.0468-.0097-.0936-.0202-.14-.0315v-.0207h-.0817q-.0633-.0165-.1258-.0351v-.0168h-.0548q-.077-.02415-.153-.0513v-.0005h-.002c-.087-.0312-.1732-.0652-.2577-.1021v-.0017h-.0037c-.0337-.0147-.0669-.03-.1-.0456v-.0065h-.0136c-.0304-.0142-.0604-.0289-.0905-.0443v-.0076h-.0147c-.0298-.0153-.0595-.0309-.089-.0471v-.0048h-.0088c-.087-.0476-.1721-.0986-.2545-.1525-.0513-.0337-.1024-.0689-.152-.1054v-.0017h-.0022a2.06133,2.06133,0,0,1-.5525-.58,1.32386,1.32386,0,0,1-.0686-.1298v-.017h-.0071a1.17119,1.17119,0,0,1-.0967-.4153v-.104h-.0008a2.32965,2.32965,0,0,1,.1017-.5712h.0029v-.0102a2.44831,2.44831,0,0,0,.1783-1.5222c-.2072-.5845-.9544-.7113-1.5027-1.0001a1.92792,1.92792,0,0,1-.1814-.1086v-.0071h-.0105a2.0262,2.0262,0,0,1-.197-.1542v-.0017h-.002c-.017-.0147-.0337-.03-.0501-.0456v-.0062h-.0063c-.0156-.0148-.0306-.0295-.0456-.0448v-.0071h-.0071a2.2869,2.2869,0,0,1-.5122-.8289v-.0019h-.0006a2.31987,2.31987,0,0,1-.1032-.4023v-.013h-.0019a2.13879,2.13879,0,0,1,0-.6752h.0019v-.0122c.0094-.0544.0207-.1086.0343-.1624l.0176.0093v.0096h.0182l.0858.0457v.0062h.0117l.0921.0493v.0026h.0048q.23265.12585.4626.2562v.0034h.006c.085.0482.1692.097.2534.146v.01h.017c.0289.017.0581.0337.087.051v.0008h.0014q.0774.0456.1542.0916v.0122h.0205l.0836.0504v.0015h.0022l.0497.03v.0221h.0357l.068.0417v.0102h.0167c.0465.0286.0927.0575.1392.0864v.0173h.0275l.0763.0482v.0037h.0059q.0753.0477.15.0958v.0082h.0124q.3087.1986.6106.4068v.0085h.0125q.07185.04935.1431.0995v.0043h.0066l.0456.0323v.0198h.0281l.1275.0907v.0131h.0184c.046.0328.0916.066.1375.0995v.0042h.006l.0459.0337v.0182h.0252c.0437.0323.087.0646.1304.0969v.0071h.0097q.09945.074.1981.1494v.0062h.0082c.0669.0511.1332.1024.1996.154v.0019h.0022q.1293.1008.2574.2039v.0039h.0048q.15435.1242.3068.2509v.0088h.0104l.0414.0346v.0173h.0204l.0315.0263v.0255h.0303q.08895.0753.1775.1517v.0039h.0045l.0474.0412v.011h.0124l.0394.034v.0179h.0202l.0317.0278v.0241h.0275c.0952.0841.1902.1692.284.2551v.0045h.0049l.0473.0434v.0085h.0093q.5031.46305.9771.9567v.0297h.0284l.0235.0247v.0275h.0261l.0258.0272v.0247h.0232l.0287.0303v.0215h.0204l.0317.0341v.0178h.0168l.0351.038v.0139h.013l.0389.0422v.0097h.0088l.0431.047v.0051h.0045q.0795.08685.1582.1749c.0674.0757.1346.1522.2007.2293v.0111h.0096l.0425.0499v.002h.0017q.07785.09135.1539.1834v.0244h.0202l.0317.0385v.0133h.0111l.0411.0502v.0017h.0011q.07785.0957.1545.1925v.0153h.0122l.0397.0504v.0015h.0011c.0519.0663.1035.1326.1548.1995v.0082h.0062q.1548.2025.3053.4088v.0065h.0048c.0357.049.0714.0984.1069.1477a11.34334,11.34334,0,0,1-1.2991.6676l-.0445.0155h-.0142v.0049q-.0753.0255-.1514.047h-.0564v.0156c-.0499.0133-.1001.0255-.1502.0366h-.1095v.0218q-.0951.01785-.1916.03h-.068v.008A3.78307,3.78307,0,0,1,132.7686,369.1281Z" transform="translate(-86.34633 -358.39803)"/><path class="cls-8" d="M144.8351,387.4697l.0017-.002v-.0417C144.8368,387.4124,144.8362,387.4586,144.8351,387.4697Z" transform="translate(-86.34633 -358.39803)"/><path class="cls-9" d="M122.9264,398.389v-.6627a6.54143,6.54143,0,0,1,.4144-2.5135,5.63968,5.63968,0,0,1,1.0219-1.6296c.4142-.4144.8011-.8011,1.2152-1.1602a5.94337,5.94337,0,0,0,1.0219-1.0219,2.00368,2.00368,0,0,0,.4144-1.2705,1.88332,1.88332,0,0,0-1.4085-2.0716,4.75915,4.75915,0,0,0-1.4363-.1933,6.57235,6.57235,0,0,0-2.1821.3592,6.3211,6.3211,0,0,0-1.823.9666v-3.1213a6.832,6.832,0,0,1,1.0222-.5247,8.86,8.86,0,0,1,1.5741-.4972,8.17628,8.17628,0,0,1,1.8782-.1933,7.03884,7.03884,0,0,1,2.3754.3592,5.11181,5.11181,0,0,1,1.7955,1.0771,4.96413,4.96413,0,0,1,1.1047,1.685,5.87584,5.87584,0,0,1,.3591,2.1543,4.04916,4.04916,0,0,1-.4144,1.961,4.98815,4.98815,0,0,1-1.0219,1.3535c-.4144.3867-.8011.7733-1.2152,1.1322a5.323,5.323,0,0,0-1.0222,1.326,3.93735,3.93735,0,0,0-.4141,1.9333v.5524Zm-.1933,5.1098V400.35h3.6459v3.1488Z" transform="translate(-86.34633 -358.39803)"/></svg>