<svg id="Warstwa_1" data-name="Warstwa 1" xmlns="http://www.w3.org/2000/svg" xmlns:xlink="http://www.w3.org/1999/xlink" viewBox="0 0 86.27609 66.48255"><defs><style>.cls-1,.cls-10,.cls-11,.cls-12,.cls-14,.cls-15,.cls-16,.cls-17,.cls-19,.cls-2,.cls-20,.cls-21,.cls-22,.cls-23,.cls-24,.cls-25,.cls-26,.cls-27,.cls-3,.cls-30,.cls-31,.cls-32,.cls-34,.cls-35,.cls-36,.cls-37,.cls-38,.cls-39,.cls-4,.cls-43,.cls-44,.cls-45,.cls-46,.cls-5,.cls-6,.cls-7,.cls-8,.cls-9{fill-rule:evenodd;}.cls-1{fill:url(#GradientFill_1);}.cls-2{fill:url(#GradientFill_3);}.cls-3{fill:url(#GradientFill_1-2);}.cls-4{fill:url(#GradientFill_1-3);}.cls-5{fill:url(#GradientFill_1-4);}.cls-6{fill:url(#GradientFill_1-5);}.cls-7{fill:url(#GradientFill_1-6);}.cls-8{fill:url(#GradientFill_1-7);}.cls-9{fill:url(#GradientFill_1-8);}.cls-10{fill:url(#GradientFill_5);}.cls-11{fill:#e1e1e6;}.cls-12{fill:#fff;}.cls-13{fill:url(#GradientFill_1-9);}.cls-14{fill:url(#GradientFill_19);}.cls-15{fill:url(#GradientFill_14);}.cls-16{fill:url(#GradientFill_15);}.cls-17{fill:url(#GradientFill_2);}.cls-18{fill:url(#GradientFill_9);}.cls-19{fill:url(#GradientFill_9-2);}.cls-20{fill:url(#GradientFill_9-3);}.cls-21{fill:url(#GradientFill_9-4);}.cls-22{fill:url(#GradientFill_9-5);}.cls-23{fill:url(#GradientFill_9-6);}.cls-24{fill:url(#GradientFill_9-7);}.cls-25{fill:url(#GradientFill_9-8);}.cls-26{fill:url(#GradientFill_9-9);}.cls-27{fill:url(#GradientFill_9-10);}.cls-28{fill:url(#GradientFill_19-2);}.cls-29{fill:url(#GradientFill_2-2);}.cls-30,.cls-31,.cls-32{stroke:#c5c6c6;stroke-miterlimit:22.9256;stroke-width:0.216px;}.cls-30{fill:url(#GradientFill_19-3);}.cls-31{fill:url(#GradientFill_19-4);}.cls-32{fill:url(#GradientFill_19-5);}.cls-33{fill:url(#GradientFill_19-6);}.cls-34{fill:#fcd100;}.cls-35{fill:url(#GradientFill_4);}.cls-36{fill:url(#GradientFill_16);}.cls-37{fill:url(#GradientFill_17);}.cls-38{fill:url(#GradientFill_18);}.cls-39{fill:#7c7f82;}.cls-40{fill:url(#GradientFill_5-2);}.cls-41{fill:url(#GradientFill_5-3);}.cls-42{fill:url(#GradientFill_5-4);}.cls-43{fill:url(#GradientFill_7);}.cls-44{fill:#ffd523;}.cls-45{fill:#fc0;}.cls-46{fill:#fedf60;}</style><linearGradient id="GradientFill_1" x1="118.06828" y1="237.07116" x2="140.52534" y2="192.23326" gradientUnits="userSpaceOnUse"><stop offset="0" stop-color="#393a90"/><stop offset="1" stop-color="#392483"/></linearGradient><linearGradient id="GradientFill_3" x1="167.74144" y1="221.2092" x2="172.31505" y2="221.2092" gradientUnits="userSpaceOnUse"><stop offset="0" stop-color="#55227e"/><stop offset="0.26191" stop-color="#4f4d94"/><stop offset="0.7675" stop-color="#439cbc"/><stop offset="1" stop-color="#3ebbcc"/></linearGradient><linearGradient id="GradientFill_1-2" x1="160.95926" y1="232.69957" x2="164.58564" y2="224.15776" xlink:href="#GradientFill_1"/><linearGradient id="GradientFill_1-3" x1="94.10242" y1="234.09076" x2="96.5674" y2="230.47739" xlink:href="#GradientFill_1"/><linearGradient id="GradientFill_1-4" x1="104.3905" y1="239.20847" x2="105.0828" y2="236.03853" xlink:href="#GradientFill_1"/><linearGradient id="GradientFill_1-5" x1="110.08196" y1="194.76336" x2="112.70812" y2="187.84536" xlink:href="#GradientFill_1"/><linearGradient id="GradientFill_1-6" x1="124.6749" y1="178.70892" x2="125.70953" y2="175.38404" xlink:href="#GradientFill_1"/><linearGradient id="GradientFill_1-7" x1="133.12652" y1="182.52125" x2="134.75928" y2="179.78442" xlink:href="#GradientFill_1"/><linearGradient id="GradientFill_1-8" x1="107.93711" y1="203.79588" x2="109.17124" y2="198.79759" xlink:href="#GradientFill_1"/><linearGradient id="GradientFill_5" x1="135.62645" y1="242.69298" x2="135.62645" y2="233.02239" gradientUnits="userSpaceOnUse"><stop offset="0" stop-color="#9b9b9d"/><stop offset="1" stop-color="#d1d1d2"/></linearGradient><linearGradient id="GradientFill_1-9" x1="45.26627" y1="58.97075" x2="53.92291" y2="34.57983" xlink:href="#GradientFill_1"/><linearGradient id="GradientFill_19" x1="137.2371" y1="240.46427" x2="137.2371" y2="215.10748" gradientUnits="userSpaceOnUse"><stop offset="0" stop-color="#e5e6e8"/><stop offset="1" stop-color="#fff"/></linearGradient><linearGradient id="GradientFill_14" x1="108.30672" y1="246.3278" x2="135.71633" y2="216.0015" gradientUnits="userSpaceOnUse"><stop offset="0" stop-color="#a5a7ab"/><stop offset="1" stop-color="#fff"/></linearGradient><linearGradient id="GradientFill_15" x1="144.9812" y1="200.10283" x2="156.08809" y2="201.55948" gradientUnits="userSpaceOnUse"><stop offset="0" stop-color="#a5a7ab"/><stop offset="0.83" stop-color="#fff"/><stop offset="1" stop-color="#fff"/></linearGradient><linearGradient id="GradientFill_2" x1="132.22437" y1="214.34133" x2="141.01414" y2="213.18115" gradientUnits="userSpaceOnUse"><stop offset="0" stop-color="#90ccb5"/><stop offset="1" stop-color="#29aa56"/></linearGradient><linearGradient id="GradientFill_9" x1="41.93085" y1="50.24843" x2="41.93085" y2="58.55306" gradientUnits="userSpaceOnUse"><stop offset="0" stop-color="#63b982"/><stop offset="1" stop-color="#33b5b4"/></linearGradient><linearGradient id="GradientFill_9-2" x1="126.48175" y1="223.79249" x2="126.48175" y2="232.09595" xlink:href="#GradientFill_9"/><linearGradient id="GradientFill_9-3" x1="129.4689" y1="223.79249" x2="129.4689" y2="232.09595" xlink:href="#GradientFill_9"/><linearGradient id="GradientFill_9-4" x1="127.89695" y1="223.79298" x2="127.89695" y2="232.09609" xlink:href="#GradientFill_9"/><linearGradient id="GradientFill_9-5" x1="130.88465" y1="223.79298" x2="130.88465" y2="232.09609" xlink:href="#GradientFill_9"/><linearGradient id="GradientFill_9-6" x1="126.399" y1="223.79068" x2="126.399" y2="232.09679" xlink:href="#GradientFill_9"/><linearGradient id="GradientFill_9-7" x1="131.28975" y1="223.79126" x2="131.28975" y2="232.09706" xlink:href="#GradientFill_9"/><linearGradient id="GradientFill_9-8" x1="128.89045" y1="223.79125" x2="128.89045" y2="232.09706" xlink:href="#GradientFill_9"/><linearGradient id="GradientFill_9-9" x1="127.1254" y1="223.79107" x2="127.1254" y2="232.09707" xlink:href="#GradientFill_9"/><linearGradient id="GradientFill_9-10" x1="130.22645" y1="223.79107" x2="130.22645" y2="232.09707" xlink:href="#GradientFill_9"/><linearGradient id="GradientFill_19-2" x1="112.07623" y1="201.479" x2="111.23053" y2="189.58898" gradientTransform="translate(13.74275 -7.41463) rotate(4.06869)" xlink:href="#GradientFill_19"/><linearGradient id="GradientFill_2-2" x1="3.4363" y1="44.4141" x2="31.19691" y2="32.00164" xlink:href="#GradientFill_2"/><linearGradient id="GradientFill_19-3" x1="13.55207" y1="46.51615" x2="13.52389" y2="39.44504" xlink:href="#GradientFill_19"/><linearGradient id="GradientFill_19-4" x1="16.15347" y1="45.12515" x2="16.12529" y2="38.05404" xlink:href="#GradientFill_19"/><linearGradient id="GradientFill_19-5" x1="18.63362" y1="43.61265" x2="18.60544" y2="36.54154" xlink:href="#GradientFill_19"/><linearGradient id="GradientFill_19-6" x1="124.62573" y1="188.9664" x2="125.42564" y2="201.70972" gradientTransform="translate(4.73082 -3.0341) rotate(1.4217)" xlink:href="#GradientFill_19"/><linearGradient id="GradientFill_4" x1="113.23354" y1="192.60296" x2="112.72527" y2="190.82884" gradientUnits="userSpaceOnUse"><stop offset="0" stop-color="#d1d1d2"/><stop offset="1" stop-color="#9b9b9d"/></linearGradient><linearGradient id="GradientFill_16" x1="103.44543" y1="213.20864" x2="105.34413" y2="207.95099" gradientUnits="userSpaceOnUse"><stop offset="0" stop-color="#fbe087"/><stop offset="0.13" stop-color="#fbba3c"/><stop offset="0.25" stop-color="#ef7d1f"/><stop offset="0.38" stop-color="#eb5d28"/><stop offset="0.5" stop-color="#e73831"/><stop offset="0.64" stop-color="#e72564"/><stop offset="0.82" stop-color="#6e3089"/><stop offset="1" stop-color="#454899"/></linearGradient><linearGradient id="GradientFill_17" x1="18.43463" y1="39.53212" x2="17.86565" y2="38.20338" gradientUnits="userSpaceOnUse"><stop offset="0" stop-color="#fc0"/><stop offset="1" stop-color="#c09a00"/></linearGradient><linearGradient id="GradientFill_18" x1="105.15852" y1="210.66783" x2="103.34279" y2="211.5667" gradientUnits="userSpaceOnUse"><stop offset="0" stop-color="#f0f1f2"/><stop offset="0.47923" stop-color="#d1d1d2"/><stop offset="1" stop-color="#b3b3b3"/></linearGradient><linearGradient id="GradientFill_5-2" x1="121.21516" y1="193.90966" x2="121.20049" y2="193.93812" gradientTransform="translate(237.94854 -2.72161) rotate(62.7025)" xlink:href="#GradientFill_5"/><linearGradient id="GradientFill_5-3" x1="121.01756" y1="194.29283" x2="120.99967" y2="194.32753" gradientTransform="translate(238.4006 -2.19884) rotate(62.76359)" xlink:href="#GradientFill_5"/><linearGradient id="GradientFill_5-4" x1="121.24927" y1="189.8993" x2="121.30098" y2="188.38852" gradientTransform="translate(238.0931 -2.50812) rotate(62.7091)" xlink:href="#GradientFill_5"/><linearGradient id="GradientFill_7" x1="116.16118" y1="192.57839" x2="120.95935" y2="195.05274" gradientUnits="userSpaceOnUse"><stop offset="0" stop-color="#ffde2f"/><stop offset="0.29" stop-color="#f39137"/><stop offset="0.65" stop-color="#e9444c"/><stop offset="1" stop-color="#e7287a"/></linearGradient></defs><title>offer-2</title><path class="cls-1" d="M96.5724,209.7065c-1.1373,2.7046-3.3522,4.4768-4.9192,6.8669a14.01547,14.01547,0,0,0-2.2904,8.3104c.4521,9.0652,9.2335,14.959,17.7378,15.1381a18.41442,18.41442,0,0,0,8.8619-2.0633c4.3679-2.2541,8.6241-5.1151,13.6194-5.7325,12.7941-1.5792,28.9474,6.8411,38.66-5.3167,8.8135-11.0319,2.3635-25.7201-10.3655-29.5781-4.1601-1.2603-9.1686-1.9967-12.6215-4.8297-3.4795-2.8559-5.07-7.4106-8.0255-10.7223-6.9034-7.7346-19.2687-10.2597-28.8779-6.5571-6.0633,2.336-9.6423,7.3437-10.6767,13.6312C96.5599,195.6297,99.2871,203.2489,96.5724,209.7065Z" transform="translate(-86.0323 -173.54343)"/><path class="cls-2" d="M168.533,226.1134v-.0099h-.0059a5.30217,5.30217,0,0,1-.3575-.7197v-.0071h-.0028c-.017-.0419-.0332-.0839-.0491-.1261v-.0298h-.011q-.0213-.05655-.0408-.1139v-.0417h-.0142q-.08205-.24315-.1417-.4932v-.0261h-.0063q-.0246-.10545-.0456-.2118v-.0479h-.0094c-.0158-.085-.0303-.1706-.0425-.2565v-.0031h-.0006q-.0357-.24705-.0516-.4972v-.1777h-.0087q-.00855-.23355-.0003-.4675h.009v-.191c.0103-.1616.0264-.3232.048-.4839h.0042v-.0301q.0195-.14115.0451-.2814h.0068v-.0369q.02085-.11175.0453-.2228h.0066v-.0298q.04365-.1938.0983-.3855h.0054v-.0192c.0133-.0457.0269-.0913.0411-.1367h.0111v-.0348c.0459-.1457.0969-.2903.1525-.4326h.0031v-.0079c.047-.1199.0972-.2387.1508-.3555h.0051v-.0108c.0142-.0312.0289-.0621.0436-.093h.0083v-.017c.026-.0538.0524-.1074.0799-.1607q.0348-.06765.0706-.1338h.0051v-.0093l.0519-.0947h.0002q.07365-.13275.1503-.2594h.0054v-.0088c.1315-.2165.2693-.4212.4116-.6145h.0036v-.0051q.07665-.10335.1545-.2024h.0014v-.002c.0839-.1072.1693-.2103.2552-.3095h.0045v-.0054l.0405-.0468h.0114v-.0128a8.906,8.906,0,0,1,1.1344-1.0774h.0079v-.0062a9.06445,9.06445,0,0,1,.8765-.6169h.0062v-.0039c.2311-.1429.4352-.2543.5987-.3374q-.00765.27435-.0246.5488h-.0029v.0462q-.0183.2883-.0465.5769h-.0054v.0524q-.0207.2076-.047.415h-.0048v.038q-.04425.3444-.1026.6888h-.0015v.0071q-.02115.1263-.045.2526h-.0068v.0368q-.0897.47535-.2072.9499h-.0006v.002q-.11565.46725-.2594.9326h-.0003v.0009q-.0237.07725-.0484.155h-.0034v.0099c-.0156.0485-.0312.0973-.0474.1457h-.0045v.0139q-.0234.0711-.0476.142h-.0043v.0125c-.0161.0479-.0329.0955-.0496.1432h-.0023v.007a17.86532,17.86532,0,0,1-.7256,1.7584H170.61v.0025c-.0159.034-.0324.0678-.0485.1015h-.0034v.0068l-.0471.097h-.0048v.0093l-.0471.0944h-.0048v.0102q-.19335.3861-.4079.7688h-.0076v.0136l-.0508.0901h-.0011v.002q-.267.46935-.5672.9326h-.004v.0065c-.0323.0499-.0649.0995-.0978.1494h-.0059v.0091l-.0162.0243c-.2134.2815-.4178.5313-.6038.7481l-.1136-.0224C168.5628,226.1631,168.548,226.1384,168.533,226.1134Z" transform="translate(-86.0323 -173.54343)"/><path class="cls-3" d="M157.8886,232.9075v-.0017h-.0201c-.1366-.0124-.2687-.0283-.3954-.047v-.0051h-.0321q-.14445-.0222-.2795-.0485v-.0034h-.017a7.17565,7.17565,0,0,1-.9195-.2466,2.50448,2.50448,0,0,1-.0499-.3532v-.231h-.0074c.0003-.0519.002-.1038.0048-.1557h.0026v-.0419c.0082-.125.0229-.2497.0431-.3736h.0088v-.053c.0076-.0445.0158-.089.0249-.1333.0082-.0419.0173-.0836.0269-.1252h0v-.0003a4.48125,4.48125,0,0,1,.1528-.5188h.0031v-.0085c.0309-.0847.0644-.1686.1004-.2511h.0034v-.0077q.06795-.1548.1491-.3039h.0068v-.0127c.0167-.0306.0337-.061.0513-.0913h.0006v-.0006c.0623-.1068.1295-.2108.2021-.3109h.0054v-.0077q.09525-.1305.2015-.252h.0062v-.0071c.0162-.0184.0326-.0365.0494-.0547.0297-.0323.0603-.0635.0912-.0938h.0153v-.0147c.0128-.0128.0258-.025.0392-.0372h.0127v-.0116l.0451-.0405h.0068v-.0057q.09315-.0804.1913-.1499h.0165v-.0117c.0465-.0323.0938-.0632.142-.0921h.0136v-.0082c.0255-.015.051-.0298.0765-.0439h.0275v-.0148c.0238-.0127.0477-.0249.072-.0371h.0318v-.0156c.0261-.0125.0524-.0247.0791-.0363h.0246v-.0108c.0338-.0144.0675-.028.1015-.0411h.0026v-.0008c.0476-.0184.0955-.0355.1442-.051h.0114v-.0037c.055-.0176.1105-.0338.1667-.0482h.0411v-.0105c.064-.0156.1284-.0295.1936-.0417h.0141v-.0022a3.82335,3.82335,0,0,1,.3895-.0496h.1817v-.01q.11265-.00375.2262-.0025c.1137.0014.2288.0056.345.011v.0015h.0352a3.58035,3.58035,0,0,0,2.239-.3411c.7815-.5232.9743-1.5298,1.3573-2.4108h.0031v-.0071a3.60559,3.60559,0,0,1,.4107-.7313,3.04893,3.04893,0,0,1,.2092-.2484h.0031v-.0031l.0471-.0487h.0048v-.0051l.0476-.0468h.0046v-.0043c.0167-.0161.0337-.032.0507-.0476h.0011v-.0008a3.01677,3.01677,0,0,1,.2523-.207h.0074v-.0053a3.14785,3.14785,0,0,1,.413-.2543h.0023v-.0012c.034-.0175.0683-.0345.1026-.0507h.0011v-.0006a3.511,3.511,0,0,1,.3898-.1553h.0258v-.0082q.07185-.0234.1445-.0437h.0111v-.0031c.0655-.0178.1312-.0343.1976-.0487h.0102v-.0023q.137-.0294.2758-.0496h.0357v-.0048a4.492,4.492,0,0,1,1.1942.0019v.0029h.0219q.1458.02.2897.0493v.0026h.0124c.1095.0226.218.0487.3246.079.0561.0159.1131.0332.1692.0502.0394.0131.0791.0255.1185.0391.0343.0114.0683.0233.1024.0355v.0039h.0104q.12555.04515.2492.0956v.0082h.0199q.12075.04965.2398.1034v.0006h.0008q.0765.0345.1522.0706c.1313.0621.2608.1276.3895.1962.059.0311.3246.1808.3492.1947q-.2019.34185-.4203.6806h-.0043v.0065q-.048.07485-.0975.1494h-.0062v.0096q-.04845.0732-.0973.1463h-.0068v.0096q-.10155.1515-.2072.3019h-.0003v.0003q-.201.2871-.4152.5709h-.0003v.0003q-.16755.222-.343.4419l-.0201.025h-.0003v.0002q-.12675.1578-.2549.3113h-.0048v.0059l-.0388.046h-.013v.0158q-.12675.15015-.2546.2957h-.0051v.0059l-.0403.0462h-.0116v.0131q-.2304.26025-.4654.506h-.002v.002l-.0476.0501h-.0043v.0046l-.0459.0473h-.006v.006l-.0447.0459h-.0071v.0073l-.0437.0446h-.0082v.0085l-.0434.0433h-.0088v.0088l-.0428.0434h-.009v.0091l-.0431.0428h-.0088v.0085l-.0439.0433h-.008v.008l-.0448.0439h-.0071v.0068l-.0467.0451h-.0051v.0051l-.0488.0468h-.0034v.0034l-.051.0487h-.0009v.0006q-.2244.213-.4524.4147h-.0147v.013l-.0439.0389h-.0083v.007c-.017.0151-.0346.0298-.0518.0448q-.1212.10545-.2438.2078h-.0159v.0131l-.0468.0388h-.0051v.0042q-.25725.2127-.5184.4113h-.0009v.0003q-.0684.05235-.1372.1035h-.0184v.0136l-.0516.0383h-.0003v.0003q-.071.0522-.1426.1037h-.0133v.0096c-.0689.0494-.138.0978-.2072.146h-.0006v.0003q-.1521.1059-.3058.2075h-.0057v.0037q-.0765.05055-.1536.1001h-.002v.0014q-.1221.0786-.2446.1545h-.0151v.009c-.0516.0321-.1034.0635-.1553.0947h-.0006v.0003q-.4107.2475-.8305.4671h0l-.1004.0519h-.0037v.002q-.04875.02505-.098.0499h-.0057v.0028c-.0326.0165-.0649.0329-.0975.0491h-.0065v.0031c-.0329.0164-.0658.0326-.099.0487h-.0048v.0026l-.1026.0496h-.0011v.0006q-.22365.1071-.4496.2069h-.0179v.0079l-.1003.044h-.0034v.0017c-.0802.0345-.1607.0688-.2412.1023h-.0185v.0076q-.5382.2229-1.0879.4077h-.0025v.0008q-.07665.02595-.1537.051h-.002v.0009q-.4281.13995-.8628.2588h-.0199v.0054c-.1247.0343-.2497.0669-.3753.0986h-.0402v.0102l-.0114.0029c-.0728.0048-.1462.0082-.2208.0107A6.7725,6.7725,0,0,1,157.8886,232.9075Z" transform="translate(-86.0323 -173.54343)"/><path class="cls-4" d="M98.6426,237.9436v-.0012h-.002c-.034-.0167-.0681-.0334-.1018-.0504v-.0014h-.0031q-.05055-.0252-.1006-.0508v-.0011h-.0026l-.1015-.0519v-.0003h-.0003q-.3414-.1752-.6746-.3631v-.0003h-.0003c-.0867-.049-.1735-.0983-.2594-.1485v-.0071h-.0121q-.1242-.0732-.2475-.1477v-.0082h-.0133q-.12375-.07485-.2464-.1519v-.0037h-.0059q-.0753-.04725-.1497-.0953v-.0088h-.0139q-.22875-.147-.4535-.3002v-.0113h-.0162q-.0702-.048-.1394-.0967v-.007H96.088c-.0488-.0343-.097-.0686-.1454-.1032v-.0009h-.0012l-.0507-.036v-.0158h-.0218c-.0448-.0324-.0893-.065-.1341-.0978v-.006h-.0082c-.0669-.0493-.1333-.0986-.1993-.1488v-.0071h-.0091q-.0999-.07575-.1987-.1531v-.0025h-.0034c-.0862-.0672-.1715-.1355-.2563-.2041v-.0037h-.0045q-.1548-.12585-.307-.2551v-.0046h-.0054l-.0465-.0394v-.0124H94.682l-.0374-.0321v-.0198h-.0227q-.1458-.1263-.2889-.2557v-.004h-.0045l-.0476-.0436v-.0082h-.0091q-.45285-.4146-.8736-.8589v-.0238h-.0227l-.0292-.0315v-.0204h-.019l-.0329-.0357v-.0165h-.0153l-.0365-.0394v-.0124h-.0117l-.0402-.0445v-.0074h-.0068l-.0454-.0499v-.002h-.0017q-.15735-.17475-.3098-.354v-.0094h-.0079l-.044-.0516v-.0005h-.0003q-.07815-.09315-.1553-.188v-.0195h-.0162l-.0357-.0445v-.0074h-.0062c-.0502-.0627-.1004-.1256-.1497-.1891v-.0187H92.397l-.0372-.0479v-.004h-.0031c-.034-.0439-.0674-.0878-.1009-.1321v-.0238H92.238l-.0341-.0456v-.0063h-.0045q-.0765-.1029-.1511-.2069v-.0008h-.0008c-.1061-.1477-.2101-.2974-.3107-.4488v-.0184h-.0125c-.0309-.0465-.0612-.0932-.0915-.14v-.0159h-.0102q-.04725-.073-.0936-.1471v-.0085h-.0054c-.0156-.0247-.0312-.0493-.0465-.0743v-.0297h-.0184c-.0286-.0465-.0573-.093-.0856-.1401v-.0156H91.364c-.0499-.083-.0983-.1664-.1465-.2503v-.0093h-.0054q-.131-.2292-.2543-.4635v-.0039h-.0022c-.0168-.0321-.0332-.0641-.0496-.0961v-.0077h-.004c-.0162-.0312-.032-.0624-.0479-.0938v-.0102H90.849c-.0159-.0312-.0315-.0627-.0471-.0941v-.0097h-.0045c-.0159-.032-.0318-.0638-.0474-.0958v-.0079h-.0039c-.0162-.0338-.0318-.0675-.0479-.1012v-.0029H90.697q-.1071-.22575-.2066-.4561v-.011h-.0048q-.1059-.24615-.2027-.4975v-.0218h-.0082c-.0148-.0383-.0295-.0765-.0437-.1148v-.0411h-.0156l-.0365-.1009v-.0547h-.0196c-.011-.0304-.0215-.0607-.0323-.0913v-.0125h-.0043q-.02415-.0693-.0476-.1386v-.0173h-.0059c-.0156-.0468-.0309-.0941-.046-.1412v-.0144h-.0048q-.0237-.07485-.047-.1503v-.0056h-.002c-.0119-.0386-.0238-.0768-.0354-.1154.2914-.0995,1.4159-.3331,1.5375-.3523q.23895-.03795.4787-.0516h.15v-.0063q.13-.0033.2596-.0005v.0068h.1769q.25005.0144.4981.0516v.0002h.002q.12915.01965.2576.0445v.0077h.0363c.0748.015.1491.0318.2234.0496v.0023h.0088q.1785.04335.3546.0981v.0056h.019c.0456.0142.0912.0292.1369.0445v.0074h.0224c.0445.0153.089.0306.1332.0468v.0051h.0142q.2559.0939.5051.2078h0c.0349.0158.0695.032.1038.0481v.0037h.0076l.0964.0468v.0054h.0102c.0312.0153.0624.0312.0935.0473v.0046h.0088c.0321.0164.0635.0328.095.0496v.0022h.004q.1824.09735.3597.2044v.0034h.0054c.2123.1284.4186.267.6176.4133v.002h.0026q.26745.19725.5167.4124v.0029h.0032l.0487.0425v.0096h.0108c.1134.0998.2236.2024.3302.3067q.2283.22365.4377.466v.006h.0054q.13095.15135.2542.3095v.002h.0017q.07875.1008.1542.2036v.0042h.0032c.0362.0496.0722.0998.1074.15.0329.047.0652.0946.0972.1423v.0192h.0128c.0306.0465.0612.093.091.1401v.0158h.0099c.0142.0221.0281.0445.0419.0669v.0369h.0227l.0292.0479v.004h.0026c.0167.0277.0331.0552.0493.0833v.0207h.0125l.0397.0686v.0351h.0198l.032.0567v.0471h.0258l.0261.0479v.004h.0023c.0167.0311.0331.0626.0496.0938v.0102h.0054l.0465.0907v.013h.0068q.04965.09915.0972.199v.0088h.004l.0479.1032v.0006h.0002c.0176.0385.0346.0768.0516.1156v.0403h.0176c.0116.0266.023.0535.0343.0805v.0232h.0099c.0142.0343.0284.0686.042.1032v.0527h.0212l.0309.0791v.0765h.0289l.023.0627v.0414h.0148c.0127.0348.0249.07.0371.1054v.0502h.0173q.07515.22365.1386.451v.0164h.0042q.02475.0894.0477.1792v.0805h.0198c.0111.0453.0218.091.032.1366v.1228h.0267c.0088.0413.0173.0827.0252.1241v.1355h.0252c.0094.0527.0185.1057.0267.1585v.0493h.0076q.0255.1671.0443.3348v.1845h.0184a7.98148,7.98148,0,0,1,.0221,1.1137c-.006.1327-.1738,1.7745-.1613,1.8907Q99.01975,238.12905,98.6426,237.9436Z" transform="translate(-86.0323 -173.54343)"/><path class="cls-5" d="M107.0544,240.0208v-.0014h-.059q-.38565-.0102-.7719-.036v-.0159h-.2185q-.2802-.02205-.5601-.0519h-.0003q-.18165-.0195-.3634-.0425v-.0094h-.0757q-.14415-.0186-.2877-.0396v-.0125h-.0842q-.13995-.02085-.2792-.0434v-.0085h-.0516q-.2862-.04755-.5715-.1032v-.0005h-.0025q-.1029-.0201-.2053-.0414v-.0105h-.0518c-.0692-.0145-.1387-.0295-.2078-.0448v-.0074h-.0326q-.0876-.019-.1749-.0394v-.0124h-.053c-.0689-.0162-.1381-.0324-.2067-.0494v-.0025h-.0107q-.0987-.0243-.1971-.0496v-.0023h-.0093q-.09945-.0255-.1984-.0519h-.0006q-.182-.04845-.3628-.1006v-.0034h-.0114c-.0482-.0136-.0964-.0278-.1445-.0419v-.01h-.0335l-.1222-.0365v-.0153h-.0493q-.0795-.0243-.1584-.0494v-.0025h-.0083c-.0493-.0156-.0983-.0312-.1474-.0474v-.0045h-.0147q-.07065-.023-.1412-.0465v-.0054h-.0164l-.1392-.047v-.0051h-.0144q-.2799-.0957-.5568-.2001v-.0074h-.0204c-.0451-.0173-.0904-.0343-.1355-.0519v-.0003h-.0005c-.0346-.013-.0689-.0263-.1032-.0399v-.0119h-.0304c-.0419-.0165-.0839-.0329-.1255-.0497v-.0022h-.0054l-.0984-.0397v-.0122h-.0297q-.11535-.04725-.2299-.0955v-.0082h-.0196q-.1203-.05145-.2401-.1038v-.0003h-.0003q-.3933-.173-.7786-.3622v-.0012h-.002l-.1018-.0504v-.0014h-.0031q-.05055-.0252-.1006-.0508v-.0011h-.0029l-.0096-.0051-.0397-.0425v-.0046h-.0037l-.0153-.0176a1.14322,1.14322,0,0,1-.0848-.1133v-.0247h-.015a.91737.91737,0,0,1-.0887-.1922v-.0156h-.0051a.93291.93291,0,0,1-.0023-.5193h.0074v-.0258a1.26947,1.26947,0,0,1,.0459-.1298h.006v-.0148c.0127-.0297.0269-.0595.0422-.0892h.0096v-.019q.0231-.0426.0485-.0848h.0034v-.0057a1.74784,1.74784,0,0,1,.1035-.1499h.0006v-.0009a2.29225,2.29225,0,0,1,.5626-.5184h.0085v-.0057a1.89908,1.89908,0,0,1,.4142-.2052,1.64535,1.64535,0,0,1,.1752-.0488h.0856v-.0167a1.9653,1.9653,0,0,1,.8827.0686h.0003c.0521.0153.104.032.1553.0505v.0014h.0048c.0856.0306.1707.0649.2548.1023v.0017h.004c.0335.0147.0669.0301.1001.0459v.006h.0127q.06255.0297.1242.0612.0867.04425.1746.0927v.0017h.0034a3.328,3.328,0,0,0,1.5936.5992,1.5491,1.5491,0,0,0,.4306-.0768,3.67053,3.67053,0,0,0,.6704-.3146h.002v-.0012a5.83,5.83,0,0,1,.5873-.303c.0505-.0212.1018-.0411.1537-.0592h.038v-.0131c.0411-.0138.0825-.0269.1244-.0388h.0312v-.0091c.0584-.0158.1171-.0303.1763-.0431h.0315v-.0065c.0963-.0195.1939-.0346.2919-.0453h.1755v-.0145c.1072-.0059.2149-.0071.3217-.0031q.0732.00255.1455.0079v.0097h.1091q.15435.01605.3064.0448v.007h.0377q.1119.0222.222.0508v.0014h.0056q.0753.0195.15.0417v.0102h.0329c.0411.0127.0822.0261.123.0399v.012h.0346c.0405.0141.0808.0292.121.0445v.0073h.0196q.1212.04725.2401.1012v.0029h.0056c.0329.0147.0658.03.0981.0459v.0059h.0125c.0306.0148.0609.0301.0915.0457v.0062h.0122c.0307.0156.0613.0318.0916.0482v.0037h.0071a5.99244,5.99244,0,0,1,.7719.5011q.10545.0804.2075.1645v.0093h.0116q.181.15015.352.3104v.0011h.0012q.0519.0489.1026.0981v.006h.0062l.0457.0448v.007h.0073l.0445.0448v.0071h.0074l.0448.0457v.0062h.0062l.0457.0473v.0048h.0045l.0473.0499v.002h.0017q.1017.10755.1976.2169c.038.0431.0754.0861.1123.1301v.0164h.0139l.0379.0454v.0065h.0054c.0332.04.0661.0805.0987.121v.0349h.0275l.0243.0309v.021h.0162l.0357.0462v.0057h.0043l.0476.0629v.0408h.0306l.0213.0295v.0227h.0167l.0351.049v.0028h.002c.017.0236.0335.0471.0502.0709v.0329h.0227l.0292.0428v.0091h.0062l.0456.0683v.0357h.0233l.0286.0442v.0077h.0048c.0338.0524.0664.1051.0987.1581.0269.0448.3623.7036.3767.7535q-.05955.01185-.119.0229h-.1534v.0284c-.0448.0079-.0896.0159-.1344.0235h-.1771v.0298c-.0468.0076-.0939.015-.1406.0221h-.171v.0255c-.0632.0094-.1264.0181-.1896.0266h-.1219v.0159c-.1012.0128-.2021.0247-.3036.036h-.0079v.0009q-.26835.02925-.538.051h-.5006v.0332q-.23565.0123-.4723.0187h-.7738v.0045c-.0366-.0006-.0732-.0011-.1097-.002Z" transform="translate(-86.0323 -173.54343)"/><path class="cls-6" d="M113.9085,196.6643v-.002h-.0164a3.98293,3.98293,0,0,1-.5547-.0992v-.0045h-.0176a3.772,3.772,0,0,1-.7209-.2659c-.1207-.0593-.2378-.1242-.352-.1936v-.008h-.0131c-.1556-.0949-.3064-.1981-.4544-.3058v-.0057h-.0076c-.3955-.2883-.7713-.6089-1.1699-.8929a3.32721,3.32721,0,0,0-2.2654-.7597,7.20142,7.20142,0,0,0-1.3213.4065h-.0127v.0043c-.0513.0167-.1029.0328-.1542.0476h-.0014v.0006c-.0683.0195-.1364.0368-.2047.0513h-.0031v.0008a1.63949,1.63949,0,0,1-.709.0091,1.261,1.261,0,0,1-.1737-.0527v-.0091h-.0227c-.0275-.0111-.0547-.023-.0814-.036v-.0159h-.0314q-.03705-.019-.0723-.0402v-.0117h-.019a1.42674,1.42674,0,0,1-.1366-.0966v-.0074h-.0091c-.0145-.0116-.0289-.0238-.0431-.036v-.0159h-.0176l-.0343-.0317v-.0201h-.0204l-.0314-.0318v-.0201h-.0187l-.0332-.0369v-.015h-.013l-.0389-.0473v-.0046h-.0037a2.05557,2.05557,0,0,1-.2559-.4263v-.0411h-.0182c-.0119-.0278-.0229-.0558-.0337-.0842v-.0195h-.0077a2.46073,2.46073,0,0,1-.0963-.3317v-.0839h-.0165a2.39914,2.39914,0,0,1-.0334-.2818l-.002-.0414v-.2939a4.68245,4.68245,0,0,1,.0456-.4734h.0063v-.0417c.0751-.4932.2103-.9824.3002-1.4743a3.607,3.607,0,0,0-.2753-2.2478c.0488-.0108.0987-.0196.1497-.0267h.0331v-.0042a11.48691,11.48691,0,0,1,1.4415.0272q.8325.00765,1.6647.0161,1.62945.0153,3.2582.0312,3.294.03195,6.5883.0632a.33444.33444,0,0,1,.1774.0349.32733.32733,0,0,1,.1168.2035c.0964.3379.1826.6801.2534,1.0253v.0048h.0012q.0267.1314.0507.2631v.0485h.0088q.0234.131.0434.2625v.049h.007a9.01367,9.01367,0,0,1,.0967,1.1066v.1917h.002q0,.05175-.0009.1037h-.0011v.0641q-.0072.30615-.0405.6111h-.0114v.0955c-.0073.0576-.0153.1148-.0238.1724-.0076.049-.0159.0984-.0246.1474h-.0034v.0196c-.0117.0629-.0241.1255-.0375.1882h-.0147v.0652c-.0108.0476-.0221.0949-.0343.1423h-.0176v.0674q-.0186.07065-.0394.1403h-.0124v.042q-.0651.21555-.1474.4255h-.0083v.021c-.011.0277-.0224.0552-.0337.0827h-.0184v.0434l-.0261.0604h-.0258v.0578c-.015.0329-.03.0655-.0459.0981h-.006v.0127c-.0147.0304-.0297.061-.045.091h-.0068v.0136c-.0156.0304-.0312.0604-.0474.0905h-.0045v.0088q-.06885.1275-.1443.2508h-.0116v.0184q-.04305.06975-.0882.1372h-.0156v.0233q-.04545.0672-.093.1326h-.011v.0148l-.0272.0371h-.0247v.0323c-.0317.0417-.064.0828-.0975.1233h-.0062v.0077a4.37732,4.37732,0,0,1-.3274.356h-.036v.0346l-.0185.0173h-.0337v.0312l-.0227.0207h-.0292v.0261l-.0297.0257h-.0221v.0193l-.0389.0326h-.013v.0111q-.025.02085-.0505.0408h-.0014v.0014c-.0439.0352-.0887.0692-.1343.1026h-.0216v.0156l-.0513.0363h-.0006v.0006l-.0399.0275c-.0661.0448-.1338.0873-.2024.1278h-.0173v.0099a3.81461,3.81461,0,0,1-.5162.2495h-.0031v.0014q-.145.057-.294.1026h-.0176v.0054a4.09447,4.09447,0,0,1-.746.1502h-.0326v.0034A4.12731,4.12731,0,0,1,113.9085,196.6643Z" transform="translate(-86.0323 -173.54343)"/><path class="cls-7" d="M126.7339,179.7905v-.0037h-.0584q-.25725-.01485-.5128-.0499v-.0019h-.0139q-.14925-.02085-.2976-.0479v-.004h-.0201q-.225-.04215-.4474-.0989v-.0049h-.0189c-.0633-.0164-.1259-.0337-.1888-.0518h-.0006c-.0519-.0151-.1035-.0304-.1551-.0465v-.0057h-.017q-.14835-.04635-.2945-.0989v-.0048h-.013a8.10215,8.10215,0,0,1-1.2331-.5704v-.0008h-.0014q-.1305-.07395-.2582-.1528v-.0031h-.0051q-.23565-.145-.4624-.3053v-.0063h-.0088a8.85038,8.85038,0,0,1-.718-.566v-.0051h-.0059a8.96106,8.96106,0,0,1-.8249-.8241v-.0065h-.006a8.58922,8.58922,0,0,1-.8767-1.1903v-.0039h-.0026q-.09015-.14805-.1729-.2988l-.0323-.059v-.0059h-.0031c-.0165-.0303-.0329-.061-.0488-.0916v-.0122h-.0065c-.0153-.0294-.0303-.0589-.0454-.0887v-.015h-.0076l-.0445-.0893v-.0147h-.0071l-.0448-.0936v-.0102h-.0048c-.0159-.034-.0315-.068-.0471-.102v-.002h-.0008q-.05955-.13185-.1148-.2656a8.72811,8.72811,0,0,1-.2724-.9805h.1369q.30735.02085.6145.0482v.0036h.0443c.1411.0131.2823.0267.4232.0417v.0105h.0961c.1066.0116.2129.0235.3192.0363v.0156h.1247q.1713.0213.3427.0448v.0071h.0507q.3126.04335.6242.0938v.0099h.0627c.083.0136.1661.0278.2488.042v.0099h.057c.0678.0119.1352.0241.2027.0363v.0158h.0856q.1131.02085.2259.0428v.0091h.0471q.1062.02085.2126.0425v.0094h.0459q.3414.0702.6812.1485v.0074h.0317c.0587.0136.1174.0272.1758.0414v.0105h.0442c.0544.013.1091.0263.1635.0399v.0119h.0485c.053.0131.1063.0267.1593.04v.0119h.0462q.08085.02085.1616.042v.0099h.0377c.0567.015.1134.03.1698.0456v.0063h.0238c.0612.0167.1227.0337.184.0507v.0014h.0042q.5205.1455,1.0341.3107v.0008h.0023c.0513.0165.1026.0329.1536.0496v.0023h.0065l.1494.0496v.0023h.0071q.0744.02505.1485.0504v.0015h.0046q.49485.1692.9819.3566v.0068h.0187q.12075.04665.2409.0944v.0096h.0239q.1182.0468.2358.095v.0087h.0215l.0825.0338v.0181h.0434l.1123.0471v.0051h.0119c.0309.0127.0615.0258.0921.0388v.0131h.03q.1149.04875.2294.0992v.0045h.0107c.0312.0136.0621.0275.0933.0414v.0105h.0238q.3279.1458.6511.2999v.0116h.0241l.0797.0386v.0133h.028l.076.0371v.015h.0306l.0731.036v.0159h.0324l.0717.0357v.0162h.032l.0717.036v.0159h.0318l.072.0368v.015h.0295l.0745.0383v.0139h.0266l.0772.0402v.0117h.0223q.04095.02115.0814.0428v.009h.0173l.0867.046v.0059h.0108c.0312.0164.0621.0332.093.0499v.002h.0037q.2334.12585.4637.2565v.0031h.0054c.085.0482.1698.0973.254.1466v.0093h.0161l.0879.0513v.0006h.0009c.0518.0303.1034.0612.1547.0921v.0117h.0199l.0093.0056q-.0888.10215-.1808.2021h-.004v.0043l-.0442.0476h-.0077v.0082q-.1968.21015-.4062.4074h-.0093v.0085l-.0465.0433h-.0054v.0049l-.0516.047h-.0003v.0003a7.07087,7.07087,0,0,1-.7188.5709h-.0083v.0057c-.1303.0895-.2641.1746-.4016.254h-.0136v.0076q-.16965.09735-.3464.1834c-.0882.0428-.1769.0825-.2659.1205h-.0108v.0045q-.12375.0528-.248.0992h-.0116v.0043c-.097.036-.1939.0692-.2914.0998h-.0202v.0062c-.0516.0162-.1034.0312-.1553.0456h-.0006q-.09945.02775-.1992.0519h-.0083v.002q-.2652.0633-.5317.1018h-.0394v.0053q-.23475.03285-.4695.0465h-.2058v.0088C127.0451,179.7996,126.8892,179.7982,126.7339,179.7905Z" transform="translate(-86.0323 -173.54343)"/><path class="cls-8" d="M135.7688,184.2735v-.021h-.2197c-.0831-.0105-.1656-.0232-.2478-.0388v-.013h-.0677c-.0468-.0097-.0936-.0202-.1401-.0315v-.0207h-.0816c-.0422-.0111-.0842-.0227-.1259-.0351v-.0168h-.0547q-.077-.02415-.153-.0513v-.0005h-.002c-.087-.0312-.1732-.0652-.2577-.1021v-.0017h-.0037c-.0337-.0147-.0669-.03-.1-.0456v-.0065h-.0136c-.0304-.0142-.0604-.029-.0905-.0443v-.0076h-.0147c-.0298-.0153-.0595-.0309-.089-.0471v-.0048h-.0088c-.087-.0476-.1721-.0986-.2546-.1525-.0513-.0337-.1023-.0689-.1519-.1055v-.0017h-.0023a2.06068,2.06068,0,0,1-.5524-.5799,1.33532,1.33532,0,0,1-.0686-.1298v-.0171h-.0071a1.17018,1.17018,0,0,1-.0967-.4152v-.1041h-.0008a2.32971,2.32971,0,0,1,.1017-.5711h.0029v-.0102a2.44862,2.44862,0,0,0,.1783-1.5223c-.2072-.5845-.9545-.7112-1.5027-1a1.92792,1.92792,0,0,1-.1814-.1086V179.06h-.0105a2.0262,2.0262,0,0,1-.197-.1542v-.0017h-.002c-.017-.0147-.0337-.03-.0501-.0456v-.0062h-.0063c-.0156-.0148-.0306-.0295-.0456-.0448v-.0071h-.0071a2.2869,2.2869,0,0,1-.5122-.8289v-.002h-.0006a2.3188,2.3188,0,0,1-.1032-.4022v-.013h-.002a2.14471,2.14471,0,0,1,0-.6752h.002v-.0122c.0094-.0545.0207-.1086.0343-.1625l.0176.0094v.0096h.0181l.0859.0457v.0062h.0117l.0921.0493v.0026h.0048q.23265.12585.4626.2562v.0034h.006c.085.0482.1692.097.2534.146v.0099h.017c.0289.017.0581.0338.087.0511v.0008h.0014c.0516.0303.1029.061.1542.0916v.0122h.0204l.0837.0504v.0014h.0022l.0496.0301v.0221h.0358l.068.0417v.0102h.0167c.0465.0286.0927.0575.1392.0864v.0173h.0275l.0762.0482v.0037h.006c.0502.0317.1001.0638.1499.0958v.0082h.0125q.3087.1986.6106.4068v.0085h.0125q.07185.04935.1431.0995v.0042h.0065l.0457.0324v.0198h.028c.0426.03.0851.0604.1276.0907v.0131h.0184c.046.0328.0916.066.1375.0994v.0043h.006l.0459.0337v.0182h.0252c.0437.0323.087.0646.1304.0969v.0071h.0096q.0996.07395.1982.1494v.0062h.0082c.0669.051.1332.1024.1996.1539v.002h.0022q.1293.1008.2574.2038v.004h.0048q.15435.1242.3067.2509v.0088h.0105l.0414.0345v.0173h.0204l.0315.0264v.0255h.0303q.08895.0753.1775.1517v.0039h.0045l.0473.0411v.0111h.0125l.0394.034v.0179h.0201l.0318.0277v.0241h.0275c.0952.0842.1902.1693.284.2552v.0045h.0048l.0474.0434v.0085h.0093q.5031.463.9771.9567v.0297h.0284l.0235.0247v.0275h.0261l.0258.0272v.0247h.0232l.0287.0303v.0215h.0204l.0317.034v.0179h.0167l.0352.038v.0139h.013l.0389.0422v.0097h.0088l.043.047v.0051h.0046q.0795.0867.1581.1749c.0675.0757.1347.1522.2007.2293v.0111h.0097l.0425.0499v.002h.0017c.0519.0609.1032.1218.1539.1834v.0243h.0201l.0318.0386v.0133h.0111l.0411.0502v.0017h.0011q.07785.0957.1545.1925v.0153h.0122l.0396.0504v.0014h.0012c.0519.0664.1034.1327.1548.1996v.0082h.0062q.1548.20235.3053.4088v.0065h.0048c.0357.049.0714.0984.1069.1477a11.33616,11.33616,0,0,1-1.2992.6675l-.0445.0156h-.0141v.0048c-.0502.0171-.1007.0326-.1514.0471h-.0564v.0156c-.0499.0133-.1001.0255-.1502.0366h-.1095v.0218c-.0635.0119-.1272.0218-.1916.03h-.068v.008A3.78307,3.78307,0,0,1,135.7688,184.2735Z" transform="translate(-86.0323 -173.54343)"/><path class="cls-9" d="M117.8546,205.1263v-.0003h-.0011q-.38685-.05445-.7736-.11-1.3347-.18915-2.6699-.3784l-4.2401-.6018h-.0003l-2.9925-.4249q-2.3463-.3321-4.6919-.6653v-.0003h-.0017l-2.0381-.2891-2.6243-.3722c-.0017-.6976-.0236-1.3995-.0567-2.1036,1.1052.4337,2.2056-.5281,2.9625-1.2183q.0948-.0864.1899-.1707h.0105v-.0093l.0484-.0428h.0034v-.0031c.0998-.0873.1996-.173.3005-.2563h.0111v-.0096l.0519-.0426h.0002q.1977-.162.3997-.3115h.0156v-.0113q.06375-.0468.1284-.0924h.0275v-.0193l.0468-.0326h.0051v-.0034q.03525-.0246.0714-.0485h.0323v-.0218l.046-.0303h.0059v-.0037l.0746-.0482h.0294v-.0184c.0462-.0289.0927-.0576.1395-.0854h.0162v-.0093q.1785-.10545.3631-.1984h.0003v-.0003c.0351-.0176.0703-.0349.1057-.0516h.0502v-.0235l.0621-.0284h.0416v-.0184c.0261-.0113.0519-.0227.0783-.0335h.0258v-.0107c.034-.0142.0683-.0278.1026-.0414h.0011v-.0003c.0459-.0179.0921-.0349.1389-.0516h.017v-.0059c.0454-.0159.0913-.0312.1372-.046h.0184v-.0059q.0774-.0243.1556-.0459h.0522v-.0142c.0502-.0133.1006-.0258.1517-.0377h.108v-.0238q.07215-.0153.1457-.0281h.1139v-.0187q.1557-.02385.3166-.038a5.26672,5.26672,0,0,1,1.2411.0411v.0156h.096c.072.0122.144.0255.2155.0406v.0113h.0527c.1922.0419.3824.0938.5703.1542v.0014h.0046c.0507.0165.1009.0335.1513.051v.0009h.0032q.26055.09135.5159.2041v.0037h.0088l.0952.0428v.009h.0198c.0281.0131.0562.0261.0839.0394v.0128h.0267q.0387.0183.0774.0374v.0145h.0289q.16545.08205.3288.1723a19.86626,19.86626,0,0,0,1.9947,1.0599,9.71476,9.71476,0,0,0,2.342.557c.0618.0088.1242.0179.1863.0272v.0009h.0059c.3084.0456.6191.0961.9287.1553v.0003h.0028c.0859.0164.1715.0337.2568.0513v.0008h.0031a9.42549,9.42549,0,0,1,1.8664.5707v.0005h.0011c.0343.015.0686.0304.1026.0459v.006h.0128c.0303.0142.0609.0283.0912.0431v.0088h.0185q.1488.0723.2931.1525v.0031h.0059q.12885.07185.2534.1502v.0057h.0091c.0493.0312.0984.0635.1468.0964v.0073h.0111q.073.05025.1448.1029v.0012h.0012q.13215.09735.2582.2044v.0031h.0037l.0485.0414v.0107h.0119a4.59591,4.59591,0,0,1,.3515.3444v.019h.0173l.0345.0383v.0136h.0119c.0134.0153.027.0303.04.0459v.006h.0051q.105.12285.2027.2557v.0039h.0028l.0352.0479c.0224.0312.0442.0627.0657.0944v.0136h.0091c.0326.0479.0641.0967.095.146v.0097h.0059q.0234.0378.046.0756v.0284h.0164q.045.077.0873.1553v.0003h0c.0179.0329.0351.0661.0519.0992v.0046h.0022c.017.0337.0338.0671.0499.1012v.0028h.0012q.0543.11355.1026.2299v.0297h.0122q.0204.0498.0397.1004v.0034h.0014c.0175.0459.0343.0924.0504.1389v.017h.006q.02415.06975.0459.1403v.0153h.0048q.05655.185.0992.3736v.042h.0091q.02385.11055.0428.2225v.0369h.006q.0306.1896.0459.3812v.3458h.0156c.0011.1069-.0014.2141-.0077.3209a.23529.23529,0,0,1-.0065.0425h-.0014v.0057c-.0655.2347-.5037.0927-.7061.0641Z" transform="translate(-86.0323 -173.54343)"/><path class="cls-10" d="M156.1326,232.0608H115.1209V208.6756h41.0117v23.3852Zm3.1501-24.4278a2.51557,2.51557,0,0,0-2.5157-2.5158H114.4865a2.51608,2.51608,0,0,0-2.5163,2.5158v26.0132l-.0006,1.2175h47.3137l-.0006-1.2175Z" transform="translate(-86.0323 -173.54343)"/><path class="cls-11" d="M162.1879,234.0944H109.0655a.93578.93578,0,0,0-.9195,1.1089h0a3.04863,3.04863,0,0,0,2.9965,2.4837h48.9679a3.04887,3.04887,0,0,0,2.9965-2.4837h0A.9357.9357,0,0,0,162.1879,234.0944Z" transform="translate(-86.0323 -173.54343)"/><path class="cls-12" d="M128.2723,234.4578v.6843a.511.511,0,0,0,.511.5113h13.6863a.5106.5106,0,0,0,.5108-.5113v-1.0477H128.2723Z" transform="translate(-86.0323 -173.54343)"/><rect class="cls-13" x="29.0886" y="35.13267" width="41.0108" height="23.2886"/><path class="cls-14" d="M123.4162,202.6763l.0298,3.7661-.0114,12.7616v12.8568H147.835s.002-29.4925.002-29.4786l.0442-.0476,3.1768-3.7417h-24.44C124.85,198.7929,123.4162,200.5319,123.4162,202.6763Z" transform="translate(-86.0323 -173.54343)"/><path class="cls-15" d="M147.8353,202.6151l.0017-.002v-.0417C147.837,202.5578,147.8364,202.604,147.8353,202.6151Z" transform="translate(-86.0323 -173.54343)"/><path class="cls-16" d="M151.0381,198.7824c-1.7546,0-3.1782,1.711-3.2011,3.8327l6.4029.0507C154.2399,200.5214,152.8061,198.7824,151.0381,198.7824Z" transform="translate(-86.0323 -173.54343)"/><path class="cls-17" d="M140.6563,205.1745a2.69477,2.69477,0,0,0-.6611-.0573h-8.8529a.86182.86182,0,0,0-.5031.1721.53364.53364,0,0,0-.2157.5182c0,.0187.0048.0711.0147.1573.0099.0867.0139.235.0139.4453a4.64268,4.64268,0,0,0,.1154,1.6673l1.5811.0292q.8619,0,1.552-.0578h.1431c.1917,0,.2878.1154.2878.345q-.02895.6042.0292,7.3295.028,3.22005.0283,6.7836a.84962.84962,0,0,0,.1296.5321.543.543,0,0,0,.4447.1579q1.06425,0,1.4956-.0286a1.43467,1.43467,0,0,0,.7903-.1869.93667.93667,0,0,0,.1868-.7041V208.336a.17487.17487,0,0,1,.0717-.1432.21306.21306,0,0,1,.1292-.0575h2.3854a3.52529,3.52529,0,0,0,.7909-.0579.25151.25151,0,0,0,.216-.2579l.0286-2.3865A.24915.24915,0,0,0,140.6563,205.1745Z" transform="translate(-86.0323 -173.54343)"/><path class="cls-12" d="M132.0775,223.9985h-6.5214a.37721.37721,0,0,0-.377.377v7.6853h7.2751v-7.6853A.377.377,0,0,0,132.0775,223.9985Z" transform="translate(-86.0323 -173.54343)"/><rect class="cls-18" x="39.9856" y="51.41317" width="3.8905" height="0.9584" rx="0.1454"/><path class="cls-19" d="M126.754,227.0597h-.5445a.19145.19145,0,1,0,0,.3829h.5445a.19145.19145,0,1,0,0-.3829Z" transform="translate(-86.0323 -173.54343)"/><path class="cls-20" d="M131.4241,227.0597h-3.9115a.19145.19145,0,0,0,0,.3829h3.9115a.19145.19145,0,1,0,0-.3829Z" transform="translate(-86.0323 -173.54343)"/><path class="cls-21" d="M129.5838,228.1428h-3.3743a.1913.1913,0,1,0,0,.3826h3.3743a.19162.19162,0,0,0,.1922-.1916h0A.191.191,0,0,0,129.5838,228.1428Z" transform="translate(-86.0323 -173.54343)"/><path class="cls-22" d="M131.4241,228.1428h-1.0794a.1913.1913,0,1,0,0,.3826h1.0794a.1913.1913,0,1,0,0-.3826Z" transform="translate(-86.0323 -173.54343)"/><path class="cls-23" d="M126.5879,229.2253h-.3784a.19165.19165,0,0,0,0,.3833h.3784a.19165.19165,0,1,0,0-.3833Z" transform="translate(-86.0323 -173.54343)"/><path class="cls-24" d="M131.4241,229.2253h-.2699a.19165.19165,0,0,0,0,.3833h.2699a.19165.19165,0,1,0,0-.3833Z" transform="translate(-86.0323 -173.54343)"/><path class="cls-25" d="M130.4515,229.2253h-3.1226a.19165.19165,0,0,0,0,.3833h3.1226a.19165.19165,0,0,0,0-.3833Z" transform="translate(-86.0323 -173.54343)"/><path class="cls-26" d="M128.0418,230.3084h-1.8323a.19165.19165,0,0,0,0,.3833h1.8323a.19165.19165,0,0,0,0-.3833Z" transform="translate(-86.0323 -173.54343)"/><path class="cls-27" d="M131.4241,230.3084h-2.3953a.19165.19165,0,1,0,0,.3833h2.3953a.19165.19165,0,1,0,0-.3833Z" transform="translate(-86.0323 -173.54343)"/><rect class="cls-28" x="104.3189" y="181.03753" width="13.84444" height="17.40149" transform="translate(-99.21433 -165.1724) rotate(-4.06869)"/><path class="cls-29" d="M3.9228,29.35317H30.7106a3.9226,3.9226,0,0,1,3.9226,3.9226V43.14a3.9226,3.9226,0,0,1-3.9226,3.9226H3.9226A3.9226,3.9226,0,0,1,0,43.14V33.276a3.9228,3.9228,0,0,1,3.9228-3.9228Z"/><polygon class="cls-30" points="6.016 35.106 20.995 34.575 21.033 43.964 6.053 44.495 6.016 35.106"/><polygon class="cls-31" points="8.617 33.715 23.597 33.184 23.634 42.573 8.655 43.104 8.617 33.715"/><polygon class="cls-32" points="11.097 32.202 26.077 31.671 26.114 41.06 11.135 41.591 11.097 32.202"/><rect class="cls-33" x="117.71357" y="180.42847" width="13.84461" height="17.40131" transform="translate(-90.68638 -170.39289) rotate(-1.4217)"/><path class="cls-34" d="M111.003,184.369a3.25044,3.25044,0,0,0-1.5123,5.3227c.3192.3285.7022.5825,1.0497.8773a3.37076,3.37076,0,0,1,.6766.7962l3.096-.7954a5.90039,5.90039,0,0,1,.1659-1.108c.1068-.4527.354-.8538.4524-1.3136a3.23971,3.23971,0,0,0-.0278-1.4718A3.20521,3.20521,0,0,0,111.003,184.369Z" transform="translate(-86.0323 -173.54343)"/><path class="cls-12" d="M109.5676,187.9282a.28212.28212,0,1,0-.5573.0882,2.71067,2.71067,0,0,0,.3172.9221.28379.28379,0,0,0,.2687.1423.27835.27835,0,0,0,.1176-.0357.28261.28261,0,0,0,.1046-.385A2.229,2.229,0,0,1,109.5676,187.9282Z" transform="translate(-86.0323 -173.54343)"/><path class="cls-12" d="M109.9613,185.7144a.27924.27924,0,0,0-.3923.0581,3.01137,3.01137,0,0,0-.4833.9847.28124.28124,0,0,0,.1958.3481.26723.26723,0,0,0,.0984.0102.28489.28489,0,0,0,.2517-.2055,2.38535,2.38535,0,0,1,.3898-.7999A.27909.27909,0,0,0,109.9613,185.7144Z" transform="translate(-86.0323 -173.54343)"/><path class="cls-12" d="M112.233,188.5241a.15164.15164,0,1,0-.2937.0756l.6528,2.5371a.1513.1513,0,0,0,.1573.1139.145.145,0,0,0,.027-.0042.15207.15207,0,0,0,.1094-.1854Z" transform="translate(-86.0323 -173.54343)"/><path class="cls-35" d="M114.3006,190.9383c.0017-.123.0031-.246.0124-.3685l-3.096.7954q.0876.1386.1758.2877a6.85358,6.85358,0,0,1,.5802,1.4675,1.30355,1.30355,0,0,0,2.524.0593,2.422,2.422,0,0,0-.0967-1.1262A6.00731,6.00731,0,0,1,114.3006,190.9383Z" transform="translate(-86.0323 -173.54343)"/><path class="cls-12" d="M112.8637,187.2476a.154.154,0,0,0-.2098.0536l-.6967,1.1829a.149.149,0,0,0,.0521.2086.15639.15639,0,0,0,.0913.0207.15451.15451,0,0,0,.1185-.0745l.6967-1.1826A.14914.14914,0,0,0,112.8637,187.2476Z" transform="translate(-86.0323 -173.54343)"/><path class="cls-12" d="M112.163,188.4305l-1.1829-.6996a.152.152,0,0,0-.1537.2622l1.1829.6996a.15639.15639,0,0,0,.0913.0207.15154.15154,0,0,0,.0624-.2829Z" transform="translate(-86.0323 -173.54343)"/><path class="cls-36" d="M105.8051,207.3736l-2.69-.015a1.73293,1.73293,0,0,0-1.7448,1.7254l-.0178,2.6907a1.73806,1.73806,0,0,0,1.7263,1.7458l2.6901.0151a1.73887,1.73887,0,0,0,1.7484-1.7269l.0141-2.6887A1.73813,1.73813,0,0,0,105.8051,207.3736Z" transform="translate(-86.0323 -173.54343)"/><polygon class="cls-37" points="17.901 39.982 18.886 39.987 18.888 38.895 17.908 38.891 17.901 39.982"/><path class="cls-34" d="M105.1299,212.1248l-1.3949-.0068a.05777.05777,0,0,0-.0576.0583l-.0042.2951a.064.064,0,0,0,.0607.0598l.8149.0037.0352.0014.5408.0029a.06.06,0,0,0,.0612-.0595l.0003-.294A.05759.05759,0,0,0,105.1299,212.1248Z" transform="translate(-86.0323 -173.54343)"/><path class="cls-38" d="M104.6018,209.7848c-.0003.3852-.0042.7718-.0045,1.1571a.29328.29328,0,0,1-.161.5383.2938.2938,0,0,1-.2914-.2943.29.29,0,0,1,.1386-.2455l.0045-1.1573a4.966,4.966,0,0,1-.3498.6763,8.74035,8.74035,0,0,1-.5402.7291s.396.6196.5938.9295l.8813.0068.6049-.9239s-.3481-.4473-.5196-.7361A6.17434,6.17434,0,0,1,104.6018,209.7848Z" transform="translate(-86.0323 -173.54343)"/><path class="cls-12" d="M104.5616,207.9737l-.1069.106-.1066-.1066a.53152.53152,0,1,0-.7798.718l.1023.1075.775.7838.7858-.7753.1069-.106a.53328.53328,0,1,0-.7767-.7274Z" transform="translate(-86.0323 -173.54343)"/><polygon class="cls-39" points="40.262 9.471 41.115 9.911 41.255 8.592 40.262 9.471"/><path class="cls-12" d="M126.9828,184.7767a.40624.40624,0,0,0,.0524-.1789c.0026-.0595.0031-.1171.0094-.1749l.1023-.9686-.8529-.4399-.7303.6448c-.043.0389-.0898.0726-.1366.1095a.44445.44445,0,0,0-.0482.0425.36631.36631,0,0,0-.0672.1034,1.27033,1.27033,0,0,0,.3626,1.5237C126.0156,185.6013,126.7486,185.2308,126.9828,184.7767Z" transform="translate(-86.0323 -173.54343)"/><rect class="cls-40" x="121.08893" y="192.98358" width="0.23794" height="1.88039" transform="translate(-192.73954 39.15466) rotate(-62.7025)"/><rect class="cls-41" x="120.88439" y="193.38143" width="0.23666" height="1.88039" transform="translate(-193.18441 39.431) rotate(-62.76359)"/><rect class="cls-42" x="121.00049" y="193.18359" width="0.20842" height="1.88048" transform="translate(-192.97104 39.19754) rotate(-62.7091)"/><path class="cls-43" d="M121.504,195.4009l.28-.5428-1.6713-.862-.2806.5428a.58347.58347,0,0,0,.3506.7333l.5089.2625A.59724.59724,0,0,0,121.504,195.4009Z" transform="translate(-86.0323 -173.54343)"/><polygon class="cls-44" points="40.149 10.736 35.23 20.275 35.657 20.495 40.286 11.517 40.149 10.736"/><polygon class="cls-45" points="40.286 11.517 35.657 20.495 36.066 20.705 40.929 11.274 40.286 11.517"/><polygon class="cls-34" points="39.425 11.079 34.798 20.052 35.23 20.275 40.149 10.736 39.425 11.079"/><polygon class="cls-46" points="39.258 10.412 34.394 19.844 34.798 20.052 39.425 11.079 39.258 10.412"/></svg>