<svg id="Warstwa_1" data-name="Warstwa 1" xmlns="http://www.w3.org/2000/svg" xmlns:xlink="http://www.w3.org/1999/xlink" viewBox="0 0 82.96188 68.37747"><defs><style>.cls-1,.cls-10,.cls-11,.cls-13,.cls-14,.cls-15,.cls-2,.cls-20,.cls-21,.cls-22,.cls-23,.cls-24,.cls-28,.cls-29,.cls-3,.cls-30,.cls-31,.cls-4,.cls-5,.cls-6,.cls-7,.cls-8,.cls-9{fill-rule:evenodd;}.cls-1{fill:url(#GradientFill_1);}.cls-2{fill:url(#GradientFill_1-2);}.cls-3{fill:url(#GradientFill_1-3);}.cls-4{fill:url(#GradientFill_1-4);}.cls-5{fill:url(#GradientFill_1-5);}.cls-6{fill:url(#GradientFill_1-6);}.cls-7{fill:url(#GradientFill_1-7);}.cls-8{fill:url(#GradientFill_21);}.cls-9{fill:url(#GradientFill_9);}.cls-10,.cls-17{fill:#fff;}.cls-11{fill:url(#GradientFill_9-2);}.cls-12{fill:url(#GradientFill_3);}.cls-13{fill:url(#GradientFill_5);}.cls-14,.cls-32{fill:#fcd100;}.cls-15{fill:url(#GradientFill_5-2);}.cls-16{fill:url(#GradientFill_9-3);}.cls-18{fill:url(#GradientFill_9-4);}.cls-19{fill:url(#GradientFill_9-5);}.cls-20{fill:url(#GradientFill_9-6);}.cls-21{fill:url(#GradientFill_9-7);}.cls-22{fill:url(#GradientFill_22);}.cls-23{fill:url(#GradientFill_9-8);}.cls-24{fill:#7c7f82;}.cls-25{fill:url(#GradientFill_5-3);}.cls-26{fill:url(#GradientFill_5-4);}.cls-27{fill:url(#GradientFill_5-5);}.cls-28{fill:url(#GradientFill_7);}.cls-29{fill:#ffd523;}.cls-30{fill:#fc0;}.cls-31{fill:#fedf60;}</style><linearGradient id="GradientFill_1" x1="242.27019" y1="331.35995" x2="219.81312" y2="286.52205" gradientUnits="userSpaceOnUse"><stop offset="0" stop-color="#393a90"/><stop offset="1" stop-color="#392483"/></linearGradient><linearGradient id="GradientFill_1-2" x1="192.54749" y1="317.41412" x2="187.28794" y2="313.55411" xlink:href="#GradientFill_1"/><linearGradient id="GradientFill_1-3" x1="199.37918" y1="326.9884" x2="195.75282" y2="318.44662" xlink:href="#GradientFill_1"/><linearGradient id="GradientFill_1-4" x1="266.23609" y1="328.37962" x2="263.77107" y2="324.76621" xlink:href="#GradientFill_1"/><linearGradient id="GradientFill_1-5" x1="255.948" y1="333.49773" x2="255.2557" y2="330.3278" xlink:href="#GradientFill_1"/><linearGradient id="GradientFill_1-6" x1="235.66353" y1="272.99772" x2="234.6289" y2="269.67286" xlink:href="#GradientFill_1"/><linearGradient id="GradientFill_1-7" x1="227.2119" y1="276.81006" x2="225.57913" y2="274.07322" xlink:href="#GradientFill_1"/><radialGradient id="GradientFill_21" cx="230.90946" cy="306.69219" r="28.33153" gradientUnits="userSpaceOnUse"><stop offset="0" stop-color="#e5e6e8"/><stop offset="1" stop-color="#fff"/></radialGradient><linearGradient id="GradientFill_9" x1="210.24879" y1="286.5311" x2="246.52739" y2="286.5311" gradientUnits="userSpaceOnUse"><stop offset="0" stop-color="#63b982"/><stop offset="1" stop-color="#33b5b4"/></linearGradient><linearGradient id="GradientFill_9-2" x1="214.06339" y1="290.34565" x2="250.34259" y2="290.34565" xlink:href="#GradientFill_9"/><linearGradient id="GradientFill_3" x1="17.5022" y1="17.50074" x2="59.58219" y2="33.28121" gradientUnits="userSpaceOnUse"><stop offset="0" stop-color="#55227e"/><stop offset="0.26191" stop-color="#4f4d94"/><stop offset="0.7675" stop-color="#439cbc"/><stop offset="1" stop-color="#3ebbcc"/></linearGradient><linearGradient id="GradientFill_5" x1="56.48877" y1="37.74496" x2="50.32981" y2="32.99446" gradientUnits="userSpaceOnUse"><stop offset="0" stop-color="#9b9b9d"/><stop offset="1" stop-color="#d1d1d2"/></linearGradient><linearGradient id="GradientFill_5-2" x1="76.853" y1="38.64171" x2="61.80724" y2="33.1533" xlink:href="#GradientFill_5"/><linearGradient id="GradientFill_9-3" x1="59.75652" y1="42.21507" x2="34.39079" y2="42.21507" xlink:href="#GradientFill_9"/><linearGradient id="GradientFill_9-4" x1="59.75624" y1="42.21507" x2="34.39009" y2="42.21507" xlink:href="#GradientFill_9"/><linearGradient id="GradientFill_9-5" x1="59.75632" y1="42.21507" x2="34.39038" y2="42.21507" xlink:href="#GradientFill_9"/><linearGradient id="GradientFill_9-6" x1="219.65079" y1="310.0478" x2="221.45114" y2="310.0478" xlink:href="#GradientFill_9"/><linearGradient id="GradientFill_9-7" x1="254.66833" y1="310.04776" x2="256.46854" y2="310.04776" xlink:href="#GradientFill_9"/><linearGradient id="GradientFill_22" x1="253.17357" y1="317.4093" x2="220.70593" y2="317.4093" xlink:href="#GradientFill_21"/><linearGradient id="GradientFill_9-8" x1="244.93461" y1="321.01185" x2="223.73604" y2="321.01185" xlink:href="#GradientFill_9"/><linearGradient id="GradientFill_5-3" x1="20.55532" y1="65.45902" x2="23.85067" y2="65.45902" xlink:href="#GradientFill_5"/><linearGradient id="GradientFill_5-4" x1="18.84504" y1="66.24412" x2="22.88071" y2="66.24412" xlink:href="#GradientFill_5"/><linearGradient id="GradientFill_5-5" x1="26.91573" y1="65.85177" x2="20.80835" y2="65.85177" xlink:href="#GradientFill_5"/><linearGradient id="GradientFill_7" x1="210.23359" y1="342.20896" x2="210.23359" y2="334.80599" gradientUnits="userSpaceOnUse"><stop offset="0" stop-color="#ffde2f"/><stop offset="0.29" stop-color="#f39137"/><stop offset="0.65" stop-color="#e9444c"/><stop offset="1" stop-color="#e7287a"/></linearGradient></defs><title>offer-3</title><path class="cls-1" d="M263.766,303.9953c1.1373,2.7046,3.3523,4.4768,4.9193,6.867a14.015,14.015,0,0,1,2.2904,8.3103c-.4521,9.0652-9.2336,14.959-17.7378,15.1381a18.4134,18.4134,0,0,1-8.862-2.0633c-4.3679-2.2541-8.6241-5.1151-13.6193-5.7325-12.7942-1.5792-28.9474,6.8411-38.66-5.3167-8.8135-11.0318-2.3636-25.7201,10.36539-29.5781,4.1601-1.2603,9.1687-1.9967,12.6216-4.8296,3.4795-2.8559,5.07-7.4107,8.0254-10.7224,6.9035-7.7346,19.2688-10.2597,28.878-6.5571,6.0633,2.3361,9.6423,7.3437,10.6767,13.6313C263.77849,289.9185,261.05129,297.5377,263.766,303.9953Z" transform="translate(-188.03008 -267.83223)"/><path class="cls-2" d="M191.8054,320.4023v-.01h.006a5.31384,5.31384,0,0,0,.3575-.7197v-.0071h.0028c.017-.0419.0332-.0839.049-.1261v-.0298h.0111q.0213-.05655.0408-.1139v-.0417h.0142q.08205-.24315.1417-.4932v-.0261h.0062q.02475-.10545.0457-.2117v-.0479h.0093c.0159-.0851.0304-.1707.0426-.2566v-.0031h.0005q.0357-.24705.0516-.4972v-.1777h.0088q.00855-.2334.0003-.4675h-.0091v-.191c-.0102-.1616-.0264-.3232-.0479-.4839h-.0042v-.03q-.01965-.14115-.0451-.2815h-.0068v-.0369q-.02085-.11175-.0454-.2228h-.0065v-.0297q-.0438-.19395-.0984-.3855h-.0053v-.0193c-.0134-.0457-.027-.0913-.0411-.1367h-.0111v-.0348c-.0459-.1457-.0969-.2903-.1525-.4326h-.0031v-.0079c-.0471-.1199-.0973-.2387-.1508-.3555h-.0051v-.0108c-.0142-.0311-.0289-.062-.0437-.0929h-.0082v-.017c-.0261-.0539-.0524-.1075-.0799-.1608q-.03495-.0675-.0706-.1338h-.0051v-.0093l-.0519-.0947h-.0003q-.0735-.1326-.1502-.2594h-.0054v-.0088c-.1315-.2165-.2693-.4212-.4116-.6145h-.0037v-.0051q-.0765-.10335-.1545-.2024h-.0014v-.002q-.12585-.16065-.2551-.3095h-.0045v-.0054l-.0406-.0468h-.0113v-.0127a8.91349,8.91349,0,0,0-1.1344-1.0775h-.008v-.0062a9.05634,9.05634,0,0,0-.8764-.6168h-.0063v-.004c-.231-.1429-.4351-.2543-.5987-.3373q.00765.2742.0247.5488h.0028v.0462q.0183.28815.0465.5768h.0054v.0524q.02085.2076.0471.415h.0048v.038q.04425.3444.1026.6888h.0014v.0071q.0213.1263.0451.2526h.0068v.0368q.0897.4755.2072.9499h.0006v.002q.11565.46725.2593.9326h.0003v.0009q.02385.0774.0485.155h.0034v.0099c.0156.0485.0312.0973.0473.1457h.0046v.0139q.0234.0711.0476.1421h.0042v.0124c.0162.0479.0329.0956.0496.1432h.0023v.0071a17.84027,17.84027,0,0,0,.7257,1.7583h.0014v.0025c.0159.0341.0323.0678.0485.1015h.0034v.0068l.047.097h.0049v.0093q.02325.04725.047.0944h.0048v.0102q.1935.3861.4079.7688h.0077v.0136l.0507.0901h.0012v.002q.267.4695.5672.9326h.0039v.0065c.0324.0499.065.0995.0978.1494h.006v.0091l.0161.0244c.2135.2814.4179.5312.6038.748l.1137-.0224C191.7757,320.4519,191.7904,320.4272,191.8054,320.4023Z" transform="translate(-188.03008 -267.83223)"/><path class="cls-3" d="M202.44979,327.1963v-.0017h.0202c.1366-.0124.2687-.0283.3954-.047v-.0051h.032q.1446-.0222.2795-.0485v-.0034h.017a7.17311,7.17311,0,0,0,.9196-.2466,2.51915,2.51915,0,0,0,.0499-.3532v-.231h.0073c-.0002-.0519-.0019-.1038-.0048-.1556h-.0025v-.042c-.0083-.125-.023-.2497-.0431-.3736h-.0088v-.053c-.0077-.0445-.0159-.089-.0249-.1332q-.01245-.063-.027-.1253h0v-.0003a4.46164,4.46164,0,0,0-.1528-.5188h-.0031v-.0085c-.0309-.0847-.0643-.1686-.1003-.2511H203.8v-.0077q-.0681-.15465-.1491-.3038h-.0068v-.0128c-.0168-.0306-.0338-.0609-.0513-.0913h-.0006v-.0005c-.0624-.1069-.1296-.2109-.2021-.311h-.0054v-.0076q-.09525-.13065-.2016-.252h-.0062v-.0071c-.0161-.0185-.0326-.0366-.0493-.0547-.0298-.0324-.0604-.0635-.0913-.0939h-.0153v-.0147c-.0127-.0128-.0258-.025-.0391-.0371h-.0128v-.0117l-.045-.0405h-.0068v-.0057q-.09315-.08025-.1914-.1499h-.0164v-.0116c-.0465-.0324-.0938-.0633-.142-.0922h-.0136v-.0082c-.0256-.015-.0511-.0298-.0766-.0439h-.0275v-.0148c-.0238-.0127-.0476-.0249-.072-.0371h-.0317v-.0156c-.0261-.0125-.0525-.0247-.0791-.0363h-.0247v-.0107c-.0337-.0145-.0674-.0281-.1014-.0411h-.0026v-.0009c-.0476-.0184-.0955-.0354-.1443-.051h-.0113v-.0037q-.0825-.0264-.1667-.0482h-.0411v-.0105c-.0641-.0156-.1284-.0295-.1936-.0417h-.0142v-.0022a3.81618,3.81618,0,0,0-.3895-.0496h-.1817v-.01q-.11265-.00375-.2262-.0025c-.1136.0014-.2287.0057-.3449.0111v.0014h-.0352a3.58131,3.58131,0,0,1-2.2391-.341c-.78149-.5233-.97419-1.5299-1.35719-2.4109h-.0031v-.0071a3.60119,3.60119,0,0,0-.4108-.7313,2.99108,2.99108,0,0,0-.2092-.2483h-.0031v-.0032l-.047-.0487h-.0049v-.0051l-.0476-.0468h-.0045v-.0042c-.0167-.0162-.0337-.0321-.0508-.0477h-.0011v-.0008a2.99588,2.99588,0,0,0-.2523-.2069h-.0073v-.0054a3.15446,3.15446,0,0,0-.413-.2543h-.0023v-.0011c-.034-.0176-.0683-.0346-.1026-.0508h-.0012v-.0005a3.49067,3.49067,0,0,0-.3897-.1554h-.0258v-.0082c-.0479-.0156-.0961-.03-.1446-.0437h-.011v-.0031c-.0655-.0178-.1313-.0343-.1976-.0487h-.0102v-.0023q-.13695-.0294-.2758-.0496h-.0358v-.0048a4.48784,4.48784,0,0,0-1.1942.002v.0028h-.0218q-.1458.01995-.2897.0493v.0026h-.0125c-.1094.0227-.218.0487-.3246.0791-.0561.0158-.1131.0331-.1692.0501-.0394.0131-.0791.0255-.1185.0392-.0343.0113-.0683.0232-.1023.0354v.004h-.0105q-.1254.045-.2492.0955v.0082h-.0198q-.12075.0498-.2398.1035v.0005h-.0009q-.0765.0345-.1522.0706-.1968.09315-.3895.1962c-.0589.0312-.3245.1808-.3492.1947q.20205.34185.4204.6806h.0042v.0065q.04815.07485.0976.1494h.0062v.0097q.04845.07305.0972.1462h.0068v.0097q.1017.15135.2072.3019h.0003v.0002q.20115.2871.4153.5709h.0003v.0003q.16755.222.343.4419l.0201.025h.0003v.0003c.0844.1051.1692.2092.2548.3112h.0048v.006l.0389.0459h.013v.0159q.12675.15.2546.2956h.0051v.006l.0402.0462h.0116v.013q.23055.26025.4655.506h.002v.002l.0476.0501h.0042v.0046l.046.0473h.0059v.006l.0448.0459h.0071v.0074l.0436.0445h.0083v.0085l.0433.0433h.0088v.0088l.0428.0434h.0091v.0091l.0431.0428h.0088v.0085l.0439.0434h.0079v.0079l.0448.0439h.0071v.0068l.0468.0451h.0051v.0051l.0487.0468h.0034v.0034l.0511.0487h.0008v.0006q.22455.213.4524.4147h.0148v.013l.0439.0389h.0082v.0071l.0519.0448q.1212.10545.2438.2077h.0159v.0131l.0467.0388h.0051v.0043q.25725.21255.5185.4113h.0008v.0002q.06855.05235.1372.1035h.0185v.0136l.0515.0383h.0003v.0003q.0711.0522.1426.1037h.0133v.0097q.10335.074.2072.1459h.0006v.0003q.15225.1059.3059.2075h.0056v.0037q.07665.05055.1537.1001h.002v.0014q.12195.0786.2446.1545h.015v.009c.0516.0321.1035.0635.1554.0947h.0005v.0003q.41085.2475.8306.4672h0l.1003.0518h.0037v.002c.0326.0167.0652.0335.0981.0499h.0057v.0028c.0326.0165.0649.0329.0975.0491h.0065v.0031l.09889.0488h.0048v.0025l.1026.0496h.0012v.0006q.22365.1071.4496.2069h.0178v.0079l.1004.044h.0034v.0017c.0802.0346.1607.0689.2412.1023h.0184v.0077q.53835.22275,1.088.4076h.0025v.0008q.0765.02595.1536.0511h.002v.0008q.42825.13995.8629.2588h.0198v.0054c.1248.0343.2498.0669.3753.0986h.0403v.0103l.0113.0028c.0729.0048.1463.0082.2209.0108A6.77007,6.77007,0,0,0,202.44979,327.1963Z" transform="translate(-188.03008 -267.83223)"/><path class="cls-4" d="M261.69589,332.2324v-.0012h.002c.034-.0167.068-.0334.1018-.0504v-.0014h.0031q.05055-.0252.1006-.0508v-.0011h.0026l.1014-.0519v-.0003h.0003q.3414-.17505.6747-.3631v-.0003h.0002c.0868-.049.1735-.0983.2594-.1485v-.0071h.0122q.1242-.07305.2475-.1477v-.0082h.0133q.12375-.07485.2463-.1519v-.0037h.006q.07515-.04725.1496-.0953v-.0087h.0139q.22875-.14715.4536-.3002v-.0114h.0161q.0702-.048.1395-.0966v-.0071h.0105c.0487-.0343.0969-.0686.1454-.1032v-.0009h.0011l.0508-.036v-.0158h.0218c.0448-.0323.0893-.0649.1341-.0978v-.006h.0082c.0669-.0493.1332-.0986.1993-.1488v-.0071h.0091q.0999-.0756.1987-.153v-.0026h.0034c.0861-.0672.1715-.1355.2562-.2041v-.0037h.0045q.1548-.12585.307-.2551v-.0045h.0054l.0465-.0394v-.0125h.0145l.0374-.032v-.0199h.0227q.1458-.1263.2888-.2557v-.0039h.0046l.0476-.0437v-.0082h.009q.45285-.4146.8737-.8589v-.0238h.0227l.0292-.0315v-.0204h.0189l.0329-.0357v-.0164h.0153l.0366-.0395v-.0124h.0116l.0403-.0445v-.0074h.0068l.0453-.0499v-.002h.0017q.15735-.17475.3099-.354v-.0094h.0079l.0439-.0516v-.0005h.0003q.0783-.09315.1554-.188v-.0195h.0161l.0357-.0445v-.0074h.0063c.0501-.0626.1003-.1256.1496-.1891v-.0187h.0148l.0371-.0479v-.004h.0031c.034-.0439.0675-.0878.1009-.132v-.0239h.0179l.034-.0456v-.0062h.0046q.0765-.1029.151-.207v-.0008h.0009c.106-.1477.21-.2974.3107-.4487v-.0185h.0124c.0309-.0465.0613-.0932.0916-.14v-.0159h.0102q.04725-.07305.0935-.1471v-.0085h.0054c.0156-.0247.0312-.0493.0465-.0743v-.0297h.0184c.0287-.0465.0573-.093.0857-.1401v-.0155h.009c.0499-.0831.0984-.1664.1466-.2503v-.0094h.0054q.13095-.2292.2542-.4635v-.0039h.0023l.0496-.0961v-.0077h.004l.0479-.0938v-.0102h.0051c.0159-.0312.0314-.0627.047-.0941v-.0097h.0046c.0158-.032.0317-.0637.0473-.0958v-.0079h.004c.0161-.0337.0317-.0675.0479-.1012v-.0028h.0011q.10725-.2259.2067-.4561v-.0111h.0048q.1059-.24615.2027-.4975v-.0218h.0082c.0147-.0383.0295-.0765.0436-.1148v-.0411h.0156l.0366-.1009v-.0547h.0195c.0111-.0304.0216-.0607.0324-.0913v-.0125h.0042q.0243-.0693.0476-.1386v-.0173h.006c.0156-.0467.0309-.0941.0459-.1411v-.0145h.0048c.0159-.0499.0315-.1001.0471-.1502v-.0057h.002c.0119-.0386.0238-.0768.0354-.1154-.2914-.0995-1.4159-.333-1.5375-.3523-.1593-.0252-.3192-.0423-.4788-.0516h-.1499v-.0062c-.0868-.0023-.1732-.0026-.2597-.0006v.0068h-.1769q-.2499.0144-.498.0516v.0003h-.002q-.1293.0195-.2577.0445v.0076h-.0363c-.0748.015-.1491.0318-.2233.0496v.0023h-.0088q-.17865.04335-.3546.0981v.0056h-.019c-.0457.0142-.0913.0292-.1369.0445v.0074h-.0224c-.0445.0153-.089.0306-.1333.0468v.0051h-.0141q-.256.0939-.5052.2078h0c-.0348.0158-.0694.032-.1037.0482v.0036h-.0077l-.0963.0468v.0054h-.0102c-.0312.0153-.0624.0312-.0936.0473v.0046h-.0088c-.032.0164-.0635.0329-.0949.0496v.0023h-.004q-.1824.09735-.3597.2043v.0034h-.0054c-.2123.1284-.4187.2671-.6177.4133v.002h-.0025q-.26745.19725-.5168.4124v.0029h-.0031l-.0488.0425v.0096h-.0107c-.1134.0998-.2237.2024-.3303.3067q-.2283.22365-.4376.4661v.0059h-.0054q-.131.15135-.2543.3096v.0019h-.0017q-.0786.1008-.1542.2036v.0042h-.0031c-.0363.0496-.0723.0998-.1074.15-.0329.047-.0652.0947-.0973.1423v.0193h-.0127c-.0306.0464-.0613.0929-.091.14v.0159h-.0099c-.0142.0221-.0281.0445-.042.0669v.0368h-.0227l-.0292.0479v.004h-.0025c-.0167.0278-.0332.0553-.0493.0833v.0207h-.0125l-.0397.0686v.0352h-.0198l-.0321.0567v.047h-.0258l-.026.0479v.004h-.0023l-.0496.0938v.0102h-.0054c-.0156.0301-.0312.0604-.0465.0907v.0131h-.0068q-.0498.099-.0972.199v.0087h-.004c-.0162.0343-.032.0686-.0479.1032v.0006h-.0003c-.0176.0385-.0346.0768-.0516.1156v.0403h-.0175c-.0117.0266-.023.0536-.0343.0805v.0232h-.01c-.0141.0343-.0283.0686-.0419.1032v.0527h-.0213l-.0309.0791v.0766h-.0289l-.023.0626v.0414h-.0147c-.0127.0349-.0249.07-.0371.1054v.0502h-.0173q-.0753.22365-.1386.451v.0165h-.0043q-.0246.08925-.0476.1791v.0805h-.0198c-.0111.0454-.0219.091-.0321.1366v.1228h-.0266q-.0132.0621-.0253.1241v.1355h-.0252c-.0093.0528-.0184.1058-.0266.1585v.0493h-.0077q-.0255.1671-.0442.3348v.1845h-.0184a7.98291,7.98291,0,0,0-.0221,1.1138c.0059.1326.1737,1.7744.1613,1.8907Q261.31874,332.41795,261.69589,332.2324Z" transform="translate(-188.03008 -267.83223)"/><path class="cls-5" d="M253.28409,334.3096v-.0014h.059q.38565-.0102.7718-.036v-.0159h.2186q.2802-.02205.5601-.0519h.0003c.121-.013.2424-.0272.3634-.0425v-.0093h.0757q.14415-.01875.2877-.0397v-.0125h.0842q.1398-.02085.2792-.0434v-.0085h.0516q.2862-.04755.5714-.1031v-.0006h.0026q.1029-.01995.2052-.0414v-.0105h.0519c.0692-.0144.1386-.0295.2078-.0448v-.0073h.0326c.0584-.0128.1168-.0258.1749-.0394v-.0125h.053c.0689-.0162.138-.0323.2066-.0493v-.0026h.0108q.0987-.02415.197-.0496v-.0023h.0094q.09945-.0255.1984-.0518h.0006q.18195-.0486.3628-.1007v-.0034h.0113c.0482-.0136.0964-.0278.1446-.0419v-.0099h.0334l.1222-.0366v-.0153h.0493c.0531-.0162.1058-.0326.1585-.0493v-.0026h.0082c.0493-.0156.0984-.0312.1474-.0473v-.0046h.0148q.0705-.023.1411-.0465v-.0053h.0165c.0465-.0156.0929-.0315.1391-.0471v-.0051h.0145q.27975-.0957.5567-.2001v-.0074h.0204c.0451-.0173.0905-.0343.1355-.0519v-.0003h.0006c.0346-.013.0689-.0263.1032-.0399v-.0119h.0303c.042-.0165.0839-.0329.1256-.0496v-.0023h.0054c.0329-.013.0657-.0264.0983-.0397v-.0122h.0298q.1152-.0471.2299-.0955v-.0082h.0196q.1203-.05145.24-.1038v-.0003h.0003q.3933-.173.7787-.3622v-.0012h.002l.1018-.0504v-.0014h.0031q.05055-.0252.1006-.0508v-.0011h.0028l.0097-.0051.0397-.0425v-.0046h.0036l.0154-.0175a1.13893,1.13893,0,0,0,.0847-.1134v-.0247h.015a.91282.91282,0,0,0,.0888-.1922v-.0156h.0051a.93291.93291,0,0,0,.0022-.5193h-.0073v-.0258a1.24668,1.24668,0,0,0-.046-.1298h-.0059v-.0147q-.0192-.0447-.0423-.0893h-.0096v-.019q-.02295-.0426-.0485-.0848h-.0034v-.0056a1.741,1.741,0,0,0-.1034-.15h-.0006v-.0008a2.29115,2.29115,0,0,0-.5627-.5185h-.0085v-.0057a1.89845,1.89845,0,0,0-.4141-.2052,1.67608,1.67608,0,0,0-.1752-.0488h-.0856v-.0167a1.96519,1.96519,0,0,0-.8827.0686h-.0003q-.0783.02295-.1553.0505v.0014h-.0049c-.0856.0306-.1706.0649-.2548.1023v.0017h-.004c-.0334.0148-.0669.0301-.1.0459v.006h-.0128q-.0624.0297-.1241.0612-.08685.04425-.1747.0927v.0017h-.0034a3.32915,3.32915,0,0,1-1.5936.5993,1.54987,1.54987,0,0,1-.4306-.0769,3.66392,3.66392,0,0,1-.6704-.3146h-.002v-.0011a5.80953,5.80953,0,0,0-.5873-.3031c-.0504-.0212-.1018-.0411-.1536-.0592h-.038v-.013c-.0411-.0139-.0825-.027-.1245-.0389h-.0311v-.009c-.0584-.0159-.1171-.0304-.1763-.0431h-.0315v-.0066q-.1446-.02925-.292-.0453h-.1754v-.0145c-.1072-.0059-.2149-.007-.3218-.0031q-.073.00255-.1454.008v.0096h-.1091c-.1029.0108-.2053.0258-.3065.0448v.0071h-.0377q-.11175.02205-.2219.0507v.0014h-.0057c-.0502.0131-.1.027-.1499.0417v.0102h-.0329c-.0411.0128-.0822.0261-.123.04v.0119h-.0346c-.0406.0141-.0808.0292-.1211.0445v.0073h-.0195q-.1212.04725-.2401.1012v.0029h-.0057c-.0329.0147-.0657.03-.0981.0459v.006h-.0124c-.0306.0147-.061.03-.0916.0456v.0062h-.0122c-.0306.0156-.0612.0318-.0915.0482v.0037h-.0071a5.98257,5.98257,0,0,0-.7719.5012q-.10545.08025-.2075.1644v.0093h-.0116q-.1812.15015-.3521.3104v.0012h-.0011q-.0519.0489-.1026.098v.006h-.0063l-.0456.0448v.0071h-.0074l-.0445.0448v.007h-.0073l-.0448.0457v.0062h-.0063l-.0456.0473v.0049h-.0045l-.0474.0499v.0019h-.0017q-.10155.1077-.1976.2169c-.0379.0431-.0754.0862-.1122.1301v.0164h-.0139l-.038.0454v.0065h-.0054c-.0331.04-.066.0805-.0986.1211v.0348h-.0275l-.0244.0309v.021h-.0161l-.0358.0462v.0057h-.0042c-.0162.0209-.032.0419-.0476.0629v.0408h-.0307l-.0212.0295v.0227h-.0167l-.0352.049v.0029h-.002c-.017.0235-.0334.047-.0501.0708v.0329h-.0227l-.0292.0428v.0091h-.0063l-.0456.0683v.0357h-.0232l-.0287.0442v.0077h-.0048c-.0337.0524-.0663.1051-.0986.1582-.027.0447-.3623.7035-.3768.7534q.05955.01185.1191.023h.1534v.0283c.0447.0079.0895.0159.1343.0235h.1772v.0298c.0468.0077.0938.015.1406.0221h.1709v.0255q.0948.0141.1896.0267h.1219v.0158c.1012.0128.2021.0247.3036.036h.008v.0009q.2682.0294.538.051h.5006v.0332q.2355.0123.4722.0187h.7739v.0045c.0366-.0005.0731-.0011.1097-.002Z" transform="translate(-188.03008 -267.83223)"/><path class="cls-6" d="M233.60459,274.0793v-.0036h.0584q.25725-.015.5127-.0499v-.002h.0139q.14925-.02085.2977-.0479v-.004h.0201q.225-.04215.4473-.0989v-.0048h.019c.0632-.0165.1259-.0338.1888-.0519h.0006c.0518-.015.1034-.0303.155-.0465v-.0057h.017q.14835-.04635.2945-.0989v-.0048h.0131a8.09663,8.09663,0,0,0,1.233-.5704v-.0008h.0015q.1305-.074.2582-.1528v-.0031h.0051q.2355-.14505.4623-.3053v-.0062h.0088a8.85158,8.85158,0,0,0,.718-.5661v-.0051h.006a8.94752,8.94752,0,0,0,.8249-.824V271.22h.0059a8.60315,8.60315,0,0,0,.8768-1.1902v-.004h.0025q.09015-.14805.1729-.2988c.0111-.0195.0216-.0391.0324-.0589v-.006h.0031c.0164-.0303.0329-.0609.0487-.0915v-.0122h.0066c.0153-.0295.0303-.059.0453-.0888v-.015h.0077l.0445-.0893v-.0147h.0071l.0447-.0936v-.0102h.0049l.047-.102v-.002h.0009q.0594-.13185.1148-.2656a8.74939,8.74939,0,0,0,.2724-.9805h-.1369q-.3075.02085-.6146.0482v.0037h-.0442c-.1412.013-.2823.0266-.4232.0416v.0105h-.0961q-.1599.0174-.3192.0363v.0156h-.1247q-.17145.0213-.3427.0448v.0071h-.0508q-.31245.04335-.6242.0938v.0099h-.0626c-.0831.0136-.1661.0278-.2489.042v.0099h-.057q-.10155.01785-.2026.0363v.0159h-.0856q-.1131.0207-.226.0428v.009h-.047q-.10635.02085-.2126.0425v.0094h-.0459q-.34155.0702-.6812.1485v.0074h-.0318c-.0586.0136-.1173.0272-.1757.0414v.0105h-.0442c-.0544.013-.1092.0263-.1636.0399v.012h-.0485c-.053.013-.1063.0266-.1593.0399v.0119h-.0462q-.0807.02085-.1615.042v.0099h-.0377c-.0567.015-.1134.03-.1698.0456v.0063h-.0238c-.0613.0167-.1228.0337-.184.0507v.0014h-.0043q-.52035.1455-1.034.3107v.0009h-.0023c-.0513.0164-.1026.0328-.1537.0496v.0022h-.0065l-.1494.0496v.0023h-.007q-.07455.02505-.1486.0505v.0014h-.0045q-.495.1692-.9819.3566v.0068h-.0187q-.1209.0468-.241.0944v.0096h-.0238q-.1182.0468-.2358.095v.0088h-.0216l-.0825.0337v.0181h-.0433c-.0375.0156-.0749.0312-.1123.0471v.0051h-.0119c-.0309.0128-.0615.0258-.0921.0388v.0131h-.0301q-.11475.0489-.2293.0992v.0045h-.0108c-.0312.0136-.0621.0275-.0932.0414v.0105h-.0238q-.3279.1458-.6512.2999v.0116h-.0241l-.0796.0386v.0133h-.0281l-.0759.0371v.0151h-.0307l-.0731.036v.0158h-.0323l-.0717.0357v.0162h-.0321l-.0717.036v.0159h-.0317l-.072.0368v.015h-.0295l-.0745.0383v.0139h-.0267l-.0771.0403v.0116h-.0224c-.0272.0142-.0544.0283-.0813.0428v.0091h-.0173l-.0868.0459v.0059h-.0107c-.0312.0165-.0621.0332-.093.0499v.002h-.0037q-.2334.12585-.4638.2565v.0032h-.0053c-.0851.0481-.1698.0972-.254.1465v.0094h-.0162c-.0292.017-.0587.034-.0879.0513v.0005h-.0008c-.0519.0304-.1035.0613-.1548.0922v.0116h-.0198l-.0094.0057q.089.102.1809.2021h.0039v.0042l.0443.0476h.0076v.0083q.19695.21.4062.4073h.0094v.0085l.0465.0434h.0053v.0048l.0516.047h.0003v.0003a7.04439,7.04439,0,0,0,.7189.5709h.0082v.0057q.1956.1344.4017.254h.0136v.0076q.16965.09735.3464.1834c.0881.0428.1769.0825.2659.1205h.0107v.0045c.0825.0352.165.0684.2481.0993h.0116v.0042q.14535.054.2914.0998h.0201v.0062c.0516.0162.1035.0312.1554.0457h.0005q.0996.0276.1993.0518h.0082v.002q.26535.06345.5318.1018h.0394v.0054q.23475.0327.4694.0465h.2058v.0087C233.29329,274.0884,233.44919,274.087,233.60459,274.0793Z" transform="translate(-188.03008 -267.83223)"/><path class="cls-7" d="M224.56969,278.5623v-.0209h.2197c.083-.0105.1655-.0233.2477-.0389v-.013h.0678c.0468-.0097.0935-.0201.14-.0315v-.0207h.0817q.0633-.0165.1258-.0351v-.0168h.0547q.077-.02415.1531-.0513v-.0005h.002c.087-.0312.1732-.0652.2576-.1021v-.0017h.0037c.0338-.0147.0669-.03.1001-.0456v-.0065h.0136q.04545-.0213.0904-.0443v-.0076h.0148c.0297-.0153.0595-.0309.089-.0471v-.0048h.0088q.1305-.0714.2545-.1525c.0513-.0337.1023-.0689.1519-.1054v-.0017h.0023a2.06273,2.06273,0,0,0,.5525-.58,1.34575,1.34575,0,0,0,.0686-.1298v-.017h.0071a1.17266,1.17266,0,0,0,.0966-.4153v-.104h.0009a2.32516,2.32516,0,0,0-.1018-.5712H227.27v-.0102a2.44761,2.44761,0,0,1-.1783-1.5222c.2072-.5845.9544-.7112,1.5026-1.0001a1.90268,1.90268,0,0,0,.1814-.1086v-.007h.0105a2.03054,2.03054,0,0,0,.197-.1543v-.0017h.002c.017-.0147.0338-.03.0502-.0456v-.0062h.0062c.0156-.0148.0307-.0295.0457-.0448v-.0071h.0071a2.2869,2.2869,0,0,0,.5122-.8289v-.0019h.0005a2.3109,2.3109,0,0,0,.1032-.4023v-.013h.002a2.13879,2.13879,0,0,0,0-.6752h-.002v-.0122q-.01395-.0816-.0343-.1624l-.0175.0093v.0097h-.0182l-.0859.0456v.0062h-.0116l-.0921.0493v.0026h-.0048q-.23265.12585-.4627.2563v.0034h-.0059c-.085.0481-.1692.0969-.2534.1459v.01h-.017c-.0289.017-.0581.0337-.0871.051v.0008h-.0014q-.0774.0456-.1542.0916v.0122h-.0204l-.0836.0504v.0015h-.0023l-.0496.03v.0221h-.0357l-.068.0417v.0102h-.0168q-.0696.0429-.1391.0864v.0173h-.0275l-.0763.0482v.0037h-.0059q-.0753.0477-.15.0958v.0082h-.0125q-.3087.1986-.6105.4068v.0085h-.0125q-.07185.04935-.1432.0995v.0043h-.0065l-.0456.0323v.0198h-.0281l-.1275.0907v.0131h-.0185c-.0459.0329-.0915.066-.1375.0995v.0042h-.0059l-.0459.0337v.0182h-.0253l-.1304.0969v.0071h-.0096q-.09945.07395-.1981.1494v.0062h-.0083q-.1002.07665-.1995.154v.002h-.0023q-.1293.10065-.2574.2038v.0039h-.0048q-.15435.1242-.3067.2509v.0088h-.0105l-.0414.0346v.0173h-.0204l-.0314.0263v.0255h-.0304q-.0888.0753-.1774.1517v.004h-.0046l-.0473.0411v.011h-.0125l-.0394.034v.0179h-.0201l-.0317.0278v.0241h-.0275q-.14295.12615-.2841.2551v.0045h-.0048l-.0473.0434v.0085h-.0094q-.50295.46305-.9771.9567v.0297h-.0283l-.0236.0247v.0275h-.026l-.0258.0272v.0247h-.0233l-.0286.0303v.0215h-.0204l-.0318.0341v.0178h-.0167l-.0351.038v.0139h-.0131l-.0388.0422v.0097h-.0088l-.0431.047v.0051h-.0045q-.0795.08685-.1582.1749-.10125.11355-.2007.2293v.0111h-.0096l-.0425.0499v.002h-.0017q-.07785.09135-.154.1834v.0244h-.0201l-.0317.0385v.0133h-.0111l-.0411.0502v.0017h-.0011q-.07785.0957-.1545.1925v.0153h-.0122l-.0397.0504v.0015h-.0011c-.0519.0663-.1035.1326-.1548.1995v.0082h-.0062q-.1548.2025-.3053.4088v.0065h-.0048q-.0537.07365-.1069.1477a11.33509,11.33509,0,0,0,1.2991.6676l.0445.0155h.0142v.0049q.0753.0255.1514.047h.0564v.0156q.07485.01995.1502.0366h.1094v.0218c.0635.0119.1273.0218.1916.0301h.0681v.0079A3.77337,3.77337,0,0,0,224.56969,278.5623Z" transform="translate(-188.03008 -267.83223)"/><path class="cls-8" d="M210.24879,321.5588a.81943.81943,0,0,0,.8192.8192h35.4594V287.3259h-36.2786Z" transform="translate(-188.03008 -267.83223)"/><path class="cls-9" d="M245.80289,285.7363h-34.829a.72509.72509,0,0,0-.7251.7256v.864h36.2786v-.864A.72458.72458,0,0,0,245.80289,285.7363Z" transform="translate(-188.03008 -267.83223)"/><path class="cls-10" d="M214.06339,325.3734a.81866.81866,0,0,0,.8192.8192h34.6413a.81856.81856,0,0,0,.8187-.8192V291.1405h-36.2792Z" transform="translate(-188.03008 -267.83223)"/><path class="cls-11" d="M249.61749,289.5508h-34.829a.72524.72524,0,0,0-.7251.7254v.8643h36.2792v-.8643A.72531.72531,0,0,0,249.61749,289.5508Z" transform="translate(-188.03008 -267.83223)"/><rect class="cls-12" x="34.77221" y="24.33757" width="30.5147" height="10.7226"/><polygon class="cls-13" points="44.173 35.06 60.882 35.06 52.527 27.875 44.173 35.06"/><path class="cls-14" d="M227.94939,293.9783a1.17734,1.17734,0,1,0,1.607.4365A1.17625,1.17625,0,0,0,227.94939,293.9783Z" transform="translate(-188.03008 -267.83223)"/><polygon class="cls-15" points="51.191 35.06 65.287 35.06 65.287 31.866 59.898 26.677 51.191 35.06"/><path class="cls-16" d="M35.16281,37.66917h7.422a.39.39,0,0,1,.39.39v8.3121a.3897.3897,0,0,1-.3897.3897h-7.4234a.3895.3895,0,0,1-.3895-.3895v-8.3117A.3906.3906,0,0,1,35.16281,37.66917Z"/><path class="cls-17" d="M35.86821,38.75h4.0855a.1505.1505,0,0,1,.1505.1505v.7802a.1505.1505,0,0,1-.1505.1505h-4.0855a.1506.1506,0,0,1-.1506-.1506v-.78A.1506.1506,0,0,1,35.86821,38.75Z"/><path class="cls-17" d="M35.92231,41.12147h3.8166a.2043.2043,0,0,1,.2043.2043v.0228a.2043.2043,0,0,1-.2043.2043h-3.8163a.205.205,0,0,1-.205-.205v-.0217A.2047.2047,0,0,1,35.92231,41.12147Z"/><path class="cls-17" d="M40.82511,41.12147h1a.2049.2049,0,0,1,.2049.2049v.0224a.2041.2041,0,0,1-.2041.2041h-1.0011a.2044.2044,0,0,1-.2044-.2044v-.0223A.2047.2047,0,0,1,40.82511,41.12147Z"/><path class="cls-17" d="M35.92191,42.34267h1.9214a.2043.2043,0,0,1,.2043.2043v.0227a.2047.2047,0,0,1-.2047.2047h-1.9215a.2038.2038,0,0,1-.2038-.2038V42.547A.2043.2043,0,0,1,35.92191,42.34267Z"/><path class="cls-17" d="M38.67711,42.34267h3.1482a.2047.2047,0,0,1,.2047.2047v.0223a.2047.2047,0,0,1-.2047.2047h-3.1481a.2044.2044,0,0,1-.2044-.2044v-.023A.2043.2043,0,0,1,38.67711,42.34267Z"/><path class="cls-17" d="M35.92261,43.56347h.4498a.2043.2043,0,0,1,.2043.2043v.0231a.2049.2049,0,0,1-.2049.2049h-.4499a.2043.2043,0,0,1-.2043-.2043v-.023A.205.205,0,0,1,35.92261,43.56347Z"/><path class="cls-17" d="M38.95561,43.56347h2.87a.2044.2044,0,0,1,.2044.2044v.023a.2044.2044,0,0,1-.2044.2044H38.955a.2044.2044,0,0,1-.2044-.2044v-.0224A.205.205,0,0,1,38.95561,43.56347Z"/><path class="cls-17" d="M37.18481,43.56347h1.0003a.205.205,0,0,1,.205.205v.0224a.2044.2044,0,0,1-.2044.2044h-1.0009a.205.205,0,0,1-.205-.205v-.0218A.205.205,0,0,1,37.18481,43.56347Z"/><path class="cls-17" d="M35.92231,44.785h5.9034a.2043.2043,0,0,1,.2043.2043v.0225a.2049.2049,0,0,1-.2049.2049H35.922a.2044.2044,0,0,1-.2044-.2044v-.0226A.2047.2047,0,0,1,35.92231,44.785Z"/><path class="cls-18" d="M46.31851,37.66917h7.4231a.3901.3901,0,0,1,.3901.3901v8.312a.3897.3897,0,0,1-.3897.3897H46.318a.3901.3901,0,0,1-.3901-.3901v-8.3111A.3906.3906,0,0,1,46.31851,37.66917Z"/><path class="cls-17" d="M47.02421,38.75h4.0852a.1505.1505,0,0,1,.1505.1505v.7802a.1505.1505,0,0,1-.1505.1505h-4.0853a.1505.1505,0,0,1-.1505-.1505v-.7801A.1506.1506,0,0,1,47.02421,38.75Z"/><path class="cls-17" d="M47.07831,41.12147h.6367a.2046.2046,0,0,1,.2046.2046v.0227a.2041.2041,0,0,1-.2041.2041H47.078a.2044.2044,0,0,1-.2044-.2044v-.0223A.2047.2047,0,0,1,47.07831,41.12147Z"/><path class="cls-17" d="M48.54781,41.12147h4.4337a.2043.2043,0,0,1,.2043.2043v.023a.2041.2041,0,0,1-.2041.2041h-4.4342a.2044.2044,0,0,1-.2044-.2044v-.0223A.2047.2047,0,0,1,48.54781,41.12147Z"/><path class="cls-17" d="M47.07791,42.34267h3.8292a.2046.2046,0,0,1,.2046.2046v.0224a.2047.2047,0,0,1-.2047.2047h-3.8287a.2047.2047,0,0,1-.2047-.2047V42.547a.2043.2043,0,0,1,.2043-.2043Z"/><path class="cls-17" d="M51.74061,42.34267h1.2408a.2044.2044,0,0,1,.2044.2044v.0226a.2047.2047,0,0,1-.2047.2047h-1.2404a.2044.2044,0,0,1-.2044-.2044v-.023A.2043.2043,0,0,1,51.74061,42.34267Z"/><path class="cls-17" d="M47.07861,43.56347h.4498a.2046.2046,0,0,1,.2046.2046v.0228a.2049.2049,0,0,1-.2049.2049h-.4496a.2049.2049,0,0,1-.2049-.2049v-.0224A.205.205,0,0,1,47.07861,43.56347Z"/><path class="cls-17" d="M52.65461,43.56347h.3274a.2038.2038,0,0,1,.2038.2038v.0242a.2038.2038,0,0,1-.2038.2038h-.328a.2044.2044,0,0,1-.2044-.2044v-.0224A.205.205,0,0,1,52.65461,43.56347Z"/><path class="cls-17" d="M48.34061,43.56347h3.5435a.2049.2049,0,0,1,.2049.2049v.0225a.2044.2044,0,0,1-.2044.2044h-3.5441a.2049.2049,0,0,1-.2049-.2049v-.0219A.205.205,0,0,1,48.34061,43.56347Z"/><path class="cls-17" d="M47.07831,44.785h2.088a.2046.2046,0,0,1,.2046.2046v.0222a.2049.2049,0,0,1-.2049.2049h-2.0883a.2041.2041,0,0,1-.2041-.2041v-.0229A.2047.2047,0,0,1,47.07831,44.785Z"/><path class="cls-17" d="M50.25681,44.785h2.7241a.2049.2049,0,0,1,.2049.2049v.0219a.2049.2049,0,0,1-.2049.2049H50.257a.2049.2049,0,0,1-.2049-.2049v-.0221A.2047.2047,0,0,1,50.25681,44.785Z"/><path class="cls-19" d="M57.47431,37.66917h7.4223a.3903.3903,0,0,1,.3903.3903v8.3112a.3903.3903,0,0,1-.3903.3903h-7.4234a.3895.3895,0,0,1-.3895-.3895v-8.3117A.3906.3906,0,0,1,57.47431,37.66917Z"/><path class="cls-17" d="M58.17991,38.75h4.0854a.1506.1506,0,0,1,.1506.1506v.7801a.1505.1505,0,0,1-.1505.1505h-4.0856a.1505.1505,0,0,1-.1505-.1505v-.7801a.1506.1506,0,0,1,.1506-.1506Z"/><path class="cls-17" d="M58.234,41.12147h.6366a.2047.2047,0,0,1,.2047.2047v.0226a.2041.2041,0,0,1-.2041.2041h-.6375a.2044.2044,0,0,1-.2044-.2044v-.0223A.2047.2047,0,0,1,58.234,41.12147Z"/><path class="cls-17" d="M59.70351,41.12147h4.4342a.2044.2044,0,0,1,.2044.2044v.0229a.2041.2041,0,0,1-.2041.2041h-4.4342a.205.205,0,0,1-.205-.205v-.0217A.2047.2047,0,0,1,59.70351,41.12147Z"/><path class="cls-17" d="M58.23361,42.34267h3.8291a.2047.2047,0,0,1,.2047.2047v.0223a.2047.2047,0,0,1-.2047.2047h-3.8288a.2046.2046,0,0,1-.2046-.2046V42.547a.2043.2043,0,0,1,.2043-.2043Z"/><path class="cls-17" d="M62.89631,42.34267h1.2414a.2044.2044,0,0,1,.2044.2044v.0226a.2047.2047,0,0,1-.2047.2047H62.897a.205.205,0,0,1-.205-.205V42.547A.2043.2043,0,0,1,62.89631,42.34267Z"/><path class="cls-17" d="M58.23431,43.56347h.4498a.2047.2047,0,0,1,.2047.2047v.0227a.2049.2049,0,0,1-.2049.2049h-.4497a.2049.2049,0,0,1-.2049-.2049v-.0224A.205.205,0,0,1,58.23431,43.56347Z"/><path class="cls-17" d="M63.81041,43.56347h.3274a.2043.2043,0,0,1,.2043.2043v.0231a.2044.2044,0,0,1-.2044.2044h-.3273a.205.205,0,0,1-.205-.205v-.0218A.205.205,0,0,1,63.81041,43.56347Z"/><path class="cls-17" d="M59.49691,43.56347h3.5429a.2044.2044,0,0,1,.2044.2044v.023a.2044.2044,0,0,1-.2044.2044h-3.5436a.2043.2043,0,0,1-.2043-.2043v-.0225A.205.205,0,0,1,59.49691,43.56347Z"/><path class="cls-17" d="M58.234,44.785h2.0885a.2047.2047,0,0,1,.2047.2047v.0221a.2049.2049,0,0,1-.2049.2049h-2.0884a.2046.2046,0,0,1-.2046-.2046v-.0224A.2047.2047,0,0,1,58.234,44.785Z"/><path class="cls-17" d="M61.41251,44.785h2.7246a.205.205,0,0,1,.205.205v.0218a.2049.2049,0,0,1-.2049.2049h-2.7244a.205.205,0,0,1-.205-.205v-.022A.2047.2047,0,0,1,61.41251,44.785Z"/><path class="cls-20" d="M221.37649,307.8043a.24077.24077,0,0,0-.3337.0666l-1.3651,2.0429a.24277.24277,0,0,0,0,.2676l1.3651,2.0429a.24067.24067,0,0,0,.4003-.2673l-1.275-1.9088,1.275-1.9095A.24121.24121,0,0,0,221.37649,307.8043Z" transform="translate(-188.03008 -267.83223)"/><path class="cls-21" d="M255.077,307.8709a.241.241,0,1,0-.4008.2678l1.275,1.9095-1.275,1.9088a.24088.24088,0,1,0,.4008.2673l1.364-2.0429a.24053.24053,0,0,0,0-.2676Z" transform="translate(-188.03008 -267.83223)"/><path class="cls-22" d="M252.54569,316.7311h-28.9721a.77114.77114,0,0,0-.7713.7716v.5848H253.317v-.5848A.77114.77114,0,0,0,252.54569,316.7311Z" transform="translate(-188.03008 -267.83223)"/><path class="cls-23" d="M222.80229,323.204a.73173.73173,0,0,0,.7316.7322h29.0512a.73179.73179,0,0,0,.7319-.7322v-5.1165h-30.5147Z" transform="translate(-188.03008 -267.83223)"/><polygon class="cls-24" points="21.362 44.382 23.044 44.382 22.203 42.216 21.362 44.382"/><path class="cls-10" d="M211.81829,314.0841c-.0439-.0918-.089-.1825-.1261-.2772l-.6182-1.5928h-1.6821l-.6183,1.5928c-.0371.0947-.0822.1854-.1258.2772a.73187.73187,0,0,0-.0624.3209c0,.8935.8447,2.0628,1.5069,2.0832.8025.0247,1.7881-1.1137,1.7881-2.0815a.66937.66937,0,0,0-.021-.2171A.9149.9149,0,0,0,211.81829,314.0841Z" transform="translate(-188.03008 -267.83223)"/><rect class="cls-25" x="20.55532" y="65.25057" width="3.2947" height="0.4169"/><rect class="cls-26" x="20.55532" y="66.03577" width="3.2947" height="0.4167"/><rect class="cls-27" x="20.55532" y="65.66777" width="3.2947" height="0.368"/><path class="cls-28" d="M208.58539,334.2847v1.0686c0,.4726.5182.8564,1.158.8564h1.0026c.6403,0,1.1358-.3838,1.1358-.8564l-.0014-1.0686Z" transform="translate(-188.03008 -267.83223)"/><polygon class="cls-29" points="21.362 65.251 22.203 65.251 22.203 46.444 21.362 47.551 21.362 65.251"/><polygon class="cls-30" points="20.555 65.251 21.362 65.251 21.362 47.551 20.555 46.651 20.555 65.251"/><polygon class="cls-14" points="22.203 65.251 23.056 65.251 23.056 47.557 22.203 46.444 22.203 65.251"/><polygon class="cls-31" points="23.056 47.557 23.056 65.251 23.85 65.251 23.85 46.651 23.056 47.557"/><path class="cls-14" d="M255.00729,285.3465l-8.4512-4.8549a4.87387,4.87387,0,0,1,8.4512,4.8549Zm3.5997,2.0681-1.3161-.756a7.50738,7.50738,0,0,0-13.0184-7.4792l-1.3162-.7557a.32928.32928,0,0,0-.4498.1219l-1.3005,2.2621a.33138.33138,0,0,0,.1221.4512l1.2461.7161,1.0165-1.7635a.29249.29249,0,0,1,.3688-.1278.28408.28408,0,0,1,.129.4005l-1.0225,1.7734,1.0554.6057.3376-.5853a.29166.29166,0,0,1,.3688-.1273.28334.28334,0,0,1,.129.4l-.3436.5955,1.0542.6052,1.0134-1.7577a.29284.29284,0,0,1,.3693-.1279.28366.28366,0,0,1,.129.4003l-1.0193,1.7682,1.0548.6064.3344-.5806a.29245.29245,0,0,1,.3691-.1278.28388.28388,0,0,1,.1293.4002l-.3405.5911,1.0542.6052,1.0103-1.753a.29184.29184,0,0,1,.3685-.1281.2839.2839,0,0,1,.1293.4005l-1.0163,1.7635,1.0548.6057.3322-.5757a.29127.29127,0,0,1,.3688-.1276.28334.28334,0,0,1,.1284.4l-.337.5859,1.0536.6061,1.0075-1.749a.29286.29286,0,0,1,.3693-.1273.28362.28362,0,0,1,.129.4006l-1.0137,1.7583,1.0551.6058.328-.5681a.29127.29127,0,0,1,.3682-.1278.2838.2838,0,0,1,.1295.4002l-.3333.5786,1.0536.6052,1.0114-1.7541a.28406.28406,0,0,1,.411-.0893.29254.29254,0,0,1,.0743.3835l-1.0046,1.7427,1.5395.8845a.32971.32971,0,0,0,.4504-.1222l1.3-2.2621A.331.331,0,0,0,258.607,287.4146Z" transform="translate(-188.03008 -267.83223)"/><path class="cls-10" d="M256.34519,287.2242a.28338.28338,0,0,0-.3869.1043l-1.0114,1.7541.4921.2828,1.0105-1.7535A.28353.28353,0,0,0,256.34519,287.2242Z" transform="translate(-188.03008 -267.83223)"/><path class="cls-10" d="M254.12229,287.5113a.28328.28328,0,0,0-.3875.1043l-.3339.5789.4924.2829.3333-.5786A.28372.28372,0,0,0,254.12229,287.5113Z" transform="translate(-188.03008 -267.83223)"/><path class="cls-10" d="M253.25519,285.4423a.28427.28427,0,0,0-.3875.1043l-1.014,1.7595.4921.2826,1.0137-1.7583A.28447.28447,0,0,0,253.25519,285.4423Z" transform="translate(-188.03008 -267.83223)"/><path class="cls-10" d="M251.03279,285.7272a.28309.28309,0,0,0-.3869.1037l-.3382.5865.4924.2826.337-.5859A.28246.28246,0,0,0,251.03279,285.7272Z" transform="translate(-188.03008 -267.83223)"/><path class="cls-10" d="M250.16489,283.6607a.28312.28312,0,0,0-.3873.1043l-1.0165,1.7638.4918.2829,1.0163-1.7635A.284.284,0,0,0,250.16489,283.6607Z" transform="translate(-188.03008 -267.83223)"/><path class="cls-10" d="M247.94309,283.945a.28362.28362,0,0,0-.3878.1044l-.3407.5913.4923.2829.3405-.5911A.28374.28374,0,0,0,247.94309,283.945Z" transform="translate(-188.03008 -267.83223)"/><path class="cls-10" d="M247.07479,281.8786a.28327.28327,0,0,0-.3875.1043l-1.0199,1.7685.4924.2829,1.0193-1.7682A.28413.28413,0,0,0,247.07479,281.8786Z" transform="translate(-188.03008 -267.83223)"/><path class="cls-10" d="M244.85239,282.1629a.28257.28257,0,0,0-.3869.1043l-.3441.5961.4918.2829.3436-.5955A.284.284,0,0,0,244.85239,282.1629Z" transform="translate(-188.03008 -267.83223)"/><path class="cls-10" d="M243.98359,280.0964a.2835.2835,0,0,0-.3869.1044l-1.0225,1.7742.4918.2826,1.0225-1.7734A.28374.28374,0,0,0,243.98359,280.0964Z" transform="translate(-188.03008 -267.83223)"/><path class="cls-32" d="M191.47387,295.50095h25.46677a.20692.20692,0,0,1,.20692.20692v4.14225a.20658.20658,0,0,1-.20658.20658H191.47471a.20753.20753,0,0,1-.20753-.20753v-4.14154a.20669.20669,0,0,1,.20669-.20669Z" transform="translate(-281.89212 233.72959) rotate(-89.91838)"/><path class="cls-10" d="M203.93429,285.7014a.32355.32355,0,0,0,0,.6471l2.5685.0023.0006-.6474-2.5685-.002Z" transform="translate(-188.03008 -267.83223)"/><path class="cls-10" d="M205.14389,287.2701a.32385.32385,0,0,0,0,.6477l1.3564.0006.0011-.6475-1.3575-.0008Z" transform="translate(-188.03008 -267.83223)"/><path class="cls-10" d="M205.14129,288.8376a.3236.3236,0,1,0,0,.6472l1.3567.0006.0006-.6475-1.3573-.0003Z" transform="translate(-188.03008 -267.83223)"/><path class="cls-10" d="M203.92749,290.4029a.3236.3236,0,1,0,0,.6472l2.5679.0022.0012-.6477-2.5691-.0017Z" transform="translate(-188.03008 -267.83223)"/><path class="cls-10" d="M205.13649,291.9716a.3236.3236,0,1,0,0,.6472l1.3567.0011.0005-.6477-1.3566-.0006Z" transform="translate(-188.03008 -267.83223)"/><path class="cls-10" d="M205.13419,293.5386a.32385.32385,0,0,0,0,.6477l1.3564.0006.0011-.6472-1.3575-.0011Z" transform="translate(-188.03008 -267.83223)"/><path class="cls-10" d="M203.91989,295.1039a.3237.3237,0,0,0,0,.6474l2.5684.002.0006-.6471-2.5685-.0023Z" transform="translate(-188.03008 -267.83223)"/><path class="cls-10" d="M205.12939,296.6726a.324.324,0,0,0,0,.648l1.3564.0003.0008-.6472-1.3572-.0011Z" transform="translate(-188.03008 -267.83223)"/><path class="cls-10" d="M205.12659,298.2396a.324.324,0,0,0,0,.648l1.3569.0006.0006-.648-1.3575-.0006Z" transform="translate(-188.03008 -267.83223)"/><path class="cls-10" d="M203.91279,299.8057a.3236.3236,0,0,0,0,.6472l2.5682.0022.0008-.6477-2.5684-.0017Z" transform="translate(-188.03008 -267.83223)"/><path class="cls-10" d="M205.12179,301.375a.3233.3233,0,1,0,0,.6466l1.3569.0011.0006-.6477Z" transform="translate(-188.03008 -267.83223)"/><path class="cls-10" d="M205.11979,302.9414a.32385.32385,0,0,0,0,.6477l1.3566.0006.0006-.6471-1.3572-.0012Z" transform="translate(-188.03008 -267.83223)"/><path class="cls-10" d="M203.90539,304.5067a.3237.3237,0,0,0,0,.6474l2.5685.002.0006-.6477-2.5685-.0017Z" transform="translate(-188.03008 -267.83223)"/><path class="cls-10" d="M205.115,306.0754a.3236.3236,0,1,0,0,.6472l1.3566.0011.0006-.6477-1.3567-.0006Z" transform="translate(-188.03008 -267.83223)"/><path class="cls-10" d="M205.11209,307.6424a.32385.32385,0,0,0,0,.6477l1.357.0006.0005-.6477-1.3563-.0006Z" transform="translate(-188.03008 -267.83223)"/><path class="cls-10" d="M203.89829,309.2085a.3236.3236,0,1,0,0,.6472l2.5685.002.0006-.6477-2.5685-.0015Z" transform="translate(-188.03008 -267.83223)"/></svg>