<?xml version="1.0" encoding="UTF-8"?>
<!DOCTYPE svg PUBLIC "-//W3C//DTD SVG 1.1//EN" "http://www.w3.org/Graphics/SVG/1.1/DTD/svg11.dtd">
<!-- Creator: CorelDRAW SE -->
<svg xmlns="http://www.w3.org/2000/svg" xml:space="preserve" width="61.1117mm" height="45.5415mm" version="1.1" style="shape-rendering:geometricPrecision; text-rendering:geometricPrecision; image-rendering:optimizeQuality; fill-rule:evenodd; clip-rule:evenodd"
viewBox="0 0 3943903 2939065"
 xmlns:xlink="http://www.w3.org/1999/xlink">
 <defs>
  <style type="text/css">
   <![CDATA[
    .fil3 {fill:#FEFEFE;fill-rule:nonzero}
    .fil6 {fill:#FAFAFA;fill-rule:nonzero}
    .fil2 {fill:#F4F4F4;fill-rule:nonzero}
    .fil4 {fill:#EFEFEF;fill-rule:nonzero}
    .fil0 {fill:#EBECEC;fill-rule:nonzero}
    .fil5 {fill:#E7E7E6;fill-rule:nonzero}
    .fil1 {fill:#E0E0E0;fill-rule:nonzero}
    .fil8 {fill:#CCCCCB;fill-rule:nonzero}
    .fil10 {fill:#C1D6F0;fill-rule:nonzero}
    .fil7 {fill:#3A72B7;fill-rule:nonzero}
    .fil9 {fill:#2E65AD;fill-rule:nonzero}
    .fil11 {fill:#1A4F9C;fill-rule:nonzero}
   ]]>
  </style>
 </defs>
 <g id="Szybki_x0020_kadr_x0020_-_x0020_zawartość">
  <metadata id="CorelCorpID_0Corel-Layer"/>
  <g id="_708118304">
   <polygon class="fil0" points="0,2584801 3943903,2584801 3943903,2582833 0,2582833 "/>
   <polygon class="fil0" points="413785,2659921 675046,2659921 675046,2657947 413785,2657947 "/>
   <polygon class="fil0" points="1349918,2638515 1685370,2638515 1685370,2636546 1349918,2636546 "/>
   <polygon class="fil0" points="737311,2687594 888699,2687594 888699,2685626 737311,2685626 "/>
   <polygon class="fil0" points="3428571,2719914 3548737,2719914 3548737,2717939 3428571,2717939 "/>
   <polygon class="fil0" points="3087853,2719914 3358336,2719914 3358336,2717939 3087853,2717939 "/>
   <polygon class="fil0" points="2429444,2663168 2617437,2663168 2617437,2661193 2429444,2661193 "/>
   <path class="fil0" d="M346397 1968c-23743,0 -43059,19310 -43059,43046l0 2141007c0,23736 19316,43045 43059,43045l1523126 0c23730,0 43039,-19309 43039,-43045l0 -2141007c0,-23736 -19309,-43046 -43039,-43046l-1523126 0zm1523126 2229073l-1523126 0c-24827,0 -45027,-20193 -45027,-45020l0 -2141007c0,-24821 20200,-45014 45027,-45014l1523126 0c24815,0 45014,20193 45014,45014l0 2141007c0,24827 -20199,45020 -45014,45020z"/>
   <path class="fil0" d="M2052502 1968c-23730,0 -43039,19310 -43039,43046l0 2141007c0,23736 19309,43045 43039,43045l1523120 0c23743,0 43065,-19309 43065,-43045l0 -2141007c0,-23736 -19322,-43046 -43065,-43046l-1523120 0zm1523120 2229073l-1523120 0c-24820,0 -45014,-20193 -45014,-45020l0 -2141007c0,-24821 20194,-45014 45014,-45014l1523120 0c24834,0 45034,20193 45034,45014l0 2141007c0,24827 -20200,45020 -45034,45020z"/>
   <polygon class="fil1" points="904485,2392020 3416283,2392020 3416283,179158 904485,179158 "/>
   <polygon class="fil2" points="858916,2392020 3370708,2392020 3370708,368468 858916,368468 "/>
   <polygon class="fil3" points="1193670,2051973 2999142,2051973 2999142,708521 1193670,708521 "/>
   <polygon class="fil4" points="527627,2392020 858916,2392020 858916,368468 527627,368468 "/>
   <polygon class="fil0" points="527627,497301 858916,497301 858916,368468 527627,368468 "/>
   <polygon class="fil5" points="527627,368468 3370701,368468 3370701,179158 527627,179158 "/>
   <polygon class="fil6" points="858916,447344 1624029,447344 1624029,368468 858916,368468 "/>
   <polygon class="fil0" points="1624029,447344 2389148,447344 2389148,368468 1624029,368468 "/>
   <polygon class="fil5" points="552473,639545 668425,639545 668425,523600 552473,523600 "/>
   <polygon class="fil5" points="718118,639545 834063,639545 834063,523600 718118,523600 "/>
   <polygon class="fil5" points="718118,805196 834063,805196 834063,689238 718118,689238 "/>
   <polygon class="fil5" points="552473,805196 668425,805196 668425,689238 552473,689238 "/>
   <polygon class="fil5" points="552473,970834 668425,970834 668425,854889 552473,854889 "/>
   <polygon class="fil5" points="718118,970834 834063,970834 834063,854889 718118,854889 "/>
   <polygon class="fil5" points="718118,1136479 834063,1136479 834063,1020527 718118,1020527 "/>
   <polygon class="fil5" points="552473,1136479 668425,1136479 668425,1020527 552473,1020527 "/>
   <polygon class="fil5" points="552473,1302123 668425,1302123 668425,1186171 552473,1186171 "/>
   <polygon class="fil5" points="718118,1302123 834063,1302123 834063,1186171 718118,1186171 "/>
   <polygon class="fil5" points="718118,1467768 834063,1467768 834063,1351816 718118,1351816 "/>
   <polygon class="fil5" points="552473,1467768 668425,1467768 668425,1351816 552473,1351816 "/>
   <polygon class="fil5" points="552473,1919803 623527,1919803 623527,1848749 552473,1848749 "/>
   <polygon class="fil5" points="763009,1919803 834063,1919803 834063,1848749 763009,1848749 "/>
   <polygon class="fil5" points="657744,1919803 728798,1919803 728798,1848749 657744,1848749 "/>
   <polygon class="fil5" points="660997,1798334 833347,1798334 833347,1625984 660997,1625984 "/>
   <polygon class="fil3" points="552473,1689810 724823,1689810 724823,1517460 552473,1517460 "/>
   <path class="fil2" d="M2487559 1448400c-159733,0 -289218,-129485 -289218,-289218 0,-159726 129485,-289218 289218,-289218 159733,0 289218,129492 289218,289218 0,159733 -129485,289218 -289218,289218z"/>
   <polygon class="fil2" points="2392633,1848749 2582485,1848749 2582485,1351816 2392633,1351816 "/>
   <path class="fil2" d="M3501316 2849747c0,49332 -684721,89318 -1529361,89318 -844647,0 -1529361,-39986 -1529361,-89318 0,-49324 684714,-89317 1529361,-89317 844640,0 1529361,39993 1529361,89317z"/>
   <path class="fil7" d="M2234423 1482514l-223346 223346c0,0 -137675,-154344 -319905,-136906 -67402,-147949 -144412,-463220 -165638,-553196l304138 304145c-9764,17857 -7066,40606 8016,55688 18367,18373 48021,18373 66388,0 18367,-18361 18451,-48099 84,-66472 -15082,-15076 -37909,-17690 -55779,-7925l-304145 -304139c89976,21226 405247,98237 553196,165638 -17353,182146 136991,319821 136991,319821z"/>
   <g>
    <path class="fil8" d="M2198005 1443644c-44465,-53320 -112389,-156797 -100573,-280938 7,13 7,13 20,13 -11843,124141 56094,227618 100560,280912l-7 13zm-293935 -68053l0 0c10209,-10216 14772,-23962 13655,-37315 1130,13346 -3433,27092 -13649,37315l0 0 -6 0zm13655 -37315l-6 0 6 0zm-69395 -37076l-304139 -304138c26,12 45,12 71,19l304107 304093c-20,13 -26,20 -39,26z"/>
   </g>
   <path class="fil9" d="M2084912 1556427l-180842 -180836c6,0 6,0 6,0 10216,-10223 14779,-23969 13649,-37315l-6 0c-897,-10635 -5395,-21013 -13520,-29151 -9165,-9164 -21149,-13727 -33159,-13727 -7802,0 -15618,1930 -22671,5776l-304107 -304093c90112,21264 405286,98224 553170,165625 -11816,124141 56108,227618 100573,280938 -897,691 -1749,1439 -2568,2259l-110525 110524z"/>
   <path class="fil7" d="M2850696 2322211l0 0c-39186,39186 -103309,39186 -142495,0l-655021 -655021 142495 -142495 655021 655021c39186,39186 39186,103309 0,142495z"/>
   <path class="fil10" d="M2779448 2351594c-25827,0 -51654,-9790 -71247,-29383l-582863 -582863 142495 -142496 582863 582864c19593,19593 29390,45420 29390,71254 0,25821 -9797,51648 -29390,71241l0 0c-19593,19593 -45420,29383 -71248,29383z"/>
   <path class="fil7" d="M2274674 1590005l-156190 156190c-8977,8971 -23659,8971 -32636,0l-39522 -39522c-8977,-8977 -8977,-23659 0,-32636l156190 -156189c8977,-8977 23672,-8977 32636,0l39522 39521c8977,8977 8977,23659 0,32636z"/>
   <path class="fil7" d="M2271034 1521494l-221062 221055c-10783,10790 -28434,10790 -39218,0l-36373 -36360c-10790,-10790 -10790,-28441 0,-39231l221056 -221055c10790,-10791 28441,-10791 39231,0l36366 36372c10784,10784 10784,28435 0,39219z"/>
   <path class="fil11" d="M2030360 1750642c-7105,0 -14217,-2698 -19606,-8093l-36373 -36360c-5395,-5395 -8092,-12507 -8092,-19619 0,-7105 2697,-14217 8092,-19612l221056 -221055c5395,-5395 12507,-8093 19619,-8093 7105,0 14217,2698 19612,8093l36366 36372c5389,5389 8086,12501 8086,19606 0,7112 -2697,14218 -8086,19613l-16121 16114 -188826 188826 -16115 16115c-5395,5395 -12500,8093 -19612,8093z"/>
   <polygon class="fil3" points="2112998,1679529 2081176,1711352 2005585,1635755 2037401,1603945 "/>
   <polygon class="fil3" points="2134450,1658078 2147506,1645022 2071908,1569438 2058853,1582487 "/>
   <path class="fil7" d="M1474053 2424023c-407609,-407609 -407609,-1070839 0,-1478448 407610,-407616 1070839,-407616 1478449,0l-12107 12094c-400930,-400936 -1053305,-400936 -1454241,0 -400930,400942 -400930,1053311 0,1454247l-12101 12107z"/>
   <polygon class="fil7" points="752980,1690856 740879,1678742 2207221,212394 2219328,224501 "/>
   <polygon class="fil3" points="1589670,951622 1480100,1061184 1370538,951622 1480100,842059 "/>
   <path class="fil7" d="M1382638 951622l97462 97462 97463 -97462 -97463 -97463 -97462 97463zm97462 121669l-121669 -121669 121669 -121670 121670 121670 -121670 121669z"/>
   <polygon class="fil3" points="1589670,2417963 1480100,2527539 1370538,2417963 1480100,2308407 "/>
   <path class="fil7" d="M1382638 2417963l97462 97462 97463 -97462 -97463 -97456 -97462 97456zm97462 121670l-121669 -121670 121669 -121670 121670 121670 -121670 121670z"/>
   <polygon class="fil3" points="3059199,948434 2949630,1058003 2840074,948434 2949630,838871 "/>
   <path class="fil7" d="M2852174 948434l97456 97462 97462 -97462 -97462 -97463 -97456 97463zm97456 121669l-121670 -121669 121670 -121670 121670 121670 -121670 121669z"/>
   <path class="fil3" d="M2271241 160482c30260,30254 30260,79301 0,109562 -30255,30255 -79309,30255 -109563,0 -30255,-30261 -30255,-79308 0,-109562 30254,-30261 79308,-30261 109563,0z"/>
   <path class="fil7" d="M2216462 146348c-18412,0 -35720,7170 -48731,20187 -26866,26873 -26866,70590 0,97456 26873,26879 70596,26873 97463,0 13010,-13011 20180,-30319 20180,-48731 0,-18406 -7170,-35714 -20180,-48725 -13017,-13017 -30326,-20187 -48732,-20187zm0 154945c-22987,0 -44594,-8945 -60844,-25189 -33533,-33552 -33533,-88137 0,-121669 16250,-16263 37857,-25202 60844,-25202 22975,0 44582,8939 60826,25202 16263,16243 25201,37850 25201,60825 0,22981 -8938,44581 -25201,60844 -16244,16244 -37851,25189 -60826,25189z"/>
   <path class="fil3" d="M801711 1630011c30255,30261 30255,79315 0,109563 -30254,30261 -79308,30261 -109569,0 -30255,-30248 -30255,-79302 0,-109563 30261,-30254 79315,-30254 109569,0z"/>
   <path class="fil7" d="M746927 1615910c-17651,0 -35289,6718 -48732,20155 -26866,26872 -26866,70595 0,97462 26873,26873 70596,26866 97463,0 26866,-26867 26866,-70590 0,-97462 -13430,-13437 -31087,-20155 -48731,-20155zm0 154880c-22033,0 -44059,-8390 -60832,-25156 -33546,-33546 -33546,-88131 0,-121670 33546,-33546 88130,-33546 121663,0 33552,33539 33552,88124 0,121670 -16766,16766 -38799,25156 -60831,25156z"/>
  </g>
 </g>
</svg>
