<?xml version="1.0" encoding="UTF-8"?>
<!DOCTYPE svg PUBLIC "-//W3C//DTD SVG 1.1//EN" "http://www.w3.org/Graphics/SVG/1.1/DTD/svg11.dtd">
<!-- Creator: CorelDRAW SE -->
<svg xmlns="http://www.w3.org/2000/svg" xml:space="preserve" width="66.9177mm" height="66.9177mm" version="1.1" style="shape-rendering:geometricPrecision; text-rendering:geometricPrecision; image-rendering:optimizeQuality; fill-rule:evenodd; clip-rule:evenodd"
viewBox="0 0 295315 295315"
 xmlns:xlink="http://www.w3.org/1999/xlink">
 <defs>
  <style type="text/css">
   <![CDATA[
    .fil0 {fill:#2D56D5}
   ]]>
  </style>
 </defs>
 <g id="Szybki_x0020_kadr_x0020_-_x0020_zawartość">
  <metadata id="CorelCorpID_0Corel-Layer"/>
  <g id="_636317368">
   <circle class="fil0" transform="matrix(0.224419 0.224419 -0.224419 0.224419 144696 3038.95)" r="9575"/>
   <circle class="fil0" transform="matrix(0.224419 0.224419 -0.224419 0.224419 153920 12262.7)" r="9575"/>
   <circle class="fil0" transform="matrix(0.224419 0.224419 -0.224419 0.224419 163144 21486.4)" r="9575"/>
   <circle class="fil0" transform="matrix(0.224419 0.224419 -0.224419 0.224419 172367 30710.2)" r="9575"/>
   <circle class="fil0" transform="matrix(0.224419 0.224419 -0.224419 0.224419 181591 39933.9)" r="9575"/>
   <circle class="fil0" transform="matrix(0.224419 0.224419 -0.224419 0.224419 190815 49157.7)" r="9575"/>
   <circle class="fil0" transform="matrix(0.224419 0.224419 -0.224419 0.224419 200039 58381.4)" r="9575"/>
   <circle class="fil0" transform="matrix(0.224419 0.224419 -0.224419 0.224419 209262 67605.1)" r="9575"/>
   <circle class="fil0" transform="matrix(0.224419 0.224419 -0.224419 0.224419 218486 76828.9)" r="9575"/>
   <circle class="fil0" transform="matrix(0.224419 0.224419 -0.224419 0.224419 227710 86052.6)" r="9575"/>
   <circle class="fil0" transform="matrix(0.224419 0.224419 -0.224419 0.224419 236934 95276.4)" r="9575"/>
   <circle class="fil0" transform="matrix(0.224419 0.224419 -0.224419 0.224419 246157 104500)" r="9575"/>
   <circle class="fil0" transform="matrix(0.224419 0.224419 -0.224419 0.224419 255381 113724)" r="9575"/>
   <circle class="fil0" transform="matrix(0.224419 0.224419 -0.224419 0.224419 264605 122948)" r="9575"/>
   <circle class="fil0" transform="matrix(0.224419 0.224419 -0.224419 0.224419 273828 132171)" r="9575"/>
   <circle class="fil0" transform="matrix(0.224419 0.224419 -0.224419 0.224419 283052 141395)" r="9575"/>
   <circle class="fil0" transform="matrix(0.224419 0.224419 -0.224419 0.224419 292276 150619)" r="9575"/>
   <circle class="fil0" transform="matrix(0.224419 0.224419 -0.224419 0.224419 136363 11371.7)" r="9575"/>
   <circle class="fil0" transform="matrix(0.224419 0.224419 -0.224419 0.224419 145587 20595.5)" r="9575"/>
   <circle class="fil0" transform="matrix(0.224419 0.224419 -0.224419 0.224419 154811 29819.2)" r="9575"/>
   <circle class="fil0" transform="matrix(0.224419 0.224419 -0.224419 0.224419 164035 39043)" r="9575"/>
   <circle class="fil0" transform="matrix(0.224419 0.224419 -0.224419 0.224419 173258 48266.7)" r="9575"/>
   <circle class="fil0" transform="matrix(0.224419 0.224419 -0.224419 0.224419 182482 57490.5)" r="9575"/>
   <circle class="fil0" transform="matrix(0.224419 0.224419 -0.224419 0.224419 191706 66714.2)" r="9575"/>
   <circle class="fil0" transform="matrix(0.224419 0.224419 -0.224419 0.224419 200930 75937.9)" r="9575"/>
   <circle class="fil0" transform="matrix(0.224419 0.224419 -0.224419 0.224419 210153 85161.7)" r="9575"/>
   <circle class="fil0" transform="matrix(0.224419 0.224419 -0.224419 0.224419 219377 94385.4)" r="9575"/>
   <circle class="fil0" transform="matrix(0.224419 0.224419 -0.224419 0.224419 228601 103609)" r="9575"/>
   <circle class="fil0" transform="matrix(0.224419 0.224419 -0.224419 0.224419 237824 112833)" r="9575"/>
   <circle class="fil0" transform="matrix(0.224419 0.224419 -0.224419 0.224419 247048 122057)" r="9575"/>
   <circle class="fil0" transform="matrix(0.224419 0.224419 -0.224419 0.224419 256272 131280)" r="9575"/>
   <circle class="fil0" transform="matrix(0.224419 0.224419 -0.224419 0.224419 265496 140504)" r="9575"/>
   <circle class="fil0" transform="matrix(0.224419 0.224419 -0.224419 0.224419 274719 149728)" r="9575"/>
   <circle class="fil0" transform="matrix(0.224419 0.224419 -0.224419 0.224419 283943 158952)" r="9575"/>
   <circle class="fil0" transform="matrix(0.224419 0.224419 -0.224419 0.224419 128031 19704.5)" r="9575"/>
   <circle class="fil0" transform="matrix(0.224419 0.224419 -0.224419 0.224419 137254 28928.3)" r="9575"/>
   <circle class="fil0" transform="matrix(0.224419 0.224419 -0.224419 0.224419 146478 38152)" r="9575"/>
   <circle class="fil0" transform="matrix(0.224419 0.224419 -0.224419 0.224419 155702 47375.8)" r="9575"/>
   <circle class="fil0" transform="matrix(0.224419 0.224419 -0.224419 0.224419 164926 56599.5)" r="9575"/>
   <circle class="fil0" transform="matrix(0.224419 0.224419 -0.224419 0.224419 174149 65823.2)" r="9575"/>
   <circle class="fil0" transform="matrix(0.224419 0.224419 -0.224419 0.224419 183373 75047)" r="9575"/>
   <circle class="fil0" transform="matrix(0.224419 0.224419 -0.224419 0.224419 192597 84270.7)" r="9575"/>
   <circle class="fil0" transform="matrix(0.224419 0.224419 -0.224419 0.224419 201820 93494.5)" r="9575"/>
   <circle class="fil0" transform="matrix(0.224419 0.224419 -0.224419 0.224419 211044 102718)" r="9575"/>
   <circle class="fil0" transform="matrix(0.224419 0.224419 -0.224419 0.224419 220268 111942)" r="9575"/>
   <circle class="fil0" transform="matrix(0.224419 0.224419 -0.224419 0.224419 229492 121166)" r="9575"/>
   <circle class="fil0" transform="matrix(0.224419 0.224419 -0.224419 0.224419 238715 130389)" r="9575"/>
   <circle class="fil0" transform="matrix(0.224419 0.224419 -0.224419 0.224419 247939 139613)" r="9575"/>
   <circle class="fil0" transform="matrix(0.224419 0.224419 -0.224419 0.224419 257163 148837)" r="9575"/>
   <circle class="fil0" transform="matrix(0.224419 0.224419 -0.224419 0.224419 266387 158061)" r="9575"/>
   <circle class="fil0" transform="matrix(0.224419 0.224419 -0.224419 0.224419 275610 167284)" r="9575"/>
   <circle class="fil0" transform="matrix(0.224419 0.224419 -0.224419 0.224419 119698 28037.3)" r="9575"/>
   <circle class="fil0" transform="matrix(0.224419 0.224419 -0.224419 0.224419 128921 37261.1)" r="9575"/>
   <circle class="fil0" transform="matrix(0.224419 0.224419 -0.224419 0.224419 138145 46484.8)" r="9575"/>
   <circle class="fil0" transform="matrix(0.224419 0.224419 -0.224419 0.224419 147369 55708.6)" r="9575"/>
   <circle class="fil0" transform="matrix(0.224419 0.224419 -0.224419 0.224419 156593 64932.3)" r="9575"/>
   <circle class="fil0" transform="matrix(0.224419 0.224419 -0.224419 0.224419 165816 74156)" r="9575"/>
   <circle class="fil0" transform="matrix(0.224419 0.224419 -0.224419 0.224419 175040 83379.8)" r="9575"/>
   <circle class="fil0" transform="matrix(0.224419 0.224419 -0.224419 0.224419 184264 92603.5)" r="9575"/>
   <circle class="fil0" transform="matrix(0.224419 0.224419 -0.224419 0.224419 193488 101827)" r="9575"/>
   <circle class="fil0" transform="matrix(0.224419 0.224419 -0.224419 0.224419 202711 111051)" r="9575"/>
   <circle class="fil0" transform="matrix(0.224419 0.224419 -0.224419 0.224419 211935 120275)" r="9575"/>
   <circle class="fil0" transform="matrix(0.224419 0.224419 -0.224419 0.224419 221159 129498)" r="9575"/>
   <circle class="fil0" transform="matrix(0.224419 0.224419 -0.224419 0.224419 230383 138722)" r="9575"/>
   <circle class="fil0" transform="matrix(0.224419 0.224419 -0.224419 0.224419 239606 147946)" r="9575"/>
   <circle class="fil0" transform="matrix(0.224419 0.224419 -0.224419 0.224419 248830 157170)" r="9575"/>
   <circle class="fil0" transform="matrix(0.224419 0.224419 -0.224419 0.224419 258054 166393)" r="9575"/>
   <circle class="fil0" transform="matrix(0.224419 0.224419 -0.224419 0.224419 267278 175617)" r="9575"/>
   <circle class="fil0" transform="matrix(0.224419 0.224419 -0.224419 0.224419 111365 36370.1)" r="9575"/>
   <circle class="fil0" transform="matrix(0.224419 0.224419 -0.224419 0.224419 120589 45593.9)" r="9575"/>
   <circle class="fil0" transform="matrix(0.224419 0.224419 -0.224419 0.224419 129812 54817.6)" r="9575"/>
   <circle class="fil0" transform="matrix(0.224419 0.224419 -0.224419 0.224419 139036 64041.3)" r="9575"/>
   <circle class="fil0" transform="matrix(0.224419 0.224419 -0.224419 0.224419 148260 73265.1)" r="9575"/>
   <circle class="fil0" transform="matrix(0.224419 0.224419 -0.224419 0.224419 157484 82488.8)" r="9575"/>
   <circle class="fil0" transform="matrix(0.224419 0.224419 -0.224419 0.224419 166707 91712.6)" r="9575"/>
   <circle class="fil0" transform="matrix(0.224419 0.224419 -0.224419 0.224419 175931 100936)" r="9575"/>
   <circle class="fil0" transform="matrix(0.224419 0.224419 -0.224419 0.224419 185155 110160)" r="9575"/>
   <circle class="fil0" transform="matrix(0.224419 0.224419 -0.224419 0.224419 194379 119384)" r="9575"/>
   <circle class="fil0" transform="matrix(0.224419 0.224419 -0.224419 0.224419 203602 128608)" r="9575"/>
   <circle class="fil0" transform="matrix(0.224419 0.224419 -0.224419 0.224419 212826 137831)" r="9575"/>
   <circle class="fil0" transform="matrix(0.224419 0.224419 -0.224419 0.224419 222050 147055)" r="9575"/>
   <circle class="fil0" transform="matrix(0.224419 0.224419 -0.224419 0.224419 231274 156279)" r="9575"/>
   <circle class="fil0" transform="matrix(0.224419 0.224419 -0.224419 0.224419 240497 165502)" r="9575"/>
   <circle class="fil0" transform="matrix(0.224419 0.224419 -0.224419 0.224419 249721 174726)" r="9575"/>
   <circle class="fil0" transform="matrix(0.224419 0.224419 -0.224419 0.224419 258945 183950)" r="9575"/>
   <circle class="fil0" transform="matrix(0.224419 0.224419 -0.224419 0.224419 103032 44702.9)" r="9575"/>
   <circle class="fil0" transform="matrix(0.224419 0.224419 -0.224419 0.224419 112256 53926.7)" r="9575"/>
   <circle class="fil0" transform="matrix(0.224419 0.224419 -0.224419 0.224419 121480 63150.4)" r="9575"/>
   <circle class="fil0" transform="matrix(0.224419 0.224419 -0.224419 0.224419 130703 72374.1)" r="9575"/>
   <circle class="fil0" transform="matrix(0.224419 0.224419 -0.224419 0.224419 139927 81597.9)" r="9575"/>
   <circle class="fil0" transform="matrix(0.224419 0.224419 -0.224419 0.224419 149151 90821.6)" r="9575"/>
   <circle class="fil0" transform="matrix(0.224419 0.224419 -0.224419 0.224419 158375 100045)" r="9575"/>
   <circle class="fil0" transform="matrix(0.224419 0.224419 -0.224419 0.224419 167598 109269)" r="9575"/>
   <circle class="fil0" transform="matrix(0.224419 0.224419 -0.224419 0.224419 176822 118493)" r="9575"/>
   <circle class="fil0" transform="matrix(0.224419 0.224419 -0.224419 0.224419 186046 127717)" r="9575"/>
   <circle class="fil0" transform="matrix(0.224419 0.224419 -0.224419 0.224419 195270 136940)" r="9575"/>
   <circle class="fil0" transform="matrix(0.224419 0.224419 -0.224419 0.224419 204493 146164)" r="9575"/>
   <circle class="fil0" transform="matrix(0.224419 0.224419 -0.224419 0.224419 213717 155388)" r="9575"/>
   <circle class="fil0" transform="matrix(0.224419 0.224419 -0.224419 0.224419 222941 164612)" r="9575"/>
   <circle class="fil0" transform="matrix(0.224419 0.224419 -0.224419 0.224419 232165 173835)" r="9575"/>
   <circle class="fil0" transform="matrix(0.224419 0.224419 -0.224419 0.224419 241388 183059)" r="9575"/>
   <circle class="fil0" transform="matrix(0.224419 0.224419 -0.224419 0.224419 250612 192283)" r="9575"/>
   <circle class="fil0" transform="matrix(0.224419 0.224419 -0.224419 0.224419 94699.4 53035.7)" r="9575"/>
   <circle class="fil0" transform="matrix(0.224419 0.224419 -0.224419 0.224419 103923 62259.4)" r="9575"/>
   <circle class="fil0" transform="matrix(0.224419 0.224419 -0.224419 0.224419 113147 71483.2)" r="9575"/>
   <circle class="fil0" transform="matrix(0.224419 0.224419 -0.224419 0.224419 122371 80706.9)" r="9575"/>
   <circle class="fil0" transform="matrix(0.224419 0.224419 -0.224419 0.224419 131594 89930.7)" r="9575"/>
   <circle class="fil0" transform="matrix(0.224419 0.224419 -0.224419 0.224419 140818 99154.4)" r="9575"/>
   <circle class="fil0" transform="matrix(0.224419 0.224419 -0.224419 0.224419 150042 108378)" r="9575"/>
   <circle class="fil0" transform="matrix(0.224419 0.224419 -0.224419 0.224419 159266 117602)" r="9575"/>
   <circle class="fil0" transform="matrix(0.224419 0.224419 -0.224419 0.224419 168489 126826)" r="9575"/>
   <circle class="fil0" transform="matrix(0.224419 0.224419 -0.224419 0.224419 177713 136049)" r="9575"/>
   <circle class="fil0" transform="matrix(0.224419 0.224419 -0.224419 0.224419 186937 145273)" r="9575"/>
   <circle class="fil0" transform="matrix(0.224419 0.224419 -0.224419 0.224419 196161 154497)" r="9575"/>
   <circle class="fil0" transform="matrix(0.224419 0.224419 -0.224419 0.224419 205384 163721)" r="9575"/>
   <circle class="fil0" transform="matrix(0.224419 0.224419 -0.224419 0.224419 214608 172944)" r="9575"/>
   <circle class="fil0" transform="matrix(0.224419 0.224419 -0.224419 0.224419 223832 182168)" r="9575"/>
   <circle class="fil0" transform="matrix(0.224419 0.224419 -0.224419 0.224419 233055 191392)" r="9575"/>
   <circle class="fil0" transform="matrix(0.224419 0.224419 -0.224419 0.224419 242279 200616)" r="9575"/>
   <circle class="fil0" transform="matrix(0.224419 0.224419 -0.224419 0.224419 86366.6 61368.5)" r="9575"/>
   <circle class="fil0" transform="matrix(0.224419 0.224419 -0.224419 0.224419 95590.3 70592.2)" r="9575"/>
   <circle class="fil0" transform="matrix(0.224419 0.224419 -0.224419 0.224419 104814 79816)" r="9575"/>
   <circle class="fil0" transform="matrix(0.224419 0.224419 -0.224419 0.224419 114038 89039.7)" r="9575"/>
   <circle class="fil0" transform="matrix(0.224419 0.224419 -0.224419 0.224419 123262 98263.5)" r="9575"/>
   <circle class="fil0" transform="matrix(0.224419 0.224419 -0.224419 0.224419 132485 107487)" r="9575"/>
   <circle class="fil0" transform="matrix(0.224419 0.224419 -0.224419 0.224419 141709 116711)" r="9575"/>
   <circle class="fil0" transform="matrix(0.224419 0.224419 -0.224419 0.224419 150933 125935)" r="9575"/>
   <circle class="fil0" transform="matrix(0.224419 0.224419 -0.224419 0.224419 160157 135158)" r="9575"/>
   <circle class="fil0" transform="matrix(0.224419 0.224419 -0.224419 0.224419 169380 144382)" r="9575"/>
   <circle class="fil0" transform="matrix(0.224419 0.224419 -0.224419 0.224419 178604 153606)" r="9575"/>
   <circle class="fil0" transform="matrix(0.224419 0.224419 -0.224419 0.224419 187828 162830)" r="9575"/>
   <circle class="fil0" transform="matrix(0.224419 0.224419 -0.224419 0.224419 197051 172053)" r="9575"/>
   <circle class="fil0" transform="matrix(0.224419 0.224419 -0.224419 0.224419 206275 181277)" r="9575"/>
   <circle class="fil0" transform="matrix(0.224419 0.224419 -0.224419 0.224419 215499 190501)" r="9575"/>
   <circle class="fil0" transform="matrix(0.224419 0.224419 -0.224419 0.224419 224723 199725)" r="9575"/>
   <circle class="fil0" transform="matrix(0.224419 0.224419 -0.224419 0.224419 233946 208948)" r="9575"/>
   <circle class="fil0" transform="matrix(0.224419 0.224419 -0.224419 0.224419 78033.8 69701.3)" r="9575"/>
   <circle class="fil0" transform="matrix(0.224419 0.224419 -0.224419 0.224419 87257.5 78925)" r="9575"/>
   <circle class="fil0" transform="matrix(0.224419 0.224419 -0.224419 0.224419 96481.3 88148.8)" r="9575"/>
   <circle class="fil0" transform="matrix(0.224419 0.224419 -0.224419 0.224419 105705 97372.5)" r="9575"/>
   <circle class="fil0" transform="matrix(0.224419 0.224419 -0.224419 0.224419 114929 106596)" r="9575"/>
   <circle class="fil0" transform="matrix(0.224419 0.224419 -0.224419 0.224419 124152 115820)" r="9575"/>
   <circle class="fil0" transform="matrix(0.224419 0.224419 -0.224419 0.224419 133376 125044)" r="9575"/>
   <circle class="fil0" transform="matrix(0.224419 0.224419 -0.224419 0.224419 142600 134267)" r="9575"/>
   <circle class="fil0" transform="matrix(0.224419 0.224419 -0.224419 0.224419 151824 143491)" r="9575"/>
   <circle class="fil0" transform="matrix(0.224419 0.224419 -0.224419 0.224419 161047 152715)" r="9575"/>
   <circle class="fil0" transform="matrix(0.224419 0.224419 -0.224419 0.224419 170271 161939)" r="9575"/>
   <circle class="fil0" transform="matrix(0.224419 0.224419 -0.224419 0.224419 179495 171162)" r="9575"/>
   <circle class="fil0" transform="matrix(0.224419 0.224419 -0.224419 0.224419 188719 180386)" r="9575"/>
   <circle class="fil0" transform="matrix(0.224419 0.224419 -0.224419 0.224419 197942 189610)" r="9575"/>
   <circle class="fil0" transform="matrix(0.224419 0.224419 -0.224419 0.224419 207166 198834)" r="9575"/>
   <circle class="fil0" transform="matrix(0.224419 0.224419 -0.224419 0.224419 216390 208057)" r="9575"/>
   <circle class="fil0" transform="matrix(0.224419 0.224419 -0.224419 0.224419 225614 217281)" r="9575"/>
   <circle class="fil0" transform="matrix(0.224419 0.224419 -0.224419 0.224419 69701 78034.1)" r="9575"/>
   <circle class="fil0" transform="matrix(0.224419 0.224419 -0.224419 0.224419 78924.7 87257.8)" r="9575"/>
   <circle class="fil0" transform="matrix(0.224419 0.224419 -0.224419 0.224419 88148.5 96481.6)" r="9575"/>
   <circle class="fil0" transform="matrix(0.224419 0.224419 -0.224419 0.224419 97372.2 105705)" r="9575"/>
   <circle class="fil0" transform="matrix(0.224419 0.224419 -0.224419 0.224419 106596 114929)" r="9575"/>
   <circle class="fil0" transform="matrix(0.224419 0.224419 -0.224419 0.224419 115820 124153)" r="9575"/>
   <circle class="fil0" transform="matrix(0.224419 0.224419 -0.224419 0.224419 125043 133377)" r="9575"/>
   <circle class="fil0" transform="matrix(0.224419 0.224419 -0.224419 0.224419 134267 142600)" r="9575"/>
   <circle class="fil0" transform="matrix(0.224419 0.224419 -0.224419 0.224419 143491 151824)" r="9575"/>
   <circle class="fil0" transform="matrix(0.224419 0.224419 -0.224419 0.224419 152715 161048)" r="9575"/>
   <circle class="fil0" transform="matrix(0.224419 0.224419 -0.224419 0.224419 161938 170271)" r="9575"/>
   <circle class="fil0" transform="matrix(0.224419 0.224419 -0.224419 0.224419 171162 179495)" r="9575"/>
   <circle class="fil0" transform="matrix(0.224419 0.224419 -0.224419 0.224419 180386 188719)" r="9575"/>
   <circle class="fil0" transform="matrix(0.224419 0.224419 -0.224419 0.224419 189610 197943)" r="9575"/>
   <circle class="fil0" transform="matrix(0.224419 0.224419 -0.224419 0.224419 198833 207166)" r="9575"/>
   <circle class="fil0" transform="matrix(0.224419 0.224419 -0.224419 0.224419 208057 216390)" r="9575"/>
   <circle class="fil0" transform="matrix(0.224419 0.224419 -0.224419 0.224419 217281 225614)" r="9575"/>
   <circle class="fil0" transform="matrix(0.224419 0.224419 -0.224419 0.224419 61368.2 86366.9)" r="9575"/>
   <circle class="fil0" transform="matrix(0.224419 0.224419 -0.224419 0.224419 70592 95590.6)" r="9575"/>
   <circle class="fil0" transform="matrix(0.224419 0.224419 -0.224419 0.224419 79815.7 104814)" r="9575"/>
   <circle class="fil0" transform="matrix(0.224419 0.224419 -0.224419 0.224419 89039.4 114038)" r="9575"/>
   <circle class="fil0" transform="matrix(0.224419 0.224419 -0.224419 0.224419 98263.2 123262)" r="9575"/>
   <circle class="fil0" transform="matrix(0.224419 0.224419 -0.224419 0.224419 107487 132486)" r="9575"/>
   <circle class="fil0" transform="matrix(0.224419 0.224419 -0.224419 0.224419 116711 141709)" r="9575"/>
   <circle class="fil0" transform="matrix(0.224419 0.224419 -0.224419 0.224419 125934 150933)" r="9575"/>
   <circle class="fil0" transform="matrix(0.224419 0.224419 -0.224419 0.224419 135158 160157)" r="9575"/>
   <circle class="fil0" transform="matrix(0.224419 0.224419 -0.224419 0.224419 144382 169381)" r="9575"/>
   <circle class="fil0" transform="matrix(0.224419 0.224419 -0.224419 0.224419 153606 178604)" r="9575"/>
   <circle class="fil0" transform="matrix(0.224419 0.224419 -0.224419 0.224419 162829 187828)" r="9575"/>
   <circle class="fil0" transform="matrix(0.224419 0.224419 -0.224419 0.224419 172053 197052)" r="9575"/>
   <circle class="fil0" transform="matrix(0.224419 0.224419 -0.224419 0.224419 181277 206276)" r="9575"/>
   <circle class="fil0" transform="matrix(0.224419 0.224419 -0.224419 0.224419 190501 215499)" r="9575"/>
   <circle class="fil0" transform="matrix(0.224419 0.224419 -0.224419 0.224419 199724 224723)" r="9575"/>
   <circle class="fil0" transform="matrix(0.224419 0.224419 -0.224419 0.224419 208948 233947)" r="9575"/>
   <circle class="fil0" transform="matrix(0.224419 0.224419 -0.224419 0.224419 53035.4 94699.7)" r="9575"/>
   <circle class="fil0" transform="matrix(0.224419 0.224419 -0.224419 0.224419 62259.2 103923)" r="9575"/>
   <circle class="fil0" transform="matrix(0.224419 0.224419 -0.224419 0.224419 71482.9 113147)" r="9575"/>
   <circle class="fil0" transform="matrix(0.224419 0.224419 -0.224419 0.224419 80706.6 122371)" r="9575"/>
   <circle class="fil0" transform="matrix(0.224419 0.224419 -0.224419 0.224419 89930.4 131595)" r="9575"/>
   <circle class="fil0" transform="matrix(0.224419 0.224419 -0.224419 0.224419 99154.1 140818)" r="9575"/>
   <circle class="fil0" transform="matrix(0.224419 0.224419 -0.224419 0.224419 108378 150042)" r="9575"/>
   <circle class="fil0" transform="matrix(0.224419 0.224419 -0.224419 0.224419 117602 159266)" r="9575"/>
   <circle class="fil0" transform="matrix(0.224419 0.224419 -0.224419 0.224419 126825 168490)" r="9575"/>
   <circle class="fil0" transform="matrix(0.224419 0.224419 -0.224419 0.224419 136049 177713)" r="9575"/>
   <circle class="fil0" transform="matrix(0.224419 0.224419 -0.224419 0.224419 145273 186937)" r="9575"/>
   <circle class="fil0" transform="matrix(0.224419 0.224419 -0.224419 0.224419 154497 196161)" r="9575"/>
   <circle class="fil0" transform="matrix(0.224419 0.224419 -0.224419 0.224419 163720 205385)" r="9575"/>
   <circle class="fil0" transform="matrix(0.224419 0.224419 -0.224419 0.224419 172944 214608)" r="9575"/>
   <circle class="fil0" transform="matrix(0.224419 0.224419 -0.224419 0.224419 182168 223832)" r="9575"/>
   <circle class="fil0" transform="matrix(0.224419 0.224419 -0.224419 0.224419 191392 233056)" r="9575"/>
   <circle class="fil0" transform="matrix(0.224419 0.224419 -0.224419 0.224419 200615 242280)" r="9575"/>
   <circle class="fil0" transform="matrix(0.224419 0.224419 -0.224419 0.224419 44702.6 103032)" r="9575"/>
   <circle class="fil0" transform="matrix(0.224419 0.224419 -0.224419 0.224419 53926.4 112256)" r="9575"/>
   <circle class="fil0" transform="matrix(0.224419 0.224419 -0.224419 0.224419 63150.1 121480)" r="9575"/>
   <circle class="fil0" transform="matrix(0.224419 0.224419 -0.224419 0.224419 72373.9 130704)" r="9575"/>
   <circle class="fil0" transform="matrix(0.224419 0.224419 -0.224419 0.224419 81597.6 139927)" r="9575"/>
   <circle class="fil0" transform="matrix(0.224419 0.224419 -0.224419 0.224419 90821.3 149151)" r="9575"/>
   <circle class="fil0" transform="matrix(0.224419 0.224419 -0.224419 0.224419 100045 158375)" r="9575"/>
   <circle class="fil0" transform="matrix(0.224419 0.224419 -0.224419 0.224419 109269 167599)" r="9575"/>
   <circle class="fil0" transform="matrix(0.224419 0.224419 -0.224419 0.224419 118493 176822)" r="9575"/>
   <circle class="fil0" transform="matrix(0.224419 0.224419 -0.224419 0.224419 127716 186046)" r="9575"/>
   <circle class="fil0" transform="matrix(0.224419 0.224419 -0.224419 0.224419 136940 195270)" r="9575"/>
   <circle class="fil0" transform="matrix(0.224419 0.224419 -0.224419 0.224419 146164 204494)" r="9575"/>
   <circle class="fil0" transform="matrix(0.224419 0.224419 -0.224419 0.224419 155388 213717)" r="9575"/>
   <circle class="fil0" transform="matrix(0.224419 0.224419 -0.224419 0.224419 164611 222941)" r="9575"/>
   <circle class="fil0" transform="matrix(0.224419 0.224419 -0.224419 0.224419 173835 232165)" r="9575"/>
   <circle class="fil0" transform="matrix(0.224419 0.224419 -0.224419 0.224419 183059 241389)" r="9575"/>
   <circle class="fil0" transform="matrix(0.224419 0.224419 -0.224419 0.224419 192282 250612)" r="9575"/>
   <circle class="fil0" transform="matrix(0.224419 0.224419 -0.224419 0.224419 36369.8 111365)" r="9575"/>
   <circle class="fil0" transform="matrix(0.224419 0.224419 -0.224419 0.224419 45593.6 120589)" r="9575"/>
   <circle class="fil0" transform="matrix(0.224419 0.224419 -0.224419 0.224419 54817.3 129813)" r="9575"/>
   <circle class="fil0" transform="matrix(0.224419 0.224419 -0.224419 0.224419 64041.1 139036)" r="9575"/>
   <circle class="fil0" transform="matrix(0.224419 0.224419 -0.224419 0.224419 73264.8 148260)" r="9575"/>
   <circle class="fil0" transform="matrix(0.224419 0.224419 -0.224419 0.224419 82488.5 157484)" r="9575"/>
   <circle class="fil0" transform="matrix(0.224419 0.224419 -0.224419 0.224419 91712.3 166708)" r="9575"/>
   <circle class="fil0" transform="matrix(0.224419 0.224419 -0.224419 0.224419 100936 175931)" r="9575"/>
   <circle class="fil0" transform="matrix(0.224419 0.224419 -0.224419 0.224419 110160 185155)" r="9575"/>
   <circle class="fil0" transform="matrix(0.224419 0.224419 -0.224419 0.224419 119384 194379)" r="9575"/>
   <circle class="fil0" transform="matrix(0.224419 0.224419 -0.224419 0.224419 128607 203603)" r="9575"/>
   <circle class="fil0" transform="matrix(0.224419 0.224419 -0.224419 0.224419 137831 212826)" r="9575"/>
   <circle class="fil0" transform="matrix(0.224419 0.224419 -0.224419 0.224419 147055 222050)" r="9575"/>
   <circle class="fil0" transform="matrix(0.224419 0.224419 -0.224419 0.224419 156278 231274)" r="9575"/>
   <circle class="fil0" transform="matrix(0.224419 0.224419 -0.224419 0.224419 165502 240498)" r="9575"/>
   <circle class="fil0" transform="matrix(0.224419 0.224419 -0.224419 0.224419 174726 249721)" r="9575"/>
   <circle class="fil0" transform="matrix(0.224419 0.224419 -0.224419 0.224419 183950 258945)" r="9575"/>
   <circle class="fil0" transform="matrix(0.224419 0.224419 -0.224419 0.224419 28037.1 119698)" r="9575"/>
   <circle class="fil0" transform="matrix(0.224419 0.224419 -0.224419 0.224419 37260.8 128922)" r="9575"/>
   <circle class="fil0" transform="matrix(0.224419 0.224419 -0.224419 0.224419 46484.5 138146)" r="9575"/>
   <circle class="fil0" transform="matrix(0.224419 0.224419 -0.224419 0.224419 55708.3 147369)" r="9575"/>
   <circle class="fil0" transform="matrix(0.224419 0.224419 -0.224419 0.224419 64932 156593)" r="9575"/>
   <circle class="fil0" transform="matrix(0.224419 0.224419 -0.224419 0.224419 74155.8 165817)" r="9575"/>
   <circle class="fil0" transform="matrix(0.224419 0.224419 -0.224419 0.224419 83379.5 175040)" r="9575"/>
   <circle class="fil0" transform="matrix(0.224419 0.224419 -0.224419 0.224419 92603.2 184264)" r="9575"/>
   <circle class="fil0" transform="matrix(0.224419 0.224419 -0.224419 0.224419 101827 193488)" r="9575"/>
   <circle class="fil0" transform="matrix(0.224419 0.224419 -0.224419 0.224419 111051 202712)" r="9575"/>
   <circle class="fil0" transform="matrix(0.224419 0.224419 -0.224419 0.224419 120274 211935)" r="9575"/>
   <circle class="fil0" transform="matrix(0.224419 0.224419 -0.224419 0.224419 129498 221159)" r="9575"/>
   <circle class="fil0" transform="matrix(0.224419 0.224419 -0.224419 0.224419 138722 230383)" r="9575"/>
   <circle class="fil0" transform="matrix(0.224419 0.224419 -0.224419 0.224419 147946 239607)" r="9575"/>
   <circle class="fil0" transform="matrix(0.224419 0.224419 -0.224419 0.224419 157169 248830)" r="9575"/>
   <circle class="fil0" transform="matrix(0.224419 0.224419 -0.224419 0.224419 166393 258054)" r="9575"/>
   <circle class="fil0" transform="matrix(0.224419 0.224419 -0.224419 0.224419 175617 267278)" r="9575"/>
   <circle class="fil0" transform="matrix(0.224419 0.224419 -0.224419 0.224419 19704.3 128031)" r="9575"/>
   <circle class="fil0" transform="matrix(0.224419 0.224419 -0.224419 0.224419 28928 137255)" r="9575"/>
   <circle class="fil0" transform="matrix(0.224419 0.224419 -0.224419 0.224419 38151.7 146478)" r="9575"/>
   <circle class="fil0" transform="matrix(0.224419 0.224419 -0.224419 0.224419 47375.5 155702)" r="9575"/>
   <circle class="fil0" transform="matrix(0.224419 0.224419 -0.224419 0.224419 56599.2 164926)" r="9575"/>
   <circle class="fil0" transform="matrix(0.224419 0.224419 -0.224419 0.224419 65823 174150)" r="9575"/>
   <circle class="fil0" transform="matrix(0.224419 0.224419 -0.224419 0.224419 75046.7 183373)" r="9575"/>
   <circle class="fil0" transform="matrix(0.224419 0.224419 -0.224419 0.224419 84270.4 192597)" r="9575"/>
   <circle class="fil0" transform="matrix(0.224419 0.224419 -0.224419 0.224419 93494.2 201821)" r="9575"/>
   <circle class="fil0" transform="matrix(0.224419 0.224419 -0.224419 0.224419 102718 211045)" r="9575"/>
   <circle class="fil0" transform="matrix(0.224419 0.224419 -0.224419 0.224419 111942 220268)" r="9575"/>
   <circle class="fil0" transform="matrix(0.224419 0.224419 -0.224419 0.224419 121165 229492)" r="9575"/>
   <circle class="fil0" transform="matrix(0.224419 0.224419 -0.224419 0.224419 130389 238716)" r="9575"/>
   <circle class="fil0" transform="matrix(0.224419 0.224419 -0.224419 0.224419 139613 247939)" r="9575"/>
   <circle class="fil0" transform="matrix(0.224419 0.224419 -0.224419 0.224419 148837 257163)" r="9575"/>
   <circle class="fil0" transform="matrix(0.224419 0.224419 -0.224419 0.224419 158060 266387)" r="9575"/>
   <circle class="fil0" transform="matrix(0.224419 0.224419 -0.224419 0.224419 167284 275611)" r="9575"/>
   <circle class="fil0" transform="matrix(0.224419 0.224419 -0.224419 0.224419 11371.5 136364)" r="9575"/>
   <circle class="fil0" transform="matrix(0.224419 0.224419 -0.224419 0.224419 20595.2 145587)" r="9575"/>
   <circle class="fil0" transform="matrix(0.224419 0.224419 -0.224419 0.224419 29819 154811)" r="9575"/>
   <circle class="fil0" transform="matrix(0.224419 0.224419 -0.224419 0.224419 39042.7 164035)" r="9575"/>
   <circle class="fil0" transform="matrix(0.224419 0.224419 -0.224419 0.224419 48266.4 173259)" r="9575"/>
   <circle class="fil0" transform="matrix(0.224419 0.224419 -0.224419 0.224419 57490.2 182482)" r="9575"/>
   <circle class="fil0" transform="matrix(0.224419 0.224419 -0.224419 0.224419 66713.9 191706)" r="9575"/>
   <circle class="fil0" transform="matrix(0.224419 0.224419 -0.224419 0.224419 75937.7 200930)" r="9575"/>
   <circle class="fil0" transform="matrix(0.224419 0.224419 -0.224419 0.224419 85161.4 210154)" r="9575"/>
   <circle class="fil0" transform="matrix(0.224419 0.224419 -0.224419 0.224419 94385.1 219377)" r="9575"/>
   <circle class="fil0" transform="matrix(0.224419 0.224419 -0.224419 0.224419 103609 228601)" r="9575"/>
   <circle class="fil0" transform="matrix(0.224419 0.224419 -0.224419 0.224419 112833 237825)" r="9575"/>
   <circle class="fil0" transform="matrix(0.224419 0.224419 -0.224419 0.224419 122056 247049)" r="9575"/>
   <circle class="fil0" transform="matrix(0.224419 0.224419 -0.224419 0.224419 131280 256272)" r="9575"/>
   <circle class="fil0" transform="matrix(0.224419 0.224419 -0.224419 0.224419 140504 265496)" r="9575"/>
   <circle class="fil0" transform="matrix(0.224419 0.224419 -0.224419 0.224419 149728 274720)" r="9575"/>
   <circle class="fil0" transform="matrix(0.224419 0.224419 -0.224419 0.224419 158951 283943)" r="9575"/>
   <circle class="fil0" transform="matrix(0.224419 0.224419 -0.224419 0.224419 3038.68 144696)" r="9575"/>
   <circle class="fil0" transform="matrix(0.224419 0.224419 -0.224419 0.224419 12262.4 153920)" r="9575"/>
   <circle class="fil0" transform="matrix(0.224419 0.224419 -0.224419 0.224419 21486.2 163144)" r="9575"/>
   <circle class="fil0" transform="matrix(0.224419 0.224419 -0.224419 0.224419 30709.9 172368)" r="9575"/>
   <circle class="fil0" transform="matrix(0.224419 0.224419 -0.224419 0.224419 39933.6 181591)" r="9575"/>
   <circle class="fil0" transform="matrix(0.224419 0.224419 -0.224419 0.224419 49157.4 190815)" r="9575"/>
   <circle class="fil0" transform="matrix(0.224419 0.224419 -0.224419 0.224419 58381.1 200039)" r="9575"/>
   <circle class="fil0" transform="matrix(0.224419 0.224419 -0.224419 0.224419 67604.9 209263)" r="9575"/>
   <circle class="fil0" transform="matrix(0.224419 0.224419 -0.224419 0.224419 76828.6 218486)" r="9575"/>
   <circle class="fil0" transform="matrix(0.224419 0.224419 -0.224419 0.224419 86052.3 227710)" r="9575"/>
   <circle class="fil0" transform="matrix(0.224419 0.224419 -0.224419 0.224419 95276.1 236934)" r="9575"/>
   <circle class="fil0" transform="matrix(0.224419 0.224419 -0.224419 0.224419 104500 246158)" r="9575"/>
   <circle class="fil0" transform="matrix(0.224419 0.224419 -0.224419 0.224419 113724 255381)" r="9575"/>
   <circle class="fil0" transform="matrix(0.224419 0.224419 -0.224419 0.224419 122947 264605)" r="9575"/>
   <circle class="fil0" transform="matrix(0.224419 0.224419 -0.224419 0.224419 132171 273829)" r="9575"/>
   <circle class="fil0" transform="matrix(0.224419 0.224419 -0.224419 0.224419 141395 283053)" r="9575"/>
   <circle class="fil0" transform="matrix(0.224419 0.224419 -0.224419 0.224419 150619 292276)" r="9575"/>
  </g>
 </g>
</svg>
