<?xml version="1.0" encoding="UTF-8"?>
<!DOCTYPE svg PUBLIC "-//W3C//DTD SVG 1.1//EN" "http://www.w3.org/Graphics/SVG/1.1/DTD/svg11.dtd">
<!-- Creator: CorelDRAW -->
<svg xmlns="http://www.w3.org/2000/svg" xml:space="preserve" width="96px" height="96px" version="1.1" style="shape-rendering:geometricPrecision; text-rendering:geometricPrecision; image-rendering:optimizeQuality; fill-rule:evenodd; clip-rule:evenodd"
viewBox="0 0 1355000 1355000"
 xmlns:xlink="http://www.w3.org/1999/xlink"
 xmlns:xodm="http://www.corel.com/coreldraw/odm/2003">
 <defs>
  <style type="text/css">
   <![CDATA[
    .fil0 {fill:url(#id0)}
   ]]>
  </style>
  <linearGradient id="id0" gradientUnits="userSpaceOnUse" x1="42000" y1="844000" x2="1307000" y2="595000">
   <stop offset="0" style="stop-opacity:1; stop-color:#8AD7BD"/>
   <stop offset="1" style="stop-opacity:1; stop-color:#02C969"/>
  </linearGradient>
 </defs>
 <g id="Szybki_x0020_kadr_x0020_-_x0020_zawartoæ">
  <metadata id="CorelCorpID_0Corel-Layer"/>
  <path class="fil0" d="M963000 833000c-13000,-11000 -31000,-10000 -42000,2000 -61000,69000 -150000,108000 -243000,108000 -93000,0 -182000,-39000 -244000,-108000 -10000,-12000 -29000,-13000 -41000,-2000 -12000,10000 -13000,29000 -2000,41000 72000,81000 177000,128000 287000,128000 110000,0 214000,-47000 287000,-128000 11000,-12000 10000,-31000 -2000,-41000zm-433000 -214000c0,16000 14000,29000 30000,29000 16000,0 29000,-13000 29000,-29000 0,-81000 -66000,-148000 -147000,-148000 -81000,0 -147000,67000 -147000,148000 0,16000 13000,29000 29000,29000 16000,0 30000,-13000 30000,-29000 0,-49000 39000,-89000 88000,-89000 49000,0 88000,40000 88000,89000zm383000 -148000c-81000,0 -147000,67000 -147000,148000 0,16000 13000,29000 30000,29000 16000,0 29000,-13000 29000,-29000 0,-49000 40000,-89000 88000,-89000 49000,0 89000,40000 89000,89000 0,16000 13000,29000 29000,29000 17000,0 30000,-13000 30000,-29000 0,-81000 -66000,-148000 -148000,-148000zm-235000 -471000c-374000,0 -678000,304000 -678000,678000 0,373000 304000,677000 678000,677000 373000,0 677000,-304000 677000,-677000 0,-374000 -304000,-678000 -677000,-678000zm0 1297000c-341000,0 -619000,-278000 -619000,-619000 0,-341000 278000,-619000 619000,-619000 341000,0 619000,278000 619000,619000 0,341000 -278000,619000 -619000,619000z"/>
 </g>
</svg>
