<?xml version="1.0" encoding="UTF-8"?>
<!DOCTYPE svg PUBLIC "-//W3C//DTD SVG 1.1//EN" "http://www.w3.org/Graphics/SVG/1.1/DTD/svg11.dtd">
<!-- Creator: CorelDRAW SE -->
<svg xmlns="http://www.w3.org/2000/svg" xml:space="preserve" width="59px" height="59px" version="1.1" style="shape-rendering:geometricPrecision; text-rendering:geometricPrecision; image-rendering:optimizeQuality; fill-rule:evenodd; clip-rule:evenodd"
viewBox="0 0 3219529 3219529"
 xmlns:xlink="http://www.w3.org/1999/xlink">
 <defs>
  <style type="text/css">
   <![CDATA[
    .fil0 {fill:#21CC7C}
   ]]>
  </style>
 </defs>
 <g id="Szybki_x0020_kadr_x0020_-_x0020_zawartość">
  <metadata id="CorelCorpID_0Corel-Layer"/>
  <g id="_1142449448">
   <g>
    <path class="fil0" d="M1609797 0c-887621,0 -1609797,722111 -1609797,1609797 0,887622 722176,1609732 1609797,1609732 887622,0 1609732,-722110 1609732,-1609732 0,-887686 -722110,-1609797 -1609732,-1609797zm0 3112210c-828460,0 -1502477,-674018 -1502477,-1502413 0,-828460 674017,-1502477 1502477,-1502477 828395,0 1502413,674017 1502413,1502477 0,828395 -674018,1502413 -1502413,1502413z"/>
    <path class="fil0" d="M1663457 1396258l0 -544237c0,-29646 -24079,-53660 -53660,-53660 -29646,0 -53660,24014 -53660,53660l0 544237c-75085,19548 -133858,78321 -153406,153342l-383193 0c-29646,0 -53660,24014 -53660,53659 0,29711 24014,53660 53660,53660l383193 0c24014,92303 107319,160980 207066,160980 118324,0 214640,-96251 214640,-214640 0,-99746 -68677,-182987 -160980,-207001zm-53660 314321c-59227,0 -107320,-48093 -107320,-107320 0,-59161 48093,-107319 107320,-107319 59162,0 107320,48158 107320,107319 0,59227 -48158,107320 -107320,107320z"/>
    <path class="fil0" d="M1609797 530126c29581,0 53660,-24014 53660,-53660l0 -53660c0,-29710 -24079,-53660 -53660,-53660 -29646,0 -53660,23950 -53660,53660l0 53660c0,29646 24014,53660 53660,53660z"/>
    <path class="fil0" d="M1609797 2676457c-29646,0 -53660,24015 -53660,53660l0 53660c0,29711 24014,53660 53660,53660 29581,0 53660,-23949 53660,-53660l0 -53660c0,-29645 -24079,-53660 -53660,-53660z"/>
    <path class="fil0" d="M2790250 1549600l-53660 0c-29581,0 -53660,24014 -53660,53659 0,29711 24079,53660 53660,53660l53660 0c29646,0 53660,-23949 53660,-53660 0,-29645 -24014,-53659 -53660,-53659z"/>
    <path class="fil0" d="M482939 1549600l-53660 0c-29645,0 -53660,24014 -53660,53659 0,29711 24015,53660 53660,53660l53660 0c29581,0 53660,-23949 53660,-53660 0,-29645 -24079,-53659 -53660,-53659z"/>
    <path class="fil0" d="M2406540 730590l-37931 37931c-20972,20972 -20972,54890 0,75862 10486,10486 24208,15729 37931,15729 13787,0 27509,-5243 37931,-15729l37995 -37931c20972,-20972 20972,-54890 0,-75862 -21036,-20972 -54954,-20972 -75926,0z"/>
    <path class="fil0" d="M775059 2362136l-37931 37931c-20972,20972 -20972,54890 0,75862 10421,10486 24208,15729 37931,15729 13722,0 27445,-5243 37931,-15729l37930 -37931c20972,-20972 20972,-54890 0,-75862 -20972,-20972 -54954,-20907 -75861,0z"/>
    <path class="fil0" d="M2444471 2362136c-20972,-20972 -54890,-20972 -75862,0 -20972,20972 -20972,54890 0,75862l37931 37931c10486,10486 24208,15729 37931,15729 13787,0 27509,-5243 37995,-15729 20972,-20972 20972,-54890 0,-75862l-37995 -37931z"/>
    <path class="fil0" d="M812990 730590c-20972,-20972 -54890,-20972 -75862,0 -20972,20972 -20972,54890 0,75862l37931 37931c10486,10486 24208,15729 37931,15729 13722,0 27444,-5243 37930,-15729 20972,-20972 20972,-54890 0,-75862l-37930 -37931z"/>
   </g>
   <g>
   </g>
   <g>
   </g>
   <g>
   </g>
   <g>
   </g>
   <g>
   </g>
   <g>
   </g>
   <g>
   </g>
   <g>
   </g>
   <g>
   </g>
   <g>
   </g>
   <g>
   </g>
   <g>
   </g>
   <g>
   </g>
   <g>
   </g>
   <g>
   </g>
  </g>
 </g>
</svg>
