<?xml version="1.0" encoding="UTF-8"?>
<!DOCTYPE svg PUBLIC "-//W3C//DTD SVG 1.1//EN" "http://www.w3.org/Graphics/SVG/1.1/DTD/svg11.dtd">
<!-- Creator: CorelDRAW SE -->
<svg xmlns="http://www.w3.org/2000/svg" xml:space="preserve" width="53px" height="47px" version="1.1" style="shape-rendering:geometricPrecision; text-rendering:geometricPrecision; image-rendering:optimizeQuality; fill-rule:evenodd; clip-rule:evenodd"
viewBox="0 0 1579018 1393142"
 xmlns:xlink="http://www.w3.org/1999/xlink">
 <defs>
  <style type="text/css">
   <![CDATA[
    .fil0 {fill:#041A5C}
   ]]>
  </style>
 </defs>
 <g id="Szybki_x0020_kadr_x0020_-_x0020_zawartość">
  <metadata id="CorelCorpID_0Corel-Layer"/>
  <g id="_898981184">
   <path class="fil0" d="M623004 1013480c-5949,0 -11969,-2065 -16869,-6229l-168691 -143633c-5810,-4970 -9170,-12215 -9170,-19879 0,-7630 3360,-14875 9170,-19844l168691 -143633c10955,-9345 27404,-8015 36748,2939 9310,10955 8015,27404 -2939,36749l-145383 123789 145383 123789c10954,9344 12249,25793 2939,36748 -5179,6089 -12494,9204 -19879,9204l0 0zm0 0z"/>
   <path class="fil0" d="M956013 1013480c-7350,0 -14699,-3115 -19844,-9204 -9344,-10955 -8015,-27404 2940,-36748l145383 -123789 -145383 -123789c-10955,-9345 -12284,-25794 -2940,-36749 9310,-10954 25794,-12284 36748,-2939l168692 143633c5810,4969 9135,12214 9135,19844 0,7664 -3325,14909 -9135,19879l-168692 143633c-4934,4164 -10919,6229 -16904,6229l0 0zm0 0z"/>
   <path class="fil0" d="M729819 1121205c-1820,0 -3605,-175 -5425,-560 -14069,-2975 -23098,-16799 -20124,-30903l105135 -499146c2940,-14069 16764,-23099 30869,-20124 14069,2940 23099,16764 20124,30869l-105135 499145c-2590,12284 -13404,20719 -25444,20719l0 0zm0 0z"/>
   <path class="fil0" d="M1403991 1393142l-1228965 0c-96490,0 -175026,-78501 -175026,-175027l0 -1043054c0,-96525 78536,-175061 175026,-175061l1228965 0c96525,0 175027,78536 175027,175061l0 1043054c0,96526 -78502,175027 -175027,175027zm-1228965 -1340995c-67756,0 -122879,55158 -122879,122914l0 1043054c0,67757 55123,122914 122879,122914l1228965 0c67757,0 122914,-55157 122914,-122914l0 -1043054c0,-67756 -55157,-122914 -122914,-122914l-1228965 0zm0 0z"/>
   <path class="fil0" d="M1552944 417460l-1526870 0c-14385,0 -26074,-11690 -26074,-26074 0,-14384 11689,-26074 26074,-26074l1526870 0c14419,0 26074,11690 26074,26074 0,14384 -11655,26074 -26074,26074l0 0zm0 0z"/>
   <path class="fil0" d="M445423 292691c-45463,0 -82491,-36994 -82491,-82491 0,-45463 37028,-82491 82491,-82491 45498,0 82491,36993 82491,82491 0,45497 -36993,82491 -82491,82491zm0 -112835c-16729,0 -30378,13615 -30378,30344 0,16764 13649,30378 30378,30378 16729,0 30344,-13614 30344,-30378 0,-16729 -13615,-30344 -30344,-30344zm0 0z"/>
   <path class="fil0" d="M191931 291921c-45463,0 -82491,-37029 -82491,-82526 0,-45463 37028,-82491 82491,-82491 45497,0 82526,37028 82526,82491 0,45497 -37029,82526 -82526,82526zm0 -112870c-16730,0 -30344,13615 -30344,30344 0,16764 13614,30378 30344,30378 16764,0 30378,-13614 30378,-30378 0,-16729 -13614,-30344 -30378,-30344zm0 0z"/>
   <path class="fil0" d="M698881 293496c-45463,0 -82491,-37029 -82491,-82491 0,-45498 37028,-82491 82491,-82491 45497,0 82491,36993 82491,82491 0,45462 -36994,82491 -82491,82491zm0 -112870c-16729,0 -30344,13614 -30344,30379 0,16729 13615,30343 30344,30343 16764,0 30378,-13614 30378,-30343 0,-16765 -13614,-30379 -30378,-30379zm0 0z"/>
  </g>
 </g>
</svg>
