<?xml version="1.0" encoding="UTF-8"?>
<!DOCTYPE svg PUBLIC "-//W3C//DTD SVG 1.1//EN" "http://www.w3.org/Graphics/SVG/1.1/DTD/svg11.dtd">
<!-- Creator: CorelDRAW SE -->
<svg xmlns="http://www.w3.org/2000/svg" xml:space="preserve" width="57px" height="57px" version="1.1" style="shape-rendering:geometricPrecision; text-rendering:geometricPrecision; image-rendering:optimizeQuality; fill-rule:evenodd; clip-rule:evenodd"
viewBox="0 0 475319 475825"
 xmlns:xlink="http://www.w3.org/1999/xlink">
 <defs>
  <style type="text/css">
   <![CDATA[
    .fil0 {fill:#FEFEFE}
   ]]>
  </style>
 </defs>
 <g id="Szybki_x0020_kadr_x0020_-_x0020_zawartość">
  <metadata id="CorelCorpID_0Corel-Layer"/>
  <g id="_898977872">
   <g id="Page-1">
    <g id="_035---Creative-Thinking">
     <path id="Shape" class="fil0" d="M410446 348946c2520,-13376 2460,-27099 -189,-40444l36327 -87656c0,-60 0,-119 0,-179 5884,-16114 14506,-31087 25491,-44264 2728,-2888 3830,-6956 2927,-10826l-14894 -64318c-179,-664 -447,-1319 -794,-1915 -59,-119 -89,-267 -149,-377 -59,-109 -337,-377 -496,-585 -327,-476 -704,-913 -1121,-1310 -278,-188 -566,-367 -863,-516 -387,-288 -804,-536 -1231,-754 -595,-218 -1220,-377 -1855,-446 -189,0 -348,-120 -526,-139 -1518,-100 -3036,238 -4366,982 -119,60 -268,79 -387,159l-79 0 -55993 34947c-3394,2094 -5497,5765 -5597,9754 -1557,17116 -6072,33846 -13335,49424l0 89 -18149 43878c-8910,-4733 -18446,-8177 -28329,-10230 3741,-25809 5110,-51915 4108,-77982 14765,-17711 21850,-40573 19687,-63534 -4962,-46219 -46726,-79598 -48512,-80997 -2679,-2114 -6420,-2273 -9267,-397 -2848,1875 -4178,5368 -3305,8662 4089,15340 546,31524 -29618,64814 -13554,13088 -17851,33062 -10875,50565 2669,6698 6489,12870 11291,18248 -1915,12244 -3423,23854 -4465,35146 -1786,18694 -2242,37487 -1379,56250 -7075,3830 -13693,8444 -19746,13753l-38459 -164476c0,-159 -159,-278 -209,-437 -129,-525 -317,-1041 -556,-1528l-39283 -72553c-3929,-7263 -12234,-10994 -20282,-9109 -8037,1885 -13822,8910 -14119,17166l-2987 82436c10,596 69,1191 198,1767 0,129 0,238 0,357l39244 167462c-6192,278 -12334,1191 -18337,2739l-43163 -104246c-3463,-7968 -12641,-11729 -20698,-8474l-65975 27307c-8077,3374 -11907,12631 -8583,20728l58533 141218c-34302,1805 -60934,30611 -60051,64952 883,34352 28964,61738 63325,61768l348936 0c22663,-327 43431,-12720 54485,-32516 11044,-19795 10696,-43977 -923,-63445 -11619,-19458 -32734,-31246 -55407,-30918zm-8077 -205268l33240 -20748 -11768 28418c-1677,4049 248,8693 4297,10369 4038,1677 8682,-248 10359,-4296l11768 -28418 8811 38172c-9426,11500 -17166,24280 -23000,37963 -8266,3831 -17762,4029 -26176,546 -8424,-3483 -15003,-10329 -18148,-18882 5566,-13803 9138,-28319 10617,-43124zm-18238 62254c5239,6420 12056,11372 19766,14398 6132,2639 12730,4028 19408,4088 1608,0 3205,-99 4803,-288l-25303 61063c-7581,-16709 -19299,-31206 -34054,-42101l15380 -37160zm-108652 -56638l39849 2441c238,7403 159,15063 -89,22842 -13276,953 -26612,308 -39730,-1915 -1002,-149 -1974,-258 -2967,-387 794,-7472 1757,-15043 2927,-22981l10 0zm-3780 -63861c21055,-23229 31970,-41099 34500,-57888 15142,15568 25134,35413 28627,56846 1667,18655 -4108,37210 -16055,51637 -15667,-953 -31156,-1905 -46477,-2858 -6588,-6152 -10369,-14725 -10488,-23734 -109,-9010 3453,-17682 9873,-24003l20 0zm-605 102639l2302 307c10220,1578 20529,2451 30869,2620 3284,0 6747,-258 10210,-526 -724,10200 -1905,20867 -3404,31881 -1954,-109 -3879,-298 -5844,-298 -11966,20 -23854,2064 -35146,6053 -367,-13356 -29,-26711 1003,-40037l10 0zm-61342 92746l-22682 -96656c-1062,-4187 -5289,-6757 -9496,-5775 -4217,993 -6857,5170 -5944,9397l20381 86991c-5606,-2014 -11391,-3453 -17285,-4307l-34808 -148540c4882,2223 10170,3374 15528,3384 506,0 1032,-80 1538,-100l5607 23944c605,2798 2679,5060 5417,5903 2739,844 5716,149 7799,-1825 2074,-1975 2928,-4922 2223,-7700l-5606 -23953c5378,-2382 10121,-5993 13852,-10548l35384 151299c-4595,5735 -8583,11927 -11908,18486zm-48451 -172097c-10141,1975 -20500,-2173 -26484,-10597l1013 -27932c2758,516 5556,784 8364,794 2709,10 5418,-288 8057,-903 5349,-1399 10359,-3890 14706,-7303l13355 24647c-1597,10221 -9029,18566 -19011,21314l0 -20zm-21721 -92637c1082,-248 2193,248 2729,1221l16997 31444c-3066,2769 -6727,4803 -10706,5944 -4058,744 -8246,546 -12215,-575l1290 -35732c40,-1111 824,-2054 1905,-2302zm-57392 158394l6063 14636 -29351 12155c-3473,1458 -5437,5169 -4703,8861 744,3701 3989,6370 7759,6380 1042,-10 2074,-209 3037,-606l29341 -12155 6072 14656 -14685 6082c-3493,1449 -5477,5160 -4743,8881 744,3711 4009,6380 7789,6370 1042,0 2074,-208 3036,-595l14676 -6083 6062 14656 -29360 12165c-3503,1449 -5488,5170 -4743,8881 734,3711 3998,6390 7789,6380 1032,0 2064,-208 3026,-605l29341 -12145 6420 15489c-25848,11797 -44790,34857 -51349,62502l-57481 -138598 66004 -27307zm330103 285491l-348936 0c-26284,0 -47588,-21304 -47588,-47588 0,-26275 21304,-47579 47588,-47579 4595,-10 9169,645 13564,1965 2382,724 4962,287 6966,-1181 2004,-1459 3215,-3781 3255,-6261 565,-28270 16908,-53830 42319,-66223 25412,-12384 55616,-9506 78230,7461 1994,1489 4574,1955 6965,1251 2392,-705 4307,-2481 5190,-4813 15489,-41297 58314,-65588 101706,-57689 43391,7888 74915,45703 74875,89809 20,9069 -1330,18088 -3999,26751 -833,2699 -178,5636 1737,7710 1915,2083 4782,2986 7541,2381 3473,-764 7025,-1151 10587,-1161 26275,0 47579,21304 47579,47579 0,26284 -21304,47588 -47579,47588z"/>
     <path id="Shape_0" class="fil0" d="M306696 124518c2490,10 4842,-1151 6340,-3136 9903,-13405 13733,-30343 10548,-46695 -675,-2798 -2808,-5011 -5587,-5775 -2768,-774 -5745,20 -7759,2064 -2024,2054 -2778,5031 -1975,7799 1906,11619 -932,23516 -7868,33032 -1796,2401 -2084,5616 -744,8305 1339,2689 4088,4386 7094,4386l-49 20z"/>
     <path id="Shape_1" class="fil0" d="M296267 364802c-5894,20 -11709,1379 -17007,3969 -14269,-19528 -40911,-25243 -61927,-13296 -21026,11947 -29747,37755 -20271,60001 1240,2928 4117,4823 7293,4823 1071,0 2123,-209 3105,-635 1935,-824 3463,-2382 4247,-4336 794,-1945 764,-4128 -59,-6063 -1727,-4029 -2610,-8365 -2610,-12741 0,-17523 14199,-31722 31712,-31722 12304,-60 23517,7075 28677,18238 168,258 357,506 555,744 119,278 258,546 417,794 139,178 347,258 506,426 377,387 784,735 1230,1032 397,298 824,566 1271,794 456,189 932,337 1428,437 487,129 983,208 1489,238 1032,-10 2054,-189 3026,-516 218,-40 427,-90 625,-149 258,-169 506,-347 744,-546 288,-129 566,-268 834,-426 4157,-3374 9357,-5210 14715,-5200 9278,10 17692,5408 21572,13832 1815,3989 6519,5745 10508,3929 3988,-1815 5745,-6519 3919,-10508 -6450,-14080 -20510,-23099 -35999,-23119z"/>
     <path id="Shape_2" class="fil0" d="M140146 309692c-1191,387 -29212,10082 -29212,39254 0,4376 3552,7928 7928,7928 4386,0 7938,-3552 7938,-7928 645,-11064 7918,-20639 18406,-24211 4168,-1399 6400,-5904 5011,-10072 -1399,-4157 -5904,-6400 -10071,-5001l0 30z"/>
     <path id="Shape_3" class="fil0" d="M251755 301119c625,159 1280,248 1925,238 3631,0 6806,-2470 7689,-6003 3642,-14804 16760,-25342 32001,-25719 4385,-10 7928,-3562 7918,-7948 -20,-4376 -3572,-7918 -7958,-7908 -22534,297 -42012,15816 -47340,37725 -1062,4247 1518,8553 5765,9615z"/>
    </g>
   </g>
  </g>
 </g>
</svg>
