<?xml version="1.0" encoding="UTF-8"?>
<!DOCTYPE svg PUBLIC "-//W3C//DTD SVG 1.1//EN" "http://www.w3.org/Graphics/SVG/1.1/DTD/svg11.dtd">
<!-- Creator: CorelDRAW SE -->
<svg xmlns="http://www.w3.org/2000/svg" xml:space="preserve" width="20px" height="16px" version="1.1" style="shape-rendering:geometricPrecision; text-rendering:geometricPrecision; image-rendering:optimizeQuality; fill-rule:evenodd; clip-rule:evenodd"
viewBox="0 0 423221 322064"
 xmlns:xlink="http://www.w3.org/1999/xlink">
 <defs>
  <style type="text/css">
   <![CDATA[
    .fil0 {fill:#041A5C}
   ]]>
  </style>
 </defs>
 <g id="Szybki_x0020_kadr_x0020_-_x0020_zawartość">
  <metadata id="CorelCorpID_0Corel-Layer"/>
  <g id="_767236320">
   <g>
    <g>
     <path class="fil0" d="M371529 0l-319788 0c-28549,0 -51741,23192 -51741,51741l0 218582c0,28525 23192,51741 51741,51741l319715 0c28549,0 51740,-23216 51740,-51741l0 -218485c98,-28549 -23118,-51838 -51667,-51838zm28109 270323c0,15486 -12599,28109 -28109,28109l-319788 0c-15510,0 -28109,-12623 -28109,-28109l0 -218485c0,-15510 12599,-28108 28109,-28108l319715 0c15485,0 28109,12598 28109,28108l0 218485 73 0z"/>
     <path class="fil0" d="M266898 158304l103506 -92815c4819,-4379 5260,-11816 881,-16733 -4379,-4819 -11816,-5235 -16734,-856l-142745 128091 -27839 -24855c-74,-98 -172,-171 -172,-269 -611,-611 -1223,-1150 -1932,-1663l-113316 -101402c-4893,-4379 -12330,-3939 -16709,954 -4379,4917 -3938,12354 955,16733l104728 93622 -104288 97635c-4722,4452 -4991,11889 -538,16709 2373,2470 5528,3767 8684,3767 2887,0 5774,-1052 8049,-3156l105878 -99029 28721 25663c2275,2006 5064,2960 7877,2960 2813,0 5700,-1028 7877,-3058l29503 -26445 105267 100007c2276,2177 5260,3229 8147,3229 3156,0 6214,-1223 8587,-3669 4452,-4722 4281,-12257 -441,-16734l-103946 -98686z"/>
    </g>
   </g>
   <g>
   </g>
   <g>
   </g>
   <g>
   </g>
   <g>
   </g>
   <g>
   </g>
   <g>
   </g>
   <g>
   </g>
   <g>
   </g>
   <g>
   </g>
   <g>
   </g>
   <g>
   </g>
   <g>
   </g>
   <g>
   </g>
   <g>
   </g>
   <g>
   </g>
  </g>
 </g>
</svg>
