<?xml version="1.0" encoding="UTF-8"?>
<!DOCTYPE svg PUBLIC "-//W3C//DTD SVG 1.1//EN" "http://www.w3.org/Graphics/SVG/1.1/DTD/svg11.dtd">
<!-- Creator: CorelDRAW SE -->
<svg xmlns="http://www.w3.org/2000/svg" xml:space="preserve" width="103px" height="103px" version="1.1" style="shape-rendering:geometricPrecision; text-rendering:geometricPrecision; image-rendering:optimizeQuality; fill-rule:evenodd; clip-rule:evenodd"
viewBox="0 0 1364551 1364551"
 xmlns:xlink="http://www.w3.org/1999/xlink">
 <defs>
  <style type="text/css">
   <![CDATA[
    .fil0 {fill:#225FC9;fill-rule:nonzero}
    .fil1 {fill:url(#id0);fill-rule:nonzero}
   ]]>
  </style>
  <linearGradient id="id0" gradientUnits="userSpaceOnUse" x1="667078" y1="375776" x2="754808" y2="355726">
   <stop offset="0" style="stop-opacity:1; stop-color:#8AD7BD"/>
   <stop offset="1" style="stop-opacity:1; stop-color:#02C969"/>
  </linearGradient>
 </defs>
 <g id="Szybki_x0020_kadr_x0020_-_x0020_zawartość">
  <metadata id="CorelCorpID_0Corel-Layer"/>
  <path class="fil0" d="M106810 1048692c-15996,-25059 -30412,-51230 -43075,-78355 -12537,-26843 -23368,-54610 -32337,-83112 -10315,-32729 -18219,-66506 -23509,-101097 -5197,-33887 -7889,-68572 -7889,-103852 0,-92379 18391,-180500 51683,-260905 34591,-83520 85273,-158666 148148,-221540 62890,-62875 138036,-113557 221555,-148148 80390,-33307 168527,-51683 260890,-51683 49210,0 97246,5228 143561,15167 47598,10205 93380,25372 136737,44953 40758,18391 79419,40711 115481,66443 36344,25951 70075,55408 100643,87840 9736,10330 12005,21271 9517,29613 -1065,3569 -2990,6684 -5588,9110 -2583,2426 -5854,4148 -9564,4977 -8812,1941 -20269,-1283 -31272,-12850 -28206,-29645 -59275,-56567 -92755,-80342 -33151,-23557 -68713,-44014 -106231,-60950 -40241,-18156 -82768,-32243 -126985,-41728 -43012,-9204 -87699,-14056 -133544,-14056 -85915,0 -167822,17077 -242499,48005 -77556,32118 -147380,79231 -205872,137723 -58492,58477 -105589,128301 -137723,205857 -30928,74676 -48005,156584 -48005,242514 0,32900 2505,65206 7310,96714 4930,32197 12271,63579 21819,93928 8562,27220 18892,53625 30850,79028 12099,25732 25889,50541 41228,74254 8264,12787 9000,24887 5275,33088 -1613,3569 -4086,6465 -7169,8452 -3084,1973 -6762,3021 -10800,2912 -9078,-266 -20097,-6637 -29880,-21960z"/>
  <path class="fil0" d="M395419 589568c-1001,-7028 -2019,-13680 -3036,-19941 -1096,-6714 -2051,-12866 -2849,-18406 -845,-5917 -1581,-11317 -2175,-16216l-1550 -12412 -1158 -8092c-313,-3444 -517,-6965 -579,-10550 -79,-3600 -47,-7262 109,-10941 157,-3960 611,-7669 1331,-11081 751,-3506 1831,-6809 3193,-9877 1471,-3334 3396,-6167 5713,-8499 2394,-2363 5181,-4226 8405,-5541 41681,-17108 32979,37080 35906,63188l2582 22069c924,7685 1973,15120 3131,22305 1174,7325 2520,14681 4038,22053 1471,7247 3115,14291 4915,21099l1033 3820c1299,-3710 2629,-7310 3944,-10800 3115,-8202 6308,-15872 9532,-22946 18955,-41494 38035,-79200 73894,-107296 16967,-14540 55346,-25716 75490,-7810 5197,4617 9845,10769 13915,18438 3897,7263 7466,15590 10753,24950 3240,9281 6151,19486 8749,30631 2567,11003 4962,22429 7169,34278 2207,11817 4226,23916 6042,36282 1847,12693 3725,24871 5619,36547 1972,12131 4007,24042 6104,35687 2082,11661 4445,22555 7044,32666 2582,10017 5431,19362 8561,28002 3037,8389 6465,15605 10253,21615 3678,5838 7716,10534 12099,14087 2019,1644 4163,2880 6417,3710 1190,422 2395,735 3663,954 22679,-56316 37439,-69589 30646,-128910 -1064,-9282 -2300,-18313 -3693,-27032 -1409,-8843 -3021,-17640 -4821,-26358 -1785,-8655 -3804,-17311 -6042,-25951 -2238,-8671 -4727,-17358 -7404,-26045 -5603,-18031 -11050,-35843 -16309,-53421l-47 -125c-1064,-3929 -1456,-7513 -1190,-10769 314,-3584 1409,-6746 3319,-9485 1659,-2379 3568,-4429 5728,-6104 2207,-1738 4633,-3068 7232,-4007 2692,-955 5509,-1440 8467,-1440 2802,0 5760,454 8844,1362 3224,954 6198,2504 8922,4664 2598,2066 4993,4711 7106,7904l281 470c3663,7043 6981,14040 9908,20974 2927,6949 5478,13821 7638,20598 12381,38880 24668,77180 29739,118878l5025 -4117c115998,-97184 307564,-198077 458622,-214434 57772,-6245 66491,83927 75240,127628l345 1862c4398,21788 7732,44108 9986,66835 2207,22398 3333,45015 3333,67758 0,92363 -18375,180500 -51683,260889 -34591,83520 -85273,158666 -148147,221556 -62875,62874 -138020,113556 -221556,148147 -80389,33292 -168510,51683 -260889,51683 -36611,0 -72657,-2911 -107890,-8530 -36000,-5729 -71014,-14275 -104823,-25356 -28079,-9219 -55439,-20239 -81891,-32932 -26734,-12820 -52466,-27313 -77071,-43325 -19879,-12945 -28800,-25983 -30146,-35906 -626,-4555 250,-8609 2316,-11912 2098,-3318 5337,-5775 9470,-7121 8640,-2818 21709,-689 35921,8906 24136,16278 49383,30913 75569,43747 25888,12679 52841,23666 80702,32807 31476,10331 64017,18266 97387,23557 32635,5196 66178,7888 100456,7888 85930,0 167837,-17076 242514,-48005 77556,-32134 147380,-79246 205856,-137723 58492,-58492 105605,-128316 137723,-205872 30929,-74676 48005,-156584 48005,-242498 0,-21397 -1033,-42433 -3068,-63047 -2066,-20927 -5180,-41650 -9281,-62139l-2489 -12694c-5744,-29598 -8718,-61732 -25904,-76116 -57443,-48083 -427757,157852 -452174,218363 -1346,2989 -2019,6088 -2019,9281 0,28190 1455,56880 2942,85821 5369,105511 10910,214262 -51965,298752 -5008,6746 -10189,12662 -15542,17765 -5385,5165 -10972,9501 -16717,13023 -5916,3615 -11958,6135 -18094,7528 -6167,1425 -12443,1722 -18813,877 -6637,-861 -13101,-3553 -19378,-8045 -5979,-4289 -11864,-10284 -17655,-18000l-110 -126c-3819,-5415 -7028,-11269 -9595,-17546 -2551,-6229 -4476,-12850 -5744,-19862 -1252,-6856 -2082,-13837 -2457,-20880 -392,-7090 -345,-14275 109,-21553 454,-7231 1190,-14353 2191,-21350 1002,-6949 2270,-13836 3820,-20645 3036,-13414 6714,-25356 10987,-35812 1816,-6026 5025,-15010 9595,-26906l7263 -19080 8108 -21600c5916,-15902 11770,-31429 17530,-46518 -1565,-610 -3177,-1283 -4805,-2019 -43388,-19721 -73894,-57615 -78871,-105072 -720,-6856 -1566,-15512 -2489,-25999 -877,-9735 -1894,-20175 -3068,-31304 -1080,-10299 -2316,-21381 -3725,-33229 -1330,-11270 -3130,-22524 -5369,-33746 -2254,-11270 -4930,-22367 -8029,-33308 -1550,-5478 -3225,-10596 -4993,-15386 -1785,-4789 -3725,-9360 -5807,-13696 -6011,-12459 -12459,-15573 -18939,-12459 -58257,28080 -103304,227050 -110238,312229 -532,6652 -955,12881 -1237,18610 -594,11786 -892,20144 -892,25091l0 1126 -516 1112c-2505,5368 -5713,9454 -9626,12255 -4101,2912 -8828,4383 -14150,4383 -15683,0 -31774,-244830 -39741,-300787zm343580 448292c16748,-36015 22977,-73267 26671,-109564 4774,-42918 9125,-110864 2207,-113275 -6402,-2614 -7607,2035 -13492,14181 -31179,64393 -45297,130727 -44170,202507 657,40524 11081,44249 28784,6151z"/>
  <path class="fil1" d="M710935 320884c24793,0 44874,20082 44874,44875 0,24777 -20081,44859 -44874,44859 -24778,0 -44859,-20082 -44859,-44859 0,-24793 20081,-44875 44859,-44875z"/>
 </g>
</svg>
