<?xml version="1.0" encoding="UTF-8"?>
<!DOCTYPE svg PUBLIC "-//W3C//DTD SVG 1.1//EN" "http://www.w3.org/Graphics/SVG/1.1/DTD/svg11.dtd">
<!-- Creator: CorelDRAW SE -->
<svg xmlns="http://www.w3.org/2000/svg" xml:space="preserve" width="20px" height="20px" version="1.1" style="shape-rendering:geometricPrecision; text-rendering:geometricPrecision; image-rendering:optimizeQuality; fill-rule:evenodd; clip-rule:evenodd"
viewBox="0 0 422520 423107"
 xmlns:xlink="http://www.w3.org/1999/xlink">
 <defs>
  <style type="text/css">
   <![CDATA[
    .fil0 {fill:#041A5C}
   ]]>
  </style>
 </defs>
 <g id="Szybki_x0020_kadr_x0020_-_x0020_zawartość">
  <metadata id="CorelCorpID_0Corel-Layer"/>
  <g id="_767213184">
   <g>
    <g>
     <path class="fil0" d="M334108 262106c-8658,-9024 -19126,-13842 -30180,-13842 -10981,0 -21522,4744 -30547,13769l-28223 28125c-2324,-1247 -4647,-2421 -6873,-3570 -3204,-1614 -6261,-3131 -8829,-4745 -26438,-16777 -50455,-38667 -73493,-66963 -11177,-14112 -18686,-25998 -24115,-38056 7313,-6701 14112,-13647 20715,-20348 2495,-2494 4989,-5087 7508,-7606 18735,-18734 18735,-43020 0,-61778l-24383 -24384c-2764,-2764 -5625,-5625 -8316,-8487 -5356,-5527 -10981,-11250 -16777,-16606 -8658,-8584 -19028,-13133 -29911,-13133 -10908,0 -21449,4549 -30376,13133 -98,98 -98,98 -171,171l-30376 30645c-11421,11421 -17927,25362 -19370,41503 -2152,26096 5528,50382 11422,66279 14478,39009 36098,75181 68333,113945 39107,46689 86162,83570 139919,109568 20543,9734 47960,21253 78580,23210 1883,98 3840,171 5625,171 20642,0 37958,-7410 51531,-22134 98,-171 269,-269 367,-440 4647,-5625 10003,-10736 15628,-16166 3840,-3669 7753,-7508 11593,-11519 8853,-9196 13500,-19908 13500,-30914 0,-11055 -4745,-21693 -13769,-30620l-49012 -49208zm31965 94038c-98,0 -98,97 0,0 -3473,3742 -7043,7141 -10883,10883 -5821,5552 -11715,11348 -17242,17878 -9025,9636 -19639,14185 -33580,14185 -1345,0 -2764,0 -4109,-73 -26511,-1712 -51164,-12058 -69653,-20911 -50553,-24457 -94918,-59210 -131800,-103233 -30449,-36686 -50821,-70632 -64297,-107073 -8315,-22232 -11348,-39547 -10003,-55885 880,-10443 4916,-19125 12326,-26535l30449 -30449c4378,-4109 9025,-6335 13574,-6335 5625,0 10174,3400 13036,6261 97,74 171,171 269,269 5454,5087 10614,10346 16068,15971 2764,2861 5625,5723 8487,8657l24383 24384c9465,9465 9465,18221 0,27686 -2592,2592 -5087,5184 -7679,7679 -7509,7680 -14650,14821 -22427,21791 -172,171 -343,269 -441,440 -7679,7680 -6261,15188 -4646,20275 97,269 171,538 269,807 6334,15360 15285,29814 28859,47056l73 98c24653,30351 50626,54025 79290,72148 3669,2323 7435,4207 11006,5992 3204,1590 6236,3106 8829,4720 367,171 709,440 1076,636 3032,1516 5894,2226 8829,2226 7410,0 12057,-4647 13573,-6164l30547 -30546c3033,-3033 7851,-6702 13476,-6702 5552,0 10101,3498 12865,6530 97,98 97,98 171,172l49207 49207c9196,9123 9196,18490 98,27955z"/>
     <path class="fil0" d="M228380 100665c23381,3913 44634,14992 61607,31966 16973,16973 27955,38226 31966,61607 978,5894 6089,10003 11886,10003 709,0 1345,-74 2054,-171 6604,-1076 10981,-7337 9905,-13941 -4818,-28297 -18220,-54099 -38666,-74569 -20446,-20447 -46249,-33825 -74570,-38643 -6603,-1076 -12766,3302 -13916,9808 -1174,6530 3131,12864 9734,13940z"/>
     <path class="fil0" d="M422324 186656c-7948,-46615 -29911,-89023 -63661,-122799 -33751,-33750 -76184,-55713 -122799,-63661 -6506,-1150 -12669,3301 -13843,9831 -1052,6604 3326,12767 9930,13916 41601,7069 79558,26805 109738,56888 30180,30180 49844,68137 56888,109763 978,5894 6065,10003 11886,10003 709,0 1320,-98 2054,-196 6506,-978 10981,-7239 9807,-13745z"/>
    </g>
   </g>
   <g>
   </g>
   <g>
   </g>
   <g>
   </g>
   <g>
   </g>
   <g>
   </g>
   <g>
   </g>
   <g>
   </g>
   <g>
   </g>
   <g>
   </g>
   <g>
   </g>
   <g>
   </g>
   <g>
   </g>
   <g>
   </g>
   <g>
   </g>
   <g>
   </g>
  </g>
 </g>
</svg>
